G04*
G04 #@! TF.GenerationSoftware,Altium Limited,Altium Designer,22.5.1 (42)*
G04*
G04 Layer_Color=128*
%FSLAX42Y42*%
%MOMM*%
G71*
G04*
G04 #@! TF.SameCoordinates,49A84A85-C09A-4E6C-912C-EF7BF64B6CC2*
G04*
G04*
G04 #@! TF.FilePolarity,Positive*
G04*
G01*
G75*
%ADD17R,1.00X1.50*%
%ADD18R,1.50X1.00*%
%ADD19R,1.80X1.30*%
D17*
X10930Y3960D02*
D03*
X10610D02*
D03*
X11330Y2430D02*
D03*
X11650D02*
D03*
D18*
X12711Y5376D02*
D03*
X11840Y5370D02*
D03*
X9730Y5700D02*
D03*
Y5380D02*
D03*
X8711Y2046D02*
D03*
Y1726D02*
D03*
X12210Y1730D02*
D03*
Y2050D02*
D03*
X11040Y1730D02*
D03*
Y2050D02*
D03*
X9861Y1726D02*
D03*
Y2046D02*
D03*
X7536Y1726D02*
D03*
Y2046D02*
D03*
X6361Y1726D02*
D03*
Y2046D02*
D03*
X5190Y1730D02*
D03*
Y2050D02*
D03*
X4036Y1726D02*
D03*
Y2046D02*
D03*
X2861Y1726D02*
D03*
Y2046D02*
D03*
X1686Y1726D02*
D03*
Y2046D02*
D03*
X850Y1730D02*
D03*
Y2050D02*
D03*
X12711Y5696D02*
D03*
X11840Y5690D02*
D03*
X10361Y5696D02*
D03*
Y5376D02*
D03*
X8011Y5696D02*
D03*
Y5376D02*
D03*
X6861Y5696D02*
D03*
Y5376D02*
D03*
X5686Y5721D02*
D03*
Y5401D02*
D03*
X4511Y5696D02*
D03*
Y5376D02*
D03*
X3361Y5696D02*
D03*
Y5376D02*
D03*
X2186Y5696D02*
D03*
Y5376D02*
D03*
X970Y5710D02*
D03*
Y5390D02*
D03*
D19*
X1175Y3845D02*
D03*
Y3555D02*
D03*
X2150Y3595D02*
D03*
Y3305D02*
D03*
M02*
