M48
;Layer_Color=9474304
;FILE_FORMAT=4:2
METRIC,LZ
;TYPE=PLATED
T1F00S00C0.90
T2F00S00C1.00
T3F00S00C1.10
T4F00S00C1.10
T5F00S00C1.33
T6F00S00C3.00
;TYPE=NON_PLATED
T7F00S00C2.50
%
T01
X0108Y00476
X0113
X01105Y00526
T02
X009607Y002911
X009861
X010115
Y004689
X009861
X009607
X009353
X009099
X008845
X008591
X008337
X008083
X007829
X007575
X007321
X007067
X006813
X006559
X006305
X006051
X005797
X005543
Y002911
X005797
X006051
X006305
X006559
X006813
X007067
X007321
X007575
X007829
X008083
X008337
X008591
X008845
X009099
X009353
X005289
Y004689
T03
X01077Y00365
X011024
X011278
X011264Y00425
X01101
X010756
T04
X000525Y000486
X001033
X001707Y000461
X002215
X002862
X00337
X004057
X004565
X005207
X005715
X006357
X006865
X007557
X008065
X008707
X009215
X009907
X010415
X011057
X011565
X012207
X012715
X01265Y002486
Y002994
X000475Y003496
Y004004
X000432Y007086
X00094
X001632
X00214
X002807
X003315
X003982
X00449
X005107
X005615
X006282
X00679
X007457
X007965
X008657
X009165
X009832
X01034
X011007
X011515
X012182
X01269
T05
X000525Y001286
X000779
X001033
X001693
X001947
X002201
X002862
X003116
X00337
X00403
X004284
X004538
X005198
X005452
X005706
X006366
X00662
X006874
X007534
X007788
X008042
X008702
X008956
X00921
X009871
X010125
X010379
X011039
X011293
X011547
X012207
X012461
X012715
X01196Y002476
Y00273
Y002984
X001575Y003346
Y0036
Y003854
X000965Y006186
X000711
X000457
X001675Y006186
X001929
X002183
X002843
X003097
X003351
X004011
X004265
X004519
X005179
X005433
X005687
X006348
X006602
X006856
X007516
X00777
X008024
X008684
X008938
X009192
X009852
X010106
X01036
X01102
X011274
X011528
X012188
X012442
X012696
T06
X01225Y00479
X00099Y00261
T07
X01105Y00501
M30
