G04*
G04 #@! TF.GenerationSoftware,Altium Limited,Altium Designer,22.5.1 (42)*
G04*
G04 Layer_Color=16711935*
%FSLAX42Y42*%
%MOMM*%
G71*
G04*
G04 #@! TF.SameCoordinates,49A84A85-C09A-4E6C-912C-EF7BF64B6CC2*
G04*
G04*
G04 #@! TF.FilePolarity,Positive*
G04*
G01*
G75*
%ADD10C,0.13*%
%ADD11C,0.20*%
%ADD53C,0.10*%
D10*
X11335Y4877D02*
G03*
X10765Y4877I-285J133D01*
G01*
X11335Y4695D02*
Y4876D01*
X10765Y4695D02*
X11335D01*
X10765D02*
Y4876D01*
X11688Y2222D02*
Y3238D01*
X12108D01*
Y2222D02*
Y3238D01*
X11688Y2222D02*
X12108D01*
X13060Y2232D02*
Y3248D01*
X12240Y2232D02*
X13060D01*
X12240D02*
Y3248D01*
X13060D01*
X1427Y4108D02*
X1847D01*
X1427Y3092D02*
Y4108D01*
Y3092D02*
X1847D01*
Y4108D01*
X11953Y1138D02*
Y1558D01*
Y1138D02*
X12969D01*
Y1558D01*
X11953D02*
X12969D01*
X10785Y1138D02*
Y1558D01*
Y1138D02*
X11801D01*
Y1558D01*
X10785D02*
X11801D01*
X9617Y1138D02*
Y1558D01*
Y1138D02*
X10633D01*
Y1558D01*
X9617D02*
X10633D01*
X8448Y1138D02*
Y1558D01*
Y1138D02*
X9464D01*
Y1558D01*
X8448D02*
X9464D01*
X7280Y1138D02*
Y1558D01*
Y1138D02*
X8296D01*
Y1558D01*
X7280D02*
X8296D01*
X6112Y1138D02*
Y1558D01*
Y1138D02*
X7128D01*
Y1558D01*
X6112D02*
X7128D01*
X3776Y1138D02*
Y1558D01*
Y1138D02*
X4792D01*
Y1558D01*
X3776D02*
X4792D01*
X2608Y1138D02*
Y1558D01*
Y1138D02*
X3624D01*
Y1558D01*
X2608D02*
X3624D01*
X1439Y1138D02*
Y1558D01*
Y1138D02*
X2455D01*
Y1558D01*
X1439D02*
X2455D01*
X271Y1138D02*
Y1558D01*
Y1138D02*
X1287D01*
Y1558D01*
X271D02*
X1287D01*
X4944Y1138D02*
Y1558D01*
Y1138D02*
X5960D01*
Y1558D01*
X4944D02*
X5960D01*
X2394Y6676D02*
Y7496D01*
X1378D02*
X2394D01*
X1378Y6676D02*
Y7496D01*
Y6676D02*
X2394D01*
X3569D02*
Y7496D01*
X2553D02*
X3569D01*
X2553Y6676D02*
Y7496D01*
Y6676D02*
X3569D01*
X4744D02*
Y7496D01*
X3728D02*
X4744D01*
X3728Y6676D02*
Y7496D01*
Y6676D02*
X4744D01*
X5869D02*
Y7496D01*
X4853D02*
X5869D01*
X4853Y6676D02*
Y7496D01*
Y6676D02*
X5869D01*
X7044D02*
Y7496D01*
X6028D02*
X7044D01*
X6028Y6676D02*
Y7496D01*
Y6676D02*
X7044D01*
X8219D02*
Y7496D01*
X7203D02*
X8219D01*
X7203Y6676D02*
Y7496D01*
Y6676D02*
X8219D01*
X9419D02*
Y7496D01*
X8403D02*
X9419D01*
X8403Y6676D02*
Y7496D01*
Y6676D02*
X9419D01*
X10594D02*
Y7496D01*
X9578D02*
X10594D01*
X9578Y6676D02*
Y7496D01*
Y6676D02*
X10594D01*
X11769D02*
Y7496D01*
X10753D02*
X11769D01*
X10753Y6676D02*
Y7496D01*
Y6676D02*
X11769D01*
X12944D02*
Y7496D01*
X11928D02*
X12944D01*
X11928Y6676D02*
Y7496D01*
Y6676D02*
X12944D01*
X1219Y5914D02*
Y6334D01*
X203D02*
X1219D01*
X203Y5914D02*
Y6334D01*
Y5914D02*
X1219D01*
X2437Y5914D02*
Y6334D01*
X1421D02*
X2437D01*
X1421Y5914D02*
Y6334D01*
Y5914D02*
X2437D01*
X3605D02*
Y6334D01*
X2589D02*
X3605D01*
X2589Y5914D02*
Y6334D01*
Y5914D02*
X3605D01*
X4773D02*
Y6334D01*
X3757D02*
X4773D01*
X3757Y5914D02*
Y6334D01*
Y5914D02*
X4773D01*
X5941D02*
Y6334D01*
X4925D02*
X5941D01*
X4925Y5914D02*
Y6334D01*
Y5914D02*
X5941D01*
X7110D02*
Y6334D01*
X6094D02*
X7110D01*
X6094Y5914D02*
Y6334D01*
Y5914D02*
X7110D01*
X8278D02*
Y6334D01*
X7262D02*
X8278D01*
X7262Y5914D02*
Y6334D01*
Y5914D02*
X8278D01*
X9446D02*
Y6334D01*
X8430D02*
X9446D01*
X8430Y5914D02*
Y6334D01*
Y5914D02*
X9446D01*
X10614D02*
Y6334D01*
X9598D02*
X10614D01*
X9598Y5914D02*
Y6334D01*
Y5914D02*
X10614D01*
X11782D02*
Y6334D01*
X10766D02*
X11782D01*
X10766Y5914D02*
Y6334D01*
Y5914D02*
X11782D01*
X12950D02*
Y6334D01*
X11934D02*
X12950D01*
X11934Y5914D02*
Y6334D01*
Y5914D02*
X12950D01*
X1194Y6676D02*
Y7496D01*
X178D02*
X1194D01*
X178Y6676D02*
Y7496D01*
Y6676D02*
X1194D01*
X65Y3242D02*
X885D01*
Y4258D01*
X65D02*
X885D01*
X65Y3242D02*
Y4258D01*
X11953Y51D02*
Y871D01*
Y51D02*
X12969D01*
Y871D01*
X11953D02*
X12969D01*
X10803Y51D02*
Y871D01*
Y51D02*
X11819D01*
Y871D01*
X10803D02*
X11819D01*
X9653Y51D02*
Y871D01*
Y51D02*
X10669D01*
Y871D01*
X9653D02*
X10669D01*
X8453Y51D02*
Y871D01*
Y51D02*
X9469D01*
Y871D01*
X8453D02*
X9469D01*
X7303Y51D02*
Y871D01*
Y51D02*
X8319D01*
Y871D01*
X7303D02*
X8319D01*
X6103Y51D02*
Y871D01*
Y51D02*
X7119D01*
Y871D01*
X6103D02*
X7119D01*
X271Y76D02*
Y896D01*
Y76D02*
X1287D01*
Y896D01*
X271D02*
X1287D01*
X4953Y871D02*
X5969D01*
Y51D02*
Y871D01*
X4953Y51D02*
X5969D01*
X4953D02*
Y871D01*
X3803D02*
X4819D01*
Y51D02*
Y871D01*
X3803Y51D02*
X4819D01*
X3803D02*
Y871D01*
X2608D02*
X3624D01*
Y51D02*
Y871D01*
X2608Y51D02*
X3624D01*
X2608D02*
Y871D01*
X1453D02*
X2469D01*
Y51D02*
Y871D01*
X1453Y51D02*
X2469D01*
X1453D02*
Y871D01*
D11*
X10660Y4760D02*
G03*
X10660Y4760I-10J0D01*
G01*
X11970Y2147D02*
G03*
X11970Y2147I-10J0D01*
G01*
X12533Y2994D02*
G03*
X12533Y2994I-10J0D01*
G01*
X1585Y4183D02*
G03*
X1585Y4183I-10J0D01*
G01*
X11888Y1286D02*
G03*
X11888Y1286I-10J0D01*
G01*
X10720D02*
G03*
X10720Y1286I-10J0D01*
G01*
X9552D02*
G03*
X9552Y1286I-10J0D01*
G01*
X8383D02*
G03*
X8383Y1286I-10J0D01*
G01*
X7215D02*
G03*
X7215Y1286I-10J0D01*
G01*
X6047D02*
G03*
X6047Y1286I-10J0D01*
G01*
X3711D02*
G03*
X3711Y1286I-10J0D01*
G01*
X2543D02*
G03*
X2543Y1286I-10J0D01*
G01*
X1374D02*
G03*
X1374Y1286I-10J0D01*
G01*
X206D02*
G03*
X206Y1286I-10J0D01*
G01*
X4879D02*
G03*
X4879Y1286I-10J0D01*
G01*
X2150Y7213D02*
G03*
X2150Y7213I-10J0D01*
G01*
X3325D02*
G03*
X3325Y7213I-10J0D01*
G01*
X4500D02*
G03*
X4500Y7213I-10J0D01*
G01*
X5625D02*
G03*
X5625Y7213I-10J0D01*
G01*
X6800D02*
G03*
X6800Y7213I-10J0D01*
G01*
X7975D02*
G03*
X7975Y7213I-10J0D01*
G01*
X9175D02*
G03*
X9175Y7213I-10J0D01*
G01*
X10350D02*
G03*
X10350Y7213I-10J0D01*
G01*
X11525D02*
G03*
X11525Y7213I-10J0D01*
G01*
X12700D02*
G03*
X12700Y7213I-10J0D01*
G01*
X1304Y6186D02*
G03*
X1304Y6186I-10J0D01*
G01*
X2522Y6186D02*
G03*
X2522Y6186I-10J0D01*
G01*
X3690D02*
G03*
X3690Y6186I-10J0D01*
G01*
X4858D02*
G03*
X4858Y6186I-10J0D01*
G01*
X6026D02*
G03*
X6026Y6186I-10J0D01*
G01*
X7195D02*
G03*
X7195Y6186I-10J0D01*
G01*
X8363D02*
G03*
X8363Y6186I-10J0D01*
G01*
X9531D02*
G03*
X9531Y6186I-10J0D01*
G01*
X10699D02*
G03*
X10699Y6186I-10J0D01*
G01*
X11867D02*
G03*
X11867Y6186I-10J0D01*
G01*
X13035D02*
G03*
X13035Y6186I-10J0D01*
G01*
X950Y7213D02*
G03*
X950Y7213I-10J0D01*
G01*
X612Y3496D02*
G03*
X612Y3496I-10J0D01*
G01*
X12217Y334D02*
G03*
X12217Y334I-10J0D01*
G01*
X11067D02*
G03*
X11067Y334I-10J0D01*
G01*
X9917D02*
G03*
X9917Y334I-10J0D01*
G01*
X8717D02*
G03*
X8717Y334I-10J0D01*
G01*
X7567D02*
G03*
X7567Y334I-10J0D01*
G01*
X6367D02*
G03*
X6367Y334I-10J0D01*
G01*
X535Y359D02*
G03*
X535Y359I-10J0D01*
G01*
X5217Y334D02*
G03*
X5217Y334I-10J0D01*
G01*
X4067D02*
G03*
X4067Y334I-10J0D01*
G01*
X2872D02*
G03*
X2872Y334I-10J0D01*
G01*
X1717D02*
G03*
X1717Y334I-10J0D01*
G01*
D53*
X10607Y4042D02*
X10932D01*
X10607Y3878D02*
X10932D01*
Y4042D01*
X10607Y3878D02*
Y4042D01*
X11328Y2348D02*
X11653D01*
X11328Y2512D02*
X11653D01*
X11328Y2348D02*
Y2512D01*
X11653Y2348D02*
Y2512D01*
X9647Y5703D02*
X9812D01*
X9647Y5378D02*
X9812D01*
X9647D02*
Y5703D01*
X9812Y5378D02*
Y5703D01*
X8628Y1723D02*
Y2048D01*
X8793Y1723D02*
Y2048D01*
X8628D02*
X8793D01*
X8628Y1723D02*
X8793D01*
X1085Y3530D02*
Y3870D01*
X1265Y3530D02*
Y3870D01*
X1085D02*
X1265D01*
X1085Y3530D02*
X1265D01*
X12128Y1727D02*
X12293D01*
X12128Y2052D02*
X12293D01*
Y1727D02*
Y2052D01*
X12128Y1727D02*
Y2052D01*
X10957Y1727D02*
X11122D01*
X10957Y2052D02*
X11122D01*
Y1727D02*
Y2052D01*
X10957Y1727D02*
Y2052D01*
X9778Y1723D02*
X9943D01*
X9778Y2048D02*
X9943D01*
Y1723D02*
Y2048D01*
X9778Y1723D02*
Y2048D01*
X7453Y1723D02*
X7618D01*
X7453Y2048D02*
X7618D01*
Y1723D02*
Y2048D01*
X7453Y1723D02*
Y2048D01*
X6278Y1723D02*
X6443D01*
X6278Y2048D02*
X6443D01*
Y1723D02*
Y2048D01*
X6278Y1723D02*
Y2048D01*
X5108Y1727D02*
X5272D01*
X5108Y2052D02*
X5272D01*
Y1727D02*
Y2052D01*
X5108Y1727D02*
Y2052D01*
X3953Y1723D02*
X4118D01*
X3953Y2048D02*
X4118D01*
Y1723D02*
Y2048D01*
X3953Y1723D02*
Y2048D01*
X2778Y1723D02*
X2943D01*
X2778Y2048D02*
X2943D01*
Y1723D02*
Y2048D01*
X2778Y1723D02*
Y2048D01*
X1603Y1723D02*
X1768D01*
X1603Y2048D02*
X1768D01*
Y1723D02*
Y2048D01*
X1603Y1723D02*
Y2048D01*
X768Y1727D02*
X932D01*
X768Y2052D02*
X932D01*
Y1727D02*
Y2052D01*
X768Y1727D02*
Y2052D01*
X12628Y5698D02*
X12793D01*
X12628Y5373D02*
X12793D01*
X12628D02*
Y5698D01*
X12793Y5373D02*
Y5698D01*
X11757Y5692D02*
X11922D01*
X11757Y5367D02*
X11922D01*
X11757D02*
Y5692D01*
X11922Y5367D02*
Y5692D01*
X10278Y5698D02*
X10443D01*
X10278Y5373D02*
X10443D01*
X10278D02*
Y5698D01*
X10443Y5373D02*
Y5698D01*
X7928D02*
X8093D01*
X7928Y5373D02*
X8093D01*
X7928D02*
Y5698D01*
X8093Y5373D02*
Y5698D01*
X6778D02*
X6943D01*
X6778Y5373D02*
X6943D01*
X6778D02*
Y5698D01*
X6943Y5373D02*
Y5698D01*
X5603Y5723D02*
X5768D01*
X5603Y5398D02*
X5768D01*
X5603D02*
Y5723D01*
X5768Y5398D02*
Y5723D01*
X4428Y5698D02*
X4593D01*
X4428Y5373D02*
X4593D01*
X4428D02*
Y5698D01*
X4593Y5373D02*
Y5698D01*
X3278D02*
X3443D01*
X3278Y5373D02*
X3443D01*
X3278D02*
Y5698D01*
X3443Y5373D02*
Y5698D01*
X2103D02*
X2268D01*
X2103Y5373D02*
X2268D01*
X2103D02*
Y5698D01*
X2268Y5373D02*
Y5698D01*
X888Y5712D02*
X1052D01*
X888Y5388D02*
X1052D01*
X888D02*
Y5712D01*
X1052Y5388D02*
Y5712D01*
X2060Y3280D02*
Y3620D01*
X2240Y3280D02*
Y3620D01*
X2060D02*
X2240D01*
X2060Y3280D02*
X2240D01*
M02*
