G04*
G04 #@! TF.GenerationSoftware,Altium Limited,Altium Designer,22.5.1 (42)*
G04*
G04 Layer_Color=2752767*
%FSLAX42Y42*%
%MOMM*%
G71*
G04*
G04 #@! TF.SameCoordinates,49A84A85-C09A-4E6C-912C-EF7BF64B6CC2*
G04*
G04*
G04 #@! TF.FilePolarity,Positive*
G04*
G01*
G75*
%ADD55C,0.05*%
%ADD56C,0.07*%
D55*
X5289Y2891D02*
X5269Y2931D01*
X5309D01*
X5289Y2891D01*
X5543D02*
X5523Y2931D01*
X5563D01*
X5543Y2891D01*
X5797D02*
X5777Y2931D01*
X5817D01*
X5797Y2891D01*
X6051D02*
X6031Y2931D01*
X6071D01*
X6051Y2891D01*
X6305D02*
X6285Y2931D01*
X6325D01*
X6305Y2891D01*
X6559D02*
X6539Y2931D01*
X6579D01*
X6559Y2891D01*
X6813D02*
X6793Y2931D01*
X6833D01*
X6813Y2891D01*
X7067D02*
X7047Y2931D01*
X7087D01*
X7067Y2891D01*
X7321D02*
X7301Y2931D01*
X7341D01*
X7321Y2891D01*
X7575D02*
X7555Y2931D01*
X7595D01*
X7575Y2891D01*
X7829D02*
X7809Y2931D01*
X7849D01*
X7829Y2891D01*
X8083D02*
X8063Y2931D01*
X8103D01*
X8083Y2891D01*
X8337D02*
X8317Y2931D01*
X8357D01*
X8337Y2891D01*
X8591D02*
X8571Y2931D01*
X8611D01*
X8591Y2891D01*
X8845D02*
X8825Y2931D01*
X8865D01*
X8845Y2891D01*
X9099D02*
X9079Y2931D01*
X9119D01*
X9099Y2891D01*
X9353D02*
X9333Y2931D01*
X9373D01*
X9353Y2891D01*
X9607D02*
X9587Y2931D01*
X9627D01*
X9607Y2891D01*
X9861D02*
X9841Y2931D01*
X9881D01*
X9861Y2891D01*
X10115D02*
X10095Y2931D01*
X10135D01*
X10115Y2891D01*
X5289Y4669D02*
X5269Y4709D01*
X5309D01*
X5289Y4669D01*
X5543D02*
X5523Y4709D01*
X5563D01*
X5543Y4669D01*
X5797D02*
X5777Y4709D01*
X5817D01*
X5797Y4669D01*
X6051D02*
X6031Y4709D01*
X6071D01*
X6051Y4669D01*
X6305D02*
X6285Y4709D01*
X6325D01*
X6305Y4669D01*
X6559D02*
X6539Y4709D01*
X6579D01*
X6559Y4669D01*
X6813D02*
X6793Y4709D01*
X6833D01*
X6813Y4669D01*
X7067D02*
X7047Y4709D01*
X7087D01*
X7067Y4669D01*
X7321D02*
X7301Y4709D01*
X7341D01*
X7321Y4669D01*
X7575D02*
X7555Y4709D01*
X7595D01*
X7575Y4669D01*
X7829D02*
X7809Y4709D01*
X7849D01*
X7829Y4669D01*
X8083D02*
X8063Y4709D01*
X8103D01*
X8083Y4669D01*
X8337D02*
X8317Y4709D01*
X8357D01*
X8337Y4669D01*
X8591D02*
X8571Y4709D01*
X8611D01*
X8591Y4669D01*
X8845D02*
X8825Y4709D01*
X8865D01*
X8845Y4669D01*
X9099D02*
X9079Y4709D01*
X9119D01*
X9099Y4669D01*
X9353D02*
X9333Y4709D01*
X9373D01*
X9353Y4669D01*
X9607D02*
X9587Y4709D01*
X9627D01*
X9607Y4669D01*
X9861D02*
X9841Y4709D01*
X9881D01*
X9861Y4669D01*
X10115D02*
X10095Y4709D01*
X10135D01*
X10115Y4669D01*
X11030Y4990D02*
X11040D01*
X11050Y5000D01*
X11060Y4990D01*
X11070D01*
Y5000D01*
X11060Y5010D01*
X11070Y5020D01*
Y5030D01*
X11060D01*
X11050Y5020D01*
X11040Y5030D01*
X11030D01*
Y5020D01*
X11040Y5010D01*
X11030Y5000D01*
Y4990D01*
X11290Y4750D02*
Y4740D01*
X11310D01*
Y4750D01*
X11320D01*
Y4770D01*
X11310D01*
Y4780D01*
X11290D01*
Y4770D01*
X11280D01*
Y4750D01*
X11290D01*
X11040Y5250D02*
Y5240D01*
X11060D01*
Y5250D01*
X11070D01*
Y5270D01*
X11060D01*
Y5280D01*
X11040D01*
Y5270D01*
X11030D01*
Y5250D01*
X11040D01*
X10790Y4750D02*
Y4740D01*
X10810D01*
Y4750D01*
X10820D01*
Y4770D01*
X10810D01*
Y4780D01*
X10790D01*
Y4770D01*
X10780D01*
Y4750D01*
X10790D01*
X12630Y2974D02*
Y3014D01*
X12670D01*
Y2974D01*
X12630D01*
Y2466D02*
Y2506D01*
X12670D01*
Y2466D01*
X12630D01*
X11010Y4230D02*
X11020Y4240D01*
X11030D01*
X11020Y4250D01*
X11030Y4260D01*
X11020D01*
X11010Y4270D01*
X11000Y4260D01*
X10990D01*
X11000Y4250D01*
X10990Y4240D01*
X11000D01*
X11010Y4230D01*
X10756D02*
X10766Y4240D01*
X10776D01*
X10766Y4250D01*
X10776Y4260D01*
X10766D01*
X10756Y4270D01*
X10746Y4260D01*
X10736D01*
X10746Y4250D01*
X10736Y4240D01*
X10746D01*
X10756Y4230D01*
X11264D02*
X11274Y4240D01*
X11284D01*
X11274Y4250D01*
X11284Y4260D01*
X11274D01*
X11264Y4270D01*
X11254Y4260D01*
X11244D01*
X11254Y4250D01*
X11244Y4240D01*
X11254D01*
X11264Y4230D01*
X11024Y3630D02*
X11034Y3640D01*
X11044D01*
X11034Y3650D01*
X11044Y3660D01*
X11034D01*
X11024Y3670D01*
X11014Y3660D01*
X11004D01*
X11014Y3650D01*
X11004Y3640D01*
X11014D01*
X11024Y3630D01*
X10770D02*
X10780Y3640D01*
X10790D01*
X10780Y3650D01*
X10790Y3660D01*
X10780D01*
X10770Y3670D01*
X10760Y3660D01*
X10750D01*
X10760Y3650D01*
X10750Y3640D01*
X10760D01*
X10770Y3630D01*
X11278D02*
X11288Y3640D01*
X11298D01*
X11288Y3650D01*
X11298Y3660D01*
X11288D01*
X11278Y3670D01*
X11268Y3660D01*
X11258D01*
X11268Y3650D01*
X11258Y3640D01*
X11268D01*
X11278Y3630D01*
X1612Y7066D02*
Y7106D01*
X1652D01*
Y7066D01*
X1612D01*
X2120D02*
Y7106D01*
X2160D01*
Y7066D01*
X2120D01*
X2787D02*
Y7106D01*
X2827D01*
Y7066D01*
X2787D01*
X3295D02*
Y7106D01*
X3335D01*
Y7066D01*
X3295D01*
X3962D02*
Y7106D01*
X4002D01*
Y7066D01*
X3962D01*
X4470D02*
Y7106D01*
X4510D01*
Y7066D01*
X4470D01*
X5087D02*
Y7106D01*
X5127D01*
Y7066D01*
X5087D01*
X5595D02*
Y7106D01*
X5635D01*
Y7066D01*
X5595D01*
X6262D02*
Y7106D01*
X6302D01*
Y7066D01*
X6262D01*
X6770D02*
Y7106D01*
X6810D01*
Y7066D01*
X6770D01*
X7437D02*
Y7106D01*
X7477D01*
Y7066D01*
X7437D01*
X7945D02*
Y7106D01*
X7985D01*
Y7066D01*
X7945D01*
X8637D02*
Y7106D01*
X8677D01*
Y7066D01*
X8637D01*
X9145D02*
Y7106D01*
X9185D01*
Y7066D01*
X9145D01*
X9812D02*
Y7106D01*
X9852D01*
Y7066D01*
X9812D01*
X10320D02*
Y7106D01*
X10360D01*
Y7066D01*
X10320D01*
X10987D02*
Y7106D01*
X11027D01*
Y7066D01*
X10987D01*
X11495D02*
Y7106D01*
X11535D01*
Y7066D01*
X11495D01*
X12162D02*
Y7106D01*
X12202D01*
Y7066D01*
X12162D01*
X12670D02*
Y7106D01*
X12710D01*
Y7066D01*
X12670D01*
X412D02*
Y7106D01*
X452D01*
Y7066D01*
X412D01*
X920D02*
Y7106D01*
X960D01*
Y7066D01*
X920D01*
X455Y3984D02*
Y4024D01*
X495D01*
Y3984D01*
X455D01*
Y3476D02*
Y3516D01*
X495D01*
Y3476D01*
X455D01*
X12695Y441D02*
Y481D01*
X12735D01*
Y441D01*
X12695D01*
X12187D02*
Y481D01*
X12227D01*
Y441D01*
X12187D01*
X11545D02*
Y481D01*
X11585D01*
Y441D01*
X11545D01*
X11037D02*
Y481D01*
X11077D01*
Y441D01*
X11037D01*
X10395D02*
Y481D01*
X10435D01*
Y441D01*
X10395D01*
X9887D02*
Y481D01*
X9927D01*
Y441D01*
X9887D01*
X9195D02*
Y481D01*
X9235D01*
Y441D01*
X9195D01*
X8687D02*
Y481D01*
X8727D01*
Y441D01*
X8687D01*
X8045D02*
Y481D01*
X8085D01*
Y441D01*
X8045D01*
X7537D02*
Y481D01*
X7577D01*
Y441D01*
X7537D01*
X6845D02*
Y481D01*
X6885D01*
Y441D01*
X6845D01*
X6337D02*
Y481D01*
X6377D01*
Y441D01*
X6337D01*
X1013Y466D02*
Y506D01*
X1054D01*
Y466D01*
X1013D01*
X505D02*
Y506D01*
X546D01*
Y466D01*
X505D01*
X5187Y441D02*
Y481D01*
X5227D01*
Y441D01*
X5187D01*
X5695D02*
Y481D01*
X5735D01*
Y441D01*
X5695D01*
X4037D02*
Y481D01*
X4077D01*
Y441D01*
X4037D01*
X4545D02*
Y481D01*
X4585D01*
Y441D01*
X4545D01*
X2841D02*
Y481D01*
X2882D01*
Y441D01*
X2841D01*
X3349D02*
Y481D01*
X3390D01*
Y441D01*
X3349D01*
X1687D02*
Y481D01*
X1727D01*
Y441D01*
X1687D01*
X2195D02*
Y481D01*
X2235D01*
Y441D01*
X2195D01*
X12230Y4770D02*
X12240Y4790D01*
X12230Y4810D01*
X12250Y4800D01*
X12270Y4810D01*
X12260Y4790D01*
X12270Y4770D01*
X12250Y4780D01*
X12230Y4770D01*
X970Y2590D02*
X980Y2610D01*
X970Y2630D01*
X990Y2620D01*
X1010Y2630D01*
X1000Y2610D01*
X1010Y2590D01*
X990Y2600D01*
X970Y2590D01*
D56*
X11980Y2476D02*
G03*
X11980Y2476I-20J0D01*
G01*
Y2730D02*
G03*
X11980Y2730I-20J0D01*
G01*
Y2984D02*
G03*
X11980Y2984I-20J0D01*
G01*
X1595Y3346D02*
G03*
X1595Y3346I-20J0D01*
G01*
Y3600D02*
G03*
X1595Y3600I-20J0D01*
G01*
Y3854D02*
G03*
X1595Y3854I-20J0D01*
G01*
X12735Y1286D02*
G03*
X12735Y1286I-20J0D01*
G01*
X12481D02*
G03*
X12481Y1286I-20J0D01*
G01*
X12227D02*
G03*
X12227Y1286I-20J0D01*
G01*
X11567D02*
G03*
X11567Y1286I-20J0D01*
G01*
X11313D02*
G03*
X11313Y1286I-20J0D01*
G01*
X11059D02*
G03*
X11059Y1286I-20J0D01*
G01*
X10399D02*
G03*
X10399Y1286I-20J0D01*
G01*
X10145D02*
G03*
X10145Y1286I-20J0D01*
G01*
X9891D02*
G03*
X9891Y1286I-20J0D01*
G01*
X9231D02*
G03*
X9231Y1286I-20J0D01*
G01*
X8977D02*
G03*
X8977Y1286I-20J0D01*
G01*
X8723D02*
G03*
X8723Y1286I-20J0D01*
G01*
X8063D02*
G03*
X8063Y1286I-20J0D01*
G01*
X7809D02*
G03*
X7809Y1286I-20J0D01*
G01*
X7555D02*
G03*
X7555Y1286I-20J0D01*
G01*
X6894D02*
G03*
X6894Y1286I-20J0D01*
G01*
X6640D02*
G03*
X6640Y1286I-20J0D01*
G01*
X6386D02*
G03*
X6386Y1286I-20J0D01*
G01*
X4558D02*
G03*
X4558Y1286I-20J0D01*
G01*
X4304D02*
G03*
X4304Y1286I-20J0D01*
G01*
X4050D02*
G03*
X4050Y1286I-20J0D01*
G01*
X3390D02*
G03*
X3390Y1286I-20J0D01*
G01*
X3136D02*
G03*
X3136Y1286I-20J0D01*
G01*
X2882D02*
G03*
X2882Y1286I-20J0D01*
G01*
X2222D02*
G03*
X2222Y1286I-20J0D01*
G01*
X1968D02*
G03*
X1968Y1286I-20J0D01*
G01*
X1714D02*
G03*
X1714Y1286I-20J0D01*
G01*
X1054D02*
G03*
X1054Y1286I-20J0D01*
G01*
X800D02*
G03*
X800Y1286I-20J0D01*
G01*
X546D02*
G03*
X546Y1286I-20J0D01*
G01*
X5726D02*
G03*
X5726Y1286I-20J0D01*
G01*
X5472D02*
G03*
X5472Y1286I-20J0D01*
G01*
X5218D02*
G03*
X5218Y1286I-20J0D01*
G01*
X477Y6186D02*
G03*
X477Y6186I-20J0D01*
G01*
X731D02*
G03*
X731Y6186I-20J0D01*
G01*
X985D02*
G03*
X985Y6186I-20J0D01*
G01*
X1695Y6186D02*
G03*
X1695Y6186I-20J0D01*
G01*
X1949D02*
G03*
X1949Y6186I-20J0D01*
G01*
X2203D02*
G03*
X2203Y6186I-20J0D01*
G01*
X2863D02*
G03*
X2863Y6186I-20J0D01*
G01*
X3117D02*
G03*
X3117Y6186I-20J0D01*
G01*
X3371D02*
G03*
X3371Y6186I-20J0D01*
G01*
X4032D02*
G03*
X4032Y6186I-20J0D01*
G01*
X4286D02*
G03*
X4286Y6186I-20J0D01*
G01*
X4540D02*
G03*
X4540Y6186I-20J0D01*
G01*
X5200D02*
G03*
X5200Y6186I-20J0D01*
G01*
X5454D02*
G03*
X5454Y6186I-20J0D01*
G01*
X5708D02*
G03*
X5708Y6186I-20J0D01*
G01*
X6368D02*
G03*
X6368Y6186I-20J0D01*
G01*
X6622D02*
G03*
X6622Y6186I-20J0D01*
G01*
X6876D02*
G03*
X6876Y6186I-20J0D01*
G01*
X7536D02*
G03*
X7536Y6186I-20J0D01*
G01*
X7790D02*
G03*
X7790Y6186I-20J0D01*
G01*
X8044D02*
G03*
X8044Y6186I-20J0D01*
G01*
X8704D02*
G03*
X8704Y6186I-20J0D01*
G01*
X8958D02*
G03*
X8958Y6186I-20J0D01*
G01*
X9212D02*
G03*
X9212Y6186I-20J0D01*
G01*
X9872D02*
G03*
X9872Y6186I-20J0D01*
G01*
X10126D02*
G03*
X10126Y6186I-20J0D01*
G01*
X10380D02*
G03*
X10380Y6186I-20J0D01*
G01*
X11040D02*
G03*
X11040Y6186I-20J0D01*
G01*
X11294D02*
G03*
X11294Y6186I-20J0D01*
G01*
X11548D02*
G03*
X11548Y6186I-20J0D01*
G01*
X12209D02*
G03*
X12209Y6186I-20J0D01*
G01*
X12463D02*
G03*
X12463Y6186I-20J0D01*
G01*
X12717D02*
G03*
X12717Y6186I-20J0D01*
G01*
M02*
