G04*
G04 #@! TF.GenerationSoftware,Altium Limited,Altium Designer,22.5.1 (42)*
G04*
G04 Layer_Color=65535*
%FSLAX42Y42*%
%MOMM*%
G71*
G04*
G04 #@! TF.SameCoordinates,49A84A85-C09A-4E6C-912C-EF7BF64B6CC2*
G04*
G04*
G04 #@! TF.FilePolarity,Positive*
G04*
G01*
G75*
%ADD10C,0.13*%
%ADD11C,0.20*%
%ADD12C,0.15*%
%ADD13C,0.15*%
%ADD14C,0.40*%
%ADD15C,0.25*%
%ADD16C,0.50*%
G36*
X3195Y5119D02*
X3214D01*
Y5118D01*
X3222D01*
Y5116D01*
X3231D01*
Y5115D01*
X3238D01*
Y5114D01*
X3243D01*
Y5113D01*
X3249D01*
Y5112D01*
X3254D01*
Y5111D01*
X3258D01*
Y5110D01*
X3263D01*
Y5109D01*
X3265D01*
Y5107D01*
X3270D01*
Y5106D01*
X3272D01*
Y5105D01*
X3274D01*
Y5104D01*
X3277D01*
Y5103D01*
X3281D01*
Y5102D01*
X3284D01*
Y5101D01*
X3287D01*
Y5099D01*
X3289D01*
Y5098D01*
X3292D01*
Y5097D01*
X3295D01*
Y5096D01*
X3297D01*
Y5095D01*
X3299D01*
Y5094D01*
X3300D01*
Y5093D01*
X3304D01*
Y5091D01*
X3306D01*
Y5090D01*
X3308D01*
Y5089D01*
X3310D01*
Y5088D01*
X3313D01*
Y5087D01*
X3314D01*
Y5086D01*
X3316D01*
Y5085D01*
X3318D01*
Y5084D01*
X3320D01*
Y5082D01*
X3322D01*
Y5081D01*
X3324D01*
Y5080D01*
X3325D01*
Y5079D01*
X3327D01*
Y5078D01*
X3329D01*
Y5077D01*
X3331D01*
Y5076D01*
X3333D01*
Y5074D01*
X3334D01*
Y5073D01*
X3337D01*
Y5072D01*
X3338D01*
Y5071D01*
X3339D01*
Y5070D01*
X3340D01*
Y5069D01*
X3342D01*
Y5068D01*
X3343D01*
Y5066D01*
X3344D01*
Y5065D01*
X3346D01*
Y5064D01*
X3348D01*
Y5063D01*
X3349D01*
Y5062D01*
X3350D01*
Y5061D01*
X3352D01*
Y5060D01*
X3354D01*
Y5059D01*
X3355D01*
Y5057D01*
X3356D01*
Y5056D01*
X3357D01*
Y5055D01*
X3358D01*
Y5054D01*
X3359D01*
Y5053D01*
X3362D01*
Y5052D01*
X3363D01*
Y5051D01*
X3364D01*
Y5049D01*
X3365D01*
Y5048D01*
X3366D01*
Y5047D01*
X3367D01*
Y5046D01*
X3368D01*
Y5045D01*
X3369D01*
Y5044D01*
X3371D01*
Y5043D01*
X3372D01*
Y5041D01*
X3373D01*
Y5040D01*
X3374D01*
Y5039D01*
X3375D01*
Y5038D01*
X3376D01*
Y5036D01*
X3377D01*
Y5035D01*
X3379D01*
Y5034D01*
X3380D01*
Y5032D01*
X3381D01*
Y5031D01*
X3382D01*
Y5030D01*
X3383D01*
Y5028D01*
X3384D01*
Y5027D01*
X3385D01*
Y5026D01*
X3387D01*
Y5024D01*
X3388D01*
Y5022D01*
X3389D01*
Y5021D01*
X3390D01*
Y5020D01*
X3391D01*
Y5018D01*
X3393D01*
Y5015D01*
X3394D01*
Y5014D01*
X3396D01*
Y5012D01*
X3397D01*
Y5011D01*
X3398D01*
Y5009D01*
X3399D01*
Y5007D01*
X3400D01*
Y5006D01*
X3401D01*
Y5004D01*
X3402D01*
Y5002D01*
X3404D01*
Y5001D01*
X3405D01*
Y4998D01*
X3406D01*
Y4997D01*
X3407D01*
Y4995D01*
X3408D01*
Y4994D01*
X3409D01*
Y4991D01*
X3410D01*
Y4989D01*
X3412D01*
Y4987D01*
X3413D01*
Y4985D01*
X3414D01*
Y4982D01*
X3415D01*
Y4980D01*
X3416D01*
Y4979D01*
X3417D01*
Y4977D01*
X3418D01*
Y4974D01*
X3419D01*
Y4972D01*
X3421D01*
Y4970D01*
X3422D01*
Y4968D01*
X3423D01*
Y4964D01*
X3424D01*
Y4962D01*
X3425D01*
Y4960D01*
X3426D01*
Y4956D01*
X3427D01*
Y4954D01*
X3429D01*
Y4952D01*
X3430D01*
Y4948D01*
X3431D01*
Y4946D01*
X3432D01*
Y4943D01*
X3433D01*
Y4938D01*
X3434D01*
Y4935D01*
X3435D01*
Y4932D01*
X3437D01*
Y4929D01*
X3438D01*
Y4924D01*
X3439D01*
Y4921D01*
X3440D01*
Y4915D01*
X3441D01*
Y4911D01*
X3442D01*
Y4907D01*
X3443D01*
Y4902D01*
X3444D01*
Y4894D01*
X3446D01*
Y4886D01*
X3447D01*
Y4874D01*
X3448D01*
Y4857D01*
X3449D01*
Y4660D01*
X3448D01*
Y4659D01*
X2930D01*
Y4660D01*
X2929D01*
Y4662D01*
X2930D01*
Y4868D01*
X2931D01*
Y4882D01*
X2932D01*
Y4892D01*
X2933D01*
Y4898D01*
X2934D01*
Y4905D01*
X2936D01*
Y4910D01*
X2937D01*
Y4914D01*
X2938D01*
Y4919D01*
X2939D01*
Y4922D01*
X2940D01*
Y4928D01*
X2941D01*
Y4931D01*
X2942D01*
Y4935D01*
X2943D01*
Y4938D01*
X2945D01*
Y4942D01*
X2946D01*
Y4945D01*
X2947D01*
Y4948D01*
X2948D01*
Y4949D01*
X2949D01*
Y4953D01*
X2950D01*
Y4956D01*
X2951D01*
Y4957D01*
X2953D01*
Y4962D01*
X2954D01*
Y4964D01*
X2955D01*
Y4967D01*
X2956D01*
Y4969D01*
X2957D01*
Y4971D01*
X2958D01*
Y4973D01*
X2959D01*
Y4977D01*
X2961D01*
Y4978D01*
X2962D01*
Y4980D01*
X2963D01*
Y4982D01*
X2964D01*
Y4985D01*
X2965D01*
Y4987D01*
X2966D01*
Y4988D01*
X2967D01*
Y4990D01*
X2968D01*
Y4993D01*
X2970D01*
Y4994D01*
X2971D01*
Y4996D01*
X2972D01*
Y4998D01*
X2973D01*
Y4999D01*
X2974D01*
Y5002D01*
X2975D01*
Y5004D01*
X2976D01*
Y5005D01*
X2978D01*
Y5007D01*
X2979D01*
Y5009D01*
X2980D01*
Y5011D01*
X2981D01*
Y5012D01*
X2982D01*
Y5013D01*
X2983D01*
Y5015D01*
X2984D01*
Y5016D01*
X2986D01*
Y5018D01*
X2987D01*
Y5020D01*
X2988D01*
Y5021D01*
X2989D01*
Y5022D01*
X2990D01*
Y5023D01*
X2991D01*
Y5024D01*
X2992D01*
Y5027D01*
X2993D01*
Y5028D01*
X2995D01*
Y5029D01*
X2996D01*
Y5030D01*
X2997D01*
Y5032D01*
X2998D01*
Y5034D01*
X2999D01*
Y5035D01*
X3000D01*
Y5036D01*
X3001D01*
Y5037D01*
X3003D01*
Y5039D01*
X3004D01*
Y5040D01*
X3005D01*
Y5041D01*
X3006D01*
Y5043D01*
X3007D01*
Y5044D01*
X3009D01*
Y5046D01*
X3011D01*
Y5047D01*
X3012D01*
Y5048D01*
X3013D01*
Y5049D01*
X3014D01*
Y5051D01*
X3015D01*
Y5052D01*
X3016D01*
Y5053D01*
X3018D01*
Y5054D01*
X3020D01*
Y5055D01*
X3021D01*
Y5056D01*
X3022D01*
Y5057D01*
X3023D01*
Y5059D01*
X3025D01*
Y5060D01*
X3026D01*
Y5061D01*
X3028D01*
Y5062D01*
X3029D01*
Y5063D01*
X3030D01*
Y5064D01*
X3032D01*
Y5065D01*
X3033D01*
Y5066D01*
X3034D01*
Y5068D01*
X3036D01*
Y5069D01*
X3038D01*
Y5070D01*
X3039D01*
Y5071D01*
X3040D01*
Y5072D01*
X3042D01*
Y5073D01*
X3043D01*
Y5074D01*
X3046D01*
Y5076D01*
X3048D01*
Y5077D01*
X3049D01*
Y5078D01*
X3050D01*
Y5079D01*
X3053D01*
Y5080D01*
X3055D01*
Y5081D01*
X3056D01*
Y5082D01*
X3058D01*
Y5084D01*
X3059D01*
Y5085D01*
X3062D01*
Y5086D01*
X3064D01*
Y5087D01*
X3065D01*
Y5088D01*
X3067D01*
Y5089D01*
X3070D01*
Y5090D01*
X3072D01*
Y5091D01*
X3074D01*
Y5093D01*
X3078D01*
Y5094D01*
X3079D01*
Y5095D01*
X3081D01*
Y5096D01*
X3083D01*
Y5097D01*
X3087D01*
Y5098D01*
X3089D01*
Y5099D01*
X3091D01*
Y5101D01*
X3093D01*
Y5102D01*
X3097D01*
Y5103D01*
X3100D01*
Y5104D01*
X3104D01*
Y5105D01*
X3106D01*
Y5106D01*
X3108D01*
Y5107D01*
X3112D01*
Y5109D01*
X3116D01*
Y5110D01*
X3121D01*
Y5111D01*
X3124D01*
Y5112D01*
X3129D01*
Y5113D01*
X3137D01*
Y5114D01*
X3140D01*
Y5115D01*
X3147D01*
Y5116D01*
X3156D01*
Y5118D01*
X3166D01*
Y5119D01*
X3183D01*
Y5120D01*
X3184D01*
Y5119D01*
X3193D01*
Y5120D01*
X3195D01*
Y5119D01*
D02*
G37*
G36*
X3448Y4639D02*
X3449D01*
Y4312D01*
X3448D01*
Y4311D01*
X2931D01*
Y4312D01*
X2930D01*
Y4314D01*
X2931D01*
Y4316D01*
X2930D01*
Y4638D01*
X2931D01*
Y4640D01*
X3039D01*
Y4639D01*
X3040D01*
Y4437D01*
X3130D01*
Y4438D01*
X3131D01*
Y4521D01*
X3132D01*
Y4522D01*
X3131D01*
Y4525D01*
X3132D01*
Y4568D01*
X3178D01*
Y4567D01*
X3179D01*
Y4568D01*
X3182D01*
Y4567D01*
X3232D01*
Y4565D01*
X3239D01*
Y4438D01*
X3240D01*
Y4437D01*
X3339D01*
Y4438D01*
X3340D01*
Y4640D01*
X3448D01*
Y4639D01*
D02*
G37*
G36*
X10700Y4127D02*
X10610D01*
Y4217D01*
X10700Y4127D01*
D02*
G37*
G36*
X3363Y4291D02*
X3404D01*
Y4289D01*
X3405D01*
Y4291D01*
X3407D01*
Y4289D01*
X3409D01*
Y4291D01*
X3410D01*
Y4289D01*
X3451D01*
Y4288D01*
X3452D01*
Y4286D01*
X3451D01*
Y4207D01*
X3450D01*
Y4204D01*
X3451D01*
Y4201D01*
X3450D01*
Y4199D01*
X3451D01*
Y4196D01*
X3450D01*
Y4195D01*
X3451D01*
Y4193D01*
X3450D01*
Y4192D01*
X3451D01*
Y4189D01*
X3450D01*
Y4188D01*
X3451D01*
Y4186D01*
X3450D01*
Y4185D01*
X3451D01*
Y4182D01*
X3450D01*
Y4010D01*
X3449D01*
Y4008D01*
X3450D01*
Y4007D01*
X3449D01*
Y3993D01*
X3450D01*
Y3992D01*
X3449D01*
Y3987D01*
X3450D01*
Y3986D01*
X3449D01*
Y3960D01*
X2931D01*
Y4038D01*
X2930D01*
Y4041D01*
X2931D01*
Y4044D01*
X2930D01*
Y4046D01*
X2931D01*
Y4047D01*
X2930D01*
Y4050D01*
X2931D01*
Y4052D01*
X2930D01*
Y4053D01*
X2931D01*
Y4055D01*
X2930D01*
Y4057D01*
X2931D01*
Y4059D01*
X2930D01*
Y4061D01*
X2931D01*
Y4062D01*
X2930D01*
Y4065D01*
X2931D01*
Y4066D01*
X2930D01*
Y4068D01*
X2931D01*
Y4070D01*
X2930D01*
Y4071D01*
X2931D01*
Y4074D01*
X2930D01*
Y4075D01*
X2931D01*
Y4077D01*
X2930D01*
Y4079D01*
X2931D01*
Y4080D01*
X2930D01*
Y4083D01*
X2931D01*
Y4084D01*
X2930D01*
Y4086D01*
X3331D01*
Y4087D01*
X3332D01*
Y4088D01*
X3331D01*
Y4208D01*
Y4209D01*
Y4291D01*
X3332D01*
Y4292D01*
X3363D01*
Y4291D01*
D02*
G37*
G36*
X3217Y3886D02*
X3222D01*
Y3885D01*
X3227D01*
Y3886D01*
X3230D01*
Y3885D01*
X3232D01*
Y3884D01*
X3240D01*
Y3883D01*
X3245D01*
Y3882D01*
X3248D01*
Y3883D01*
X3249D01*
Y3882D01*
X3252D01*
Y3880D01*
X3258D01*
Y3879D01*
X3259D01*
Y3878D01*
X3267D01*
Y3877D01*
X3270D01*
Y3876D01*
X3275D01*
Y3875D01*
X3279D01*
Y3874D01*
X3281D01*
Y3873D01*
X3284D01*
Y3871D01*
X3288D01*
Y3870D01*
X3291D01*
Y3869D01*
X3293D01*
Y3868D01*
X3298D01*
Y3867D01*
X3299D01*
Y3866D01*
X3302D01*
Y3865D01*
X3304D01*
Y3863D01*
X3306D01*
Y3862D01*
X3309D01*
Y3861D01*
X3312D01*
Y3860D01*
X3314D01*
Y3859D01*
X3316D01*
Y3858D01*
X3317D01*
Y3857D01*
X3321D01*
Y3855D01*
X3322D01*
Y3854D01*
X3325D01*
Y3853D01*
X3326D01*
Y3852D01*
X3327D01*
Y3851D01*
X3331D01*
Y3850D01*
X3332D01*
Y3849D01*
X3334D01*
Y3848D01*
X3335D01*
Y3846D01*
X3337D01*
Y3845D01*
X3340D01*
Y3844D01*
X3341D01*
Y3843D01*
X3342D01*
Y3842D01*
X3344D01*
Y3841D01*
X3347D01*
Y3840D01*
X3348D01*
Y3838D01*
X3349D01*
Y3837D01*
X3351D01*
Y3836D01*
X3354D01*
Y3835D01*
X3355D01*
Y3834D01*
X3356D01*
Y3833D01*
X3357D01*
Y3832D01*
X3359D01*
Y3830D01*
X3360D01*
Y3829D01*
X3362D01*
Y3828D01*
X3363D01*
Y3827D01*
X3365D01*
Y3825D01*
X3367D01*
Y3824D01*
X3368D01*
Y3823D01*
X3369D01*
Y3821D01*
X3371D01*
Y3820D01*
X3373D01*
Y3819D01*
X3374D01*
Y3818D01*
X3375D01*
Y3817D01*
X3376D01*
Y3816D01*
X3377D01*
Y3815D01*
X3379D01*
Y3813D01*
X3380D01*
Y3812D01*
X3381D01*
Y3811D01*
X3382D01*
Y3810D01*
X3383D01*
Y3809D01*
X3384D01*
Y3808D01*
X3385D01*
Y3807D01*
X3387D01*
Y3806D01*
X3388D01*
Y3804D01*
X3389D01*
Y3803D01*
X3390D01*
Y3802D01*
X3391D01*
Y3801D01*
X3392D01*
Y3800D01*
X3393D01*
Y3798D01*
X3394D01*
Y3796D01*
X3396D01*
Y3795D01*
X3397D01*
Y3794D01*
X3398D01*
Y3793D01*
X3399D01*
Y3792D01*
X3400D01*
Y3791D01*
X3401D01*
Y3788D01*
X3402D01*
Y3787D01*
X3404D01*
Y3786D01*
X3405D01*
Y3784D01*
X3406D01*
Y3782D01*
X3408D01*
Y3781D01*
X3409D01*
Y3778D01*
X3410D01*
Y3777D01*
X3412D01*
Y3775D01*
X3413D01*
Y3773D01*
X3414D01*
Y3771D01*
X3415D01*
Y3770D01*
X3416D01*
Y3769D01*
X3417D01*
Y3767D01*
X3418D01*
Y3766D01*
X3419D01*
Y3765D01*
X3421D01*
Y3761D01*
X3423D01*
Y3759D01*
X3424D01*
Y3756D01*
X3425D01*
Y3754D01*
X3426D01*
Y3752D01*
X3427D01*
Y3750D01*
X3429D01*
Y3749D01*
X3430D01*
Y3746D01*
X3431D01*
Y3744D01*
X3432D01*
Y3741D01*
X3433D01*
Y3738D01*
X3435D01*
Y3735D01*
X3437D01*
Y3734D01*
X3438D01*
Y3731D01*
X3439D01*
Y3727D01*
X3440D01*
Y3726D01*
X3441D01*
Y3723D01*
X3442D01*
Y3720D01*
X3443D01*
Y3716D01*
X3444D01*
Y3713D01*
X3446D01*
Y3710D01*
X3447D01*
Y3708D01*
X3448D01*
Y3703D01*
X3449D01*
Y3702D01*
X3450D01*
Y3698D01*
X3451D01*
Y3694D01*
X3452D01*
Y3690D01*
X3454D01*
Y3685D01*
X3455D01*
Y3683D01*
X3456D01*
Y3681D01*
X3455D01*
Y3679D01*
X3456D01*
Y3677D01*
X3457D01*
Y3671D01*
X3458D01*
Y3670D01*
X3459D01*
Y3662D01*
X3460D01*
Y3654D01*
X3462D01*
Y3653D01*
X3460D01*
Y3652D01*
X3462D01*
Y3644D01*
X3463D01*
Y3640D01*
X3462D01*
Y3639D01*
X3463D01*
Y3635D01*
X3462D01*
Y3634D01*
X3463D01*
Y3617D01*
X3464D01*
Y3616D01*
X3463D01*
Y3614D01*
X3464D01*
Y3611D01*
X3463D01*
Y3594D01*
X3462D01*
Y3593D01*
X3463D01*
Y3592D01*
X3462D01*
Y3591D01*
X3463D01*
Y3589D01*
X3462D01*
Y3578D01*
X3460D01*
Y3568D01*
X3459D01*
Y3562D01*
X3458D01*
Y3561D01*
X3457D01*
Y3556D01*
X3456D01*
Y3552D01*
X3455D01*
Y3551D01*
X3456D01*
Y3549D01*
X3455D01*
Y3548D01*
X3454D01*
Y3542D01*
X3452D01*
Y3536D01*
X3451D01*
Y3533D01*
X3450D01*
Y3529D01*
X3449D01*
Y3527D01*
X3448D01*
Y3524D01*
X3447D01*
Y3522D01*
X3446D01*
Y3517D01*
X3444D01*
Y3515D01*
X3443D01*
Y3510D01*
X3442D01*
Y3508D01*
X3441D01*
Y3506D01*
X3440D01*
Y3504D01*
X3439D01*
Y3500D01*
X3438D01*
Y3498D01*
X3437D01*
Y3497D01*
X3435D01*
Y3493D01*
X3434D01*
Y3492D01*
X3433D01*
Y3491D01*
X3432D01*
Y3489D01*
X3431D01*
Y3485D01*
X3430D01*
Y3483D01*
X3429D01*
Y3481D01*
X3427D01*
Y3478D01*
X3426D01*
Y3477D01*
X3425D01*
Y3475D01*
X3424D01*
Y3473D01*
X3423D01*
Y3472D01*
X3422D01*
Y3469D01*
X3421D01*
Y3468D01*
X3419D01*
Y3465D01*
X3418D01*
Y3464D01*
X3417D01*
Y3462D01*
X3416D01*
Y3461D01*
X3415D01*
Y3459D01*
X3414D01*
Y3458D01*
X3413D01*
Y3457D01*
X3412D01*
Y3454D01*
X3410D01*
Y3452D01*
X3409D01*
Y3451D01*
X3408D01*
Y3450D01*
X3407D01*
Y3449D01*
X3406D01*
Y3447D01*
X3405D01*
Y3444D01*
X3404D01*
Y3443D01*
X3401D01*
Y3441D01*
X3400D01*
Y3440D01*
X3399D01*
Y3439D01*
X3398D01*
Y3437D01*
X3397D01*
Y3436D01*
X3396D01*
Y3435D01*
X3394D01*
Y3434D01*
X3393D01*
Y3432D01*
X3392D01*
Y3431D01*
X3391D01*
Y3429D01*
X3390D01*
Y3428D01*
X3389D01*
Y3427D01*
X3388D01*
Y3425D01*
X3387D01*
Y3424D01*
X3384D01*
Y3423D01*
X3383D01*
Y3422D01*
X3382D01*
Y3420D01*
X3381D01*
Y3418D01*
X3379D01*
Y3417D01*
X3377D01*
Y3416D01*
X3376D01*
Y3415D01*
X3375D01*
Y3414D01*
X3374D01*
Y3412D01*
X3373D01*
Y3411D01*
X3372D01*
Y3410D01*
X3369D01*
Y3409D01*
X3368D01*
Y3408D01*
X3367D01*
Y3407D01*
X3366D01*
Y3406D01*
X3365D01*
Y3404D01*
X3364D01*
Y3403D01*
X3363D01*
Y3402D01*
X3359D01*
Y3400D01*
X3357D01*
Y3399D01*
X3356D01*
Y3398D01*
X3355D01*
Y3397D01*
X3354D01*
Y3395D01*
X3351D01*
Y3394D01*
X3350D01*
Y3393D01*
X3348D01*
Y3392D01*
X3347D01*
Y3391D01*
X3344D01*
Y3390D01*
X3343D01*
Y3389D01*
X3342D01*
Y3387D01*
X3341D01*
Y3386D01*
X3339D01*
Y3385D01*
X3337D01*
Y3384D01*
X3334D01*
Y3383D01*
X3333D01*
Y3382D01*
X3330D01*
Y3381D01*
X3329D01*
Y3379D01*
X3327D01*
Y3378D01*
X3324D01*
Y3377D01*
X3323D01*
Y3376D01*
X3322D01*
Y3375D01*
X3317D01*
Y3373D01*
X3314D01*
Y3372D01*
X3313D01*
Y3370D01*
X3309D01*
Y3369D01*
X3307D01*
Y3368D01*
X3306D01*
Y3367D01*
X3304D01*
Y3366D01*
X3300D01*
Y3365D01*
X3296D01*
Y3364D01*
X3293D01*
Y3362D01*
X3291D01*
Y3361D01*
X3288D01*
Y3360D01*
X3287D01*
Y3359D01*
X3283D01*
Y3358D01*
X3277D01*
Y3357D01*
X3276D01*
Y3356D01*
X3271D01*
Y3355D01*
X3266D01*
Y3353D01*
X3264D01*
Y3352D01*
X3258D01*
Y3351D01*
X3256D01*
Y3350D01*
X3250D01*
Y3349D01*
X3243D01*
Y3348D01*
X3238D01*
Y3347D01*
X3229D01*
Y3345D01*
X3222D01*
Y3344D01*
X3182D01*
Y3343D01*
X3181D01*
Y3344D01*
X3167D01*
Y3345D01*
X3159D01*
Y3347D01*
X3151D01*
Y3348D01*
X3146D01*
Y3349D01*
X3139D01*
Y3350D01*
X3133D01*
Y3351D01*
X3130D01*
Y3352D01*
X3125D01*
Y3353D01*
X3122D01*
Y3355D01*
X3118D01*
Y3356D01*
X3112D01*
Y3358D01*
X3106D01*
Y3359D01*
X3105D01*
Y3360D01*
X3104D01*
Y3359D01*
X3103D01*
Y3360D01*
X3101D01*
Y3361D01*
X3098D01*
Y3362D01*
X3095D01*
Y3364D01*
X3092D01*
Y3365D01*
X3089D01*
Y3366D01*
X3085D01*
Y3367D01*
X3083D01*
Y3368D01*
X3081D01*
Y3369D01*
X3079D01*
Y3370D01*
X3076D01*
Y3372D01*
X3074D01*
Y3373D01*
X3072D01*
Y3374D01*
X3070D01*
Y3375D01*
X3067D01*
Y3376D01*
X3065D01*
Y3378D01*
X3062D01*
Y3379D01*
X3060D01*
Y3381D01*
X3059D01*
Y3382D01*
X3056D01*
Y3383D01*
X3054D01*
Y3384D01*
X3053D01*
Y3385D01*
X3049D01*
Y3386D01*
X3048D01*
Y3387D01*
X3046D01*
Y3389D01*
X3045D01*
Y3390D01*
X3043D01*
Y3391D01*
X3041D01*
Y3392D01*
X3040D01*
Y3393D01*
X3039D01*
Y3394D01*
X3037D01*
Y3395D01*
X3036D01*
Y3397D01*
X3034D01*
Y3398D01*
X3033D01*
Y3399D01*
X3032D01*
Y3400D01*
X3030D01*
Y3401D01*
X3028D01*
Y3402D01*
X3026D01*
Y3403D01*
X3025D01*
Y3404D01*
X3024D01*
Y3406D01*
X3022D01*
Y3407D01*
X3021D01*
Y3408D01*
X3020D01*
Y3409D01*
X3018D01*
Y3410D01*
X3016D01*
Y3411D01*
X3015D01*
Y3412D01*
X3014D01*
Y3415D01*
X3013D01*
Y3416D01*
X3012D01*
Y3417D01*
X3011D01*
Y3418D01*
X3008D01*
Y3420D01*
X3006D01*
Y3422D01*
X3005D01*
Y3423D01*
X3004D01*
Y3424D01*
X3003D01*
Y3425D01*
X3001D01*
Y3426D01*
X3000D01*
Y3427D01*
X2999D01*
Y3429D01*
X2998D01*
Y3431D01*
X2997D01*
Y3432D01*
X2995D01*
Y3433D01*
X2993D01*
Y3435D01*
X2992D01*
Y3436D01*
X2991D01*
Y3437D01*
X2990D01*
Y3440D01*
X2988D01*
Y3442D01*
X2987D01*
Y3443D01*
X2986D01*
Y3444D01*
X2984D01*
Y3445D01*
X2983D01*
Y3448D01*
X2982D01*
Y3449D01*
X2981D01*
Y3451D01*
X2979D01*
Y3453D01*
X2978D01*
Y3456D01*
X2976D01*
Y3457D01*
X2975D01*
Y3458D01*
X2974D01*
Y3460D01*
X2973D01*
Y3462D01*
X2972D01*
Y3464D01*
X2971D01*
Y3465D01*
X2970D01*
Y3466D01*
X2968D01*
Y3468D01*
X2967D01*
Y3470D01*
X2966D01*
Y3473D01*
X2965D01*
Y3474D01*
X2964D01*
Y3475D01*
X2963D01*
Y3478D01*
X2962D01*
Y3479D01*
X2961D01*
Y3482D01*
X2959D01*
Y3485D01*
X2958D01*
Y3486D01*
X2957D01*
Y3489D01*
X2956D01*
Y3490D01*
X2955D01*
Y3493D01*
X2954D01*
Y3495D01*
X2953D01*
Y3497D01*
X2951D01*
Y3500D01*
X2950D01*
Y3501D01*
X2949D01*
Y3504D01*
X2948D01*
Y3508D01*
X2947D01*
Y3510D01*
X2946D01*
Y3512D01*
X2945D01*
Y3515D01*
X2943D01*
Y3518D01*
X2942D01*
Y3522D01*
X2941D01*
Y3525D01*
X2940D01*
Y3528D01*
X2939D01*
Y3533D01*
X2938D01*
Y3535D01*
X2937D01*
Y3539D01*
X2936D01*
Y3542D01*
X2934D01*
Y3546D01*
X2933D01*
Y3553D01*
X2932D01*
Y3556D01*
X2931D01*
Y3558D01*
X2932D01*
Y3559D01*
X2931D01*
Y3562D01*
X2930D01*
Y3569D01*
X2929D01*
Y3571D01*
X2928D01*
Y3579D01*
X2926D01*
Y3582D01*
X2928D01*
Y3584D01*
X2926D01*
Y3594D01*
X2925D01*
Y3595D01*
X2926D01*
Y3598D01*
X2925D01*
Y3629D01*
X2926D01*
Y3632D01*
X2925D01*
Y3633D01*
X2926D01*
Y3635D01*
X2925D01*
Y3637D01*
X2926D01*
Y3649D01*
X2928D01*
Y3650D01*
X2926D01*
Y3651D01*
X2928D01*
Y3661D01*
X2929D01*
Y3662D01*
X2930D01*
Y3670D01*
X2931D01*
Y3671D01*
X2932D01*
Y3673D01*
X2931D01*
Y3675D01*
X2932D01*
Y3677D01*
X2933D01*
Y3684D01*
X2934D01*
Y3688D01*
X2936D01*
Y3693D01*
X2937D01*
Y3698D01*
X2938D01*
Y3699D01*
X2939D01*
Y3702D01*
X2940D01*
Y3706D01*
X2941D01*
Y3710D01*
X2942D01*
Y3712D01*
X2943D01*
Y3717D01*
X2945D01*
Y3720D01*
X2946D01*
Y3723D01*
X2947D01*
Y3724D01*
X2948D01*
Y3727D01*
X2949D01*
Y3731D01*
X2950D01*
Y3732D01*
X2951D01*
Y3734D01*
X2953D01*
Y3735D01*
X2954D01*
Y3738D01*
X2955D01*
Y3742D01*
X2956D01*
Y3743D01*
X2957D01*
Y3745D01*
X2958D01*
Y3748D01*
X2959D01*
Y3749D01*
X2961D01*
Y3752D01*
X2962D01*
Y3753D01*
X2963D01*
Y3756D01*
X2964D01*
Y3758D01*
X2965D01*
Y3759D01*
X2966D01*
Y3761D01*
X2967D01*
Y3763D01*
X2968D01*
Y3765D01*
X2970D01*
Y3767D01*
X2971D01*
Y3768D01*
X2972D01*
Y3769D01*
X2973D01*
Y3771D01*
X2974D01*
Y3773D01*
X2975D01*
Y3775D01*
X2976D01*
Y3777D01*
X2978D01*
Y3778D01*
X2979D01*
Y3781D01*
X2981D01*
Y3783D01*
X2982D01*
Y3784D01*
X2983D01*
Y3785D01*
X2984D01*
Y3786D01*
X2986D01*
Y3788D01*
X2987D01*
Y3790D01*
X2988D01*
Y3791D01*
X2989D01*
Y3792D01*
X2990D01*
Y3794D01*
X2992D01*
Y3796D01*
X2993D01*
Y3798D01*
X2995D01*
Y3800D01*
X2997D01*
Y3801D01*
X2998D01*
Y3802D01*
X2999D01*
Y3803D01*
X3000D01*
Y3806D01*
X3003D01*
Y3808D01*
X3004D01*
Y3809D01*
X3005D01*
Y3810D01*
X3006D01*
Y3811D01*
X3007D01*
Y3812D01*
X3009D01*
Y3815D01*
X3012D01*
Y3817D01*
X3013D01*
Y3818D01*
X3015D01*
Y3819D01*
X3016D01*
Y3820D01*
X3017D01*
Y3821D01*
X3020D01*
Y3824D01*
X3021D01*
Y3825D01*
X3023D01*
Y3826D01*
X3024D01*
Y3827D01*
X3025D01*
Y3828D01*
X3026D01*
Y3829D01*
X3029D01*
Y3830D01*
X3030D01*
Y3832D01*
X3031D01*
Y3833D01*
X3033D01*
Y3834D01*
X3034D01*
Y3835D01*
X3036D01*
Y3836D01*
X3037D01*
Y3837D01*
X3038D01*
Y3838D01*
X3041D01*
Y3840D01*
X3042D01*
Y3841D01*
X3045D01*
Y3842D01*
X3047D01*
Y3843D01*
X3048D01*
Y3844D01*
X3049D01*
Y3845D01*
X3051D01*
Y3846D01*
X3053D01*
Y3848D01*
X3054D01*
Y3849D01*
X3056D01*
Y3850D01*
X3057D01*
Y3851D01*
X3060D01*
Y3852D01*
X3062D01*
Y3853D01*
X3064D01*
Y3854D01*
X3066D01*
Y3855D01*
X3068D01*
Y3857D01*
X3070D01*
Y3858D01*
X3073D01*
Y3859D01*
X3074D01*
Y3860D01*
X3076D01*
Y3861D01*
X3080D01*
Y3862D01*
X3083D01*
Y3863D01*
X3085D01*
Y3865D01*
X3087D01*
Y3866D01*
X3089D01*
Y3867D01*
X3091D01*
Y3868D01*
X3095D01*
Y3869D01*
X3098D01*
Y3870D01*
X3100D01*
Y3871D01*
X3104D01*
Y3873D01*
X3108D01*
Y3874D01*
X3110D01*
Y3875D01*
X3113D01*
Y3876D01*
X3114D01*
Y3875D01*
X3115D01*
Y3876D01*
X3117D01*
Y3877D01*
X3118D01*
Y3876D01*
X3120D01*
Y3877D01*
X3122D01*
Y3878D01*
X3128D01*
Y3879D01*
X3131D01*
Y3880D01*
X3137D01*
Y3882D01*
X3140D01*
Y3883D01*
X3141D01*
Y3882D01*
X3145D01*
Y3883D01*
X3147D01*
Y3884D01*
X3156D01*
Y3885D01*
X3167D01*
Y3886D01*
X3171D01*
Y3887D01*
X3217D01*
Y3886D01*
D02*
G37*
G36*
X10714Y3527D02*
X10624D01*
Y3617D01*
X10714Y3527D01*
D02*
G37*
G36*
X3448Y3167D02*
Y3166D01*
Y3025D01*
X2931D01*
Y3027D01*
X2932D01*
Y3074D01*
X2931D01*
Y3076D01*
X2932D01*
Y3078D01*
X2931D01*
Y3081D01*
X2932D01*
Y3083D01*
X2931D01*
Y3084D01*
X2932D01*
Y3086D01*
X2931D01*
Y3089D01*
X2932D01*
Y3090D01*
X2931D01*
Y3092D01*
X2932D01*
Y3093D01*
X2931D01*
Y3095D01*
X2932D01*
Y3098D01*
X2931D01*
Y3101D01*
X2932D01*
Y3103D01*
X2931D01*
Y3149D01*
X2932D01*
Y3150D01*
X2943D01*
Y3149D01*
X2946D01*
Y3150D01*
X3332D01*
Y3152D01*
X3333D01*
Y3155D01*
X3332D01*
Y3156D01*
X3333D01*
Y3352D01*
X3332D01*
Y3355D01*
X3337D01*
Y3356D01*
X3338D01*
Y3355D01*
X3340D01*
Y3356D01*
X3359D01*
Y3357D01*
X3360D01*
Y3356D01*
X3377D01*
Y3357D01*
X3401D01*
Y3358D01*
X3402D01*
Y3357D01*
X3414D01*
Y3358D01*
X3430D01*
Y3359D01*
X3434D01*
Y3358D01*
X3437D01*
Y3359D01*
X3443D01*
Y3358D01*
X3446D01*
Y3359D01*
X3448D01*
Y3167D01*
D02*
G37*
G36*
X3408Y3003D02*
X3410D01*
Y3001D01*
X3412D01*
Y3000D01*
X3413D01*
Y2998D01*
X3414D01*
Y2996D01*
X3415D01*
Y2992D01*
X3417D01*
Y2989D01*
X3418D01*
Y2988D01*
X3419D01*
Y2984D01*
X3421D01*
Y2982D01*
X3422D01*
Y2980D01*
X3423D01*
Y2976D01*
X3424D01*
Y2973D01*
X3425D01*
Y2972D01*
X3426D01*
Y2968D01*
X3427D01*
Y2964D01*
X3429D01*
Y2963D01*
X3430D01*
Y2960D01*
X3431D01*
Y2956D01*
X3432D01*
Y2952D01*
X3433D01*
Y2949D01*
X3434D01*
Y2948D01*
X3435D01*
Y2943D01*
X3437D01*
Y2941D01*
X3438D01*
Y2936D01*
X3439D01*
Y2932D01*
X3440D01*
Y2931D01*
X3441D01*
Y2927D01*
X3442D01*
Y2923D01*
X3443D01*
Y2918D01*
X3444D01*
Y2917D01*
X3443D01*
Y2916D01*
X3444D01*
Y2914D01*
X3446D01*
Y2908D01*
X3447D01*
Y2905D01*
X3448D01*
Y2898D01*
X3449D01*
Y2896D01*
X3450D01*
Y2891D01*
X3451D01*
Y2884D01*
X3452D01*
Y2881D01*
X3454D01*
Y2880D01*
X3452D01*
Y2879D01*
X3454D01*
Y2871D01*
X3455D01*
Y2868D01*
X3456D01*
Y2866D01*
X3455D01*
Y2864D01*
X3456D01*
Y2860D01*
X3457D01*
Y2852D01*
X3458D01*
Y2851D01*
X3459D01*
Y2841D01*
X3460D01*
Y2838D01*
X3459D01*
Y2836D01*
X3460D01*
Y2826D01*
X3462D01*
Y2811D01*
X3463D01*
Y2807D01*
X3462D01*
Y2806D01*
X3463D01*
Y2804D01*
X3462D01*
Y2802D01*
X3463D01*
Y2775D01*
X3462D01*
Y2773D01*
X3463D01*
Y2771D01*
X3462D01*
Y2769D01*
X3463D01*
Y2765D01*
X3462D01*
Y2752D01*
X3460D01*
Y2743D01*
X3459D01*
Y2735D01*
X3458D01*
Y2733D01*
X3457D01*
Y2727D01*
X3456D01*
Y2724D01*
X3455D01*
Y2721D01*
X3454D01*
Y2715D01*
X3452D01*
Y2709D01*
X3451D01*
Y2706D01*
X3450D01*
Y2702D01*
X3449D01*
Y2700D01*
X3448D01*
Y2696D01*
X3447D01*
Y2693D01*
X3446D01*
Y2690D01*
X3444D01*
Y2688D01*
X3443D01*
Y2683D01*
X3442D01*
Y2680D01*
X3441D01*
Y2677D01*
X3440D01*
Y2676D01*
X3439D01*
Y2673D01*
X3438D01*
Y2671D01*
X3437D01*
Y2668D01*
X3435D01*
Y2666D01*
X3434D01*
Y2665D01*
X3433D01*
Y2663D01*
X3432D01*
Y2659D01*
X3431D01*
Y2658D01*
X3430D01*
Y2655D01*
X3427D01*
Y2650D01*
X3426D01*
Y2649D01*
X3425D01*
Y2648D01*
X3424D01*
Y2646D01*
X3423D01*
Y2642D01*
X3421D01*
Y2640D01*
X3419D01*
Y2638D01*
X3418D01*
Y2637D01*
X3417D01*
Y2634D01*
X3416D01*
Y2633D01*
X3415D01*
Y2631D01*
X3414D01*
Y2630D01*
X3413D01*
Y2627D01*
X3412D01*
Y2626D01*
X3410D01*
Y2624D01*
X3409D01*
Y2623D01*
X3408D01*
Y2622D01*
X3407D01*
Y2621D01*
X3406D01*
Y2618D01*
X3405D01*
Y2617D01*
X3404D01*
Y2616D01*
X3402D01*
Y2614D01*
X3401D01*
Y2613D01*
X3400D01*
Y2612D01*
X3399D01*
Y2610D01*
X3398D01*
Y2609D01*
X3397D01*
Y2608D01*
X3396D01*
Y2606D01*
X3394D01*
Y2605D01*
X3393D01*
Y2604D01*
X3392D01*
Y2601D01*
X3390D01*
Y2599D01*
X3389D01*
Y2598D01*
X3388D01*
Y2597D01*
X3387D01*
Y2596D01*
X3384D01*
Y2595D01*
X3383D01*
Y2593D01*
X3382D01*
Y2592D01*
X3381D01*
Y2591D01*
X3380D01*
Y2589D01*
X3379D01*
Y2588D01*
X3377D01*
Y2587D01*
X3376D01*
Y2585D01*
X3374D01*
Y2584D01*
X3373D01*
Y2583D01*
X3372D01*
Y2582D01*
X3371D01*
Y2581D01*
X3369D01*
Y2580D01*
X3368D01*
Y2579D01*
X3367D01*
Y2577D01*
X3365D01*
Y2576D01*
X3364D01*
Y2575D01*
X3363D01*
Y2574D01*
X3362D01*
Y2573D01*
X3359D01*
Y2572D01*
X3358D01*
Y2571D01*
X3357D01*
Y2570D01*
X3355D01*
Y2567D01*
X3352D01*
Y2566D01*
X3351D01*
Y2565D01*
X3349D01*
Y2564D01*
X3348D01*
Y2563D01*
X3346D01*
Y2562D01*
X3344D01*
Y2560D01*
X3342D01*
Y2559D01*
X3341D01*
Y2558D01*
X3340D01*
Y2557D01*
X3339D01*
Y2556D01*
X3335D01*
Y2555D01*
X3333D01*
Y2554D01*
X3331D01*
Y2552D01*
X3330D01*
Y2551D01*
X3327D01*
Y2550D01*
X3326D01*
Y2549D01*
X3324D01*
Y2548D01*
X3323D01*
Y2547D01*
X3321D01*
Y2546D01*
X3318D01*
Y2545D01*
X3316D01*
Y2543D01*
X3313D01*
Y2542D01*
X3310D01*
Y2540D01*
X3307D01*
Y2539D01*
X3306D01*
Y2538D01*
X3301D01*
Y2537D01*
X3299D01*
Y2535D01*
X3297D01*
Y2534D01*
X3293D01*
Y2533D01*
X3289D01*
Y2531D01*
X3284D01*
Y2530D01*
X3283D01*
Y2529D01*
X3279D01*
Y2527D01*
X3274D01*
Y2526D01*
X3272D01*
Y2525D01*
X3267D01*
Y2524D01*
X3265D01*
Y2523D01*
X3263D01*
Y2524D01*
X3262D01*
Y2523D01*
X3260D01*
Y2522D01*
X3256D01*
Y2521D01*
X3250D01*
Y2520D01*
X3246D01*
Y2518D01*
X3237D01*
Y2517D01*
X3229D01*
Y2516D01*
X3223D01*
Y2515D01*
X3221D01*
Y2516D01*
X3218D01*
Y2515D01*
X3210D01*
Y2514D01*
X3175D01*
Y2515D01*
X3166D01*
Y2516D01*
X3164D01*
Y2515D01*
X3163D01*
Y2516D01*
X3156D01*
Y2517D01*
X3147D01*
Y2518D01*
X3139D01*
Y2520D01*
X3137D01*
Y2521D01*
X3135D01*
Y2520D01*
X3132D01*
Y2521D01*
X3129D01*
Y2522D01*
X3123D01*
Y2523D01*
X3122D01*
Y2524D01*
X3117D01*
Y2525D01*
X3112D01*
Y2526D01*
X3110D01*
Y2527D01*
X3106D01*
Y2529D01*
X3101D01*
Y2530D01*
X3100D01*
Y2531D01*
X3096D01*
Y2532D01*
X3095D01*
Y2533D01*
X3092D01*
Y2534D01*
X3088D01*
Y2535D01*
X3084D01*
Y2537D01*
X3082D01*
Y2538D01*
X3080D01*
Y2539D01*
X3078D01*
Y2540D01*
X3074D01*
Y2542D01*
X3071D01*
Y2543D01*
X3068D01*
Y2545D01*
X3066D01*
Y2546D01*
X3064D01*
Y2547D01*
X3062D01*
Y2548D01*
X3060D01*
Y2549D01*
X3057D01*
Y2551D01*
X3054D01*
Y2552D01*
X3053D01*
Y2554D01*
X3050D01*
Y2555D01*
X3048D01*
Y2556D01*
X3047D01*
Y2557D01*
X3045D01*
Y2558D01*
X3043D01*
Y2559D01*
X3042D01*
Y2560D01*
X3040D01*
Y2562D01*
X3038D01*
Y2563D01*
X3037D01*
Y2564D01*
X3034D01*
Y2565D01*
X3033D01*
Y2566D01*
X3032D01*
Y2567D01*
X3031D01*
Y2568D01*
X3030D01*
Y2570D01*
X3028D01*
Y2571D01*
X3025D01*
Y2572D01*
X3024D01*
Y2573D01*
X3023D01*
Y2574D01*
X3021D01*
Y2575D01*
X3020D01*
Y2576D01*
X3018D01*
Y2579D01*
X3016D01*
Y2580D01*
X3015D01*
Y2581D01*
X3014D01*
Y2582D01*
X3013D01*
Y2583D01*
X3012D01*
Y2584D01*
X3011D01*
Y2585D01*
X3008D01*
Y2588D01*
X3007D01*
Y2589D01*
X3005D01*
Y2590D01*
X3004D01*
Y2592D01*
X3003D01*
Y2593D01*
X3000D01*
Y2595D01*
X2999D01*
Y2596D01*
X2998D01*
Y2597D01*
X2997D01*
Y2598D01*
X2996D01*
Y2599D01*
X2995D01*
Y2600D01*
X2993D01*
Y2602D01*
X2992D01*
Y2604D01*
X2991D01*
Y2605D01*
X2990D01*
Y2606D01*
X2989D01*
Y2607D01*
X2988D01*
Y2608D01*
X2987D01*
Y2609D01*
X2986D01*
Y2610D01*
X2984D01*
Y2613D01*
X2983D01*
Y2614D01*
X2982D01*
Y2615D01*
X2981D01*
Y2617D01*
X2979D01*
Y2620D01*
X2978D01*
Y2621D01*
X2976D01*
Y2622D01*
X2975D01*
Y2624D01*
X2974D01*
Y2626D01*
X2973D01*
Y2627D01*
X2972D01*
Y2630D01*
X2970D01*
Y2632D01*
X2968D01*
Y2633D01*
X2967D01*
Y2635D01*
X2966D01*
Y2638D01*
X2965D01*
Y2639D01*
X2964D01*
Y2641D01*
X2963D01*
Y2643D01*
X2962D01*
Y2645D01*
X2961D01*
Y2646D01*
X2959D01*
Y2649D01*
X2958D01*
Y2651D01*
X2957D01*
Y2652D01*
X2956D01*
Y2654D01*
X2955D01*
Y2657D01*
X2954D01*
Y2659D01*
X2953D01*
Y2660D01*
X2951D01*
Y2663D01*
X2950D01*
Y2665D01*
X2949D01*
Y2667D01*
X2948D01*
Y2669D01*
X2947D01*
Y2672D01*
X2946D01*
Y2674D01*
X2945D01*
Y2676D01*
X2943D01*
Y2680D01*
X2942D01*
Y2683D01*
X2941D01*
Y2687D01*
X2940D01*
Y2688D01*
X2939D01*
Y2692D01*
X2938D01*
Y2693D01*
X2937D01*
Y2698D01*
X2936D01*
Y2700D01*
X2934D01*
Y2706D01*
X2933D01*
Y2709D01*
X2932D01*
Y2714D01*
X2931D01*
Y2716D01*
X2930D01*
Y2722D01*
X2929D01*
Y2723D01*
X2928D01*
Y2730D01*
X2926D01*
Y2735D01*
X2925D01*
Y2743D01*
X2924D01*
Y2744D01*
X2925D01*
Y2746D01*
X2924D01*
Y2752D01*
X2923D01*
Y2754D01*
X2924D01*
Y2756D01*
X2923D01*
Y2766D01*
X2922D01*
Y2808D01*
X2923D01*
Y2821D01*
X2924D01*
Y2823D01*
X2923D01*
Y2825D01*
X2924D01*
Y2831D01*
X2925D01*
Y2833D01*
X2924D01*
Y2835D01*
X2925D01*
Y2842D01*
X2926D01*
Y2849D01*
X2928D01*
Y2857D01*
X2929D01*
Y2858D01*
X2930D01*
Y2864D01*
X2931D01*
Y2866D01*
X2932D01*
Y2867D01*
X2931D01*
Y2869D01*
X2932D01*
Y2871D01*
X2933D01*
Y2876D01*
X2934D01*
Y2882D01*
X2936D01*
Y2885D01*
X2937D01*
Y2889D01*
X2938D01*
Y2891D01*
X2939D01*
Y2894D01*
X2940D01*
Y2898D01*
X2941D01*
Y2900D01*
X2942D01*
Y2904D01*
X2943D01*
Y2908D01*
X2945D01*
Y2911D01*
X2946D01*
Y2914D01*
X2947D01*
Y2915D01*
X2948D01*
Y2918D01*
X2949D01*
Y2921D01*
X2950D01*
Y2923D01*
X2951D01*
Y2925D01*
X2953D01*
Y2926D01*
X2954D01*
Y2929D01*
X2955D01*
Y2933D01*
X2956D01*
Y2934D01*
X2957D01*
Y2935D01*
X2958D01*
Y2939D01*
X2959D01*
Y2940D01*
X2961D01*
Y2943D01*
X2962D01*
Y2944D01*
X2963D01*
Y2947D01*
X2964D01*
Y2949D01*
X2965D01*
Y2951D01*
X2966D01*
Y2952D01*
X2967D01*
Y2955D01*
X2968D01*
Y2956D01*
X2970D01*
Y2958D01*
X2971D01*
Y2960D01*
X2972D01*
Y2961D01*
X2973D01*
Y2963D01*
X2974D01*
Y2964D01*
X2975D01*
Y2966D01*
X2976D01*
Y2968D01*
X2978D01*
Y2969D01*
X2979D01*
Y2971D01*
X2980D01*
Y2973D01*
X2981D01*
Y2974D01*
X2982D01*
Y2975D01*
X2983D01*
Y2976D01*
X2984D01*
Y2978D01*
X2986D01*
Y2981D01*
X2987D01*
Y2982D01*
X2988D01*
Y2983D01*
X2989D01*
Y2984D01*
X2990D01*
Y2985D01*
X2991D01*
Y2988D01*
X2995D01*
Y2986D01*
X2996D01*
Y2985D01*
X2998D01*
Y2984D01*
X2999D01*
Y2983D01*
X3000D01*
Y2982D01*
X3001D01*
Y2981D01*
X3004D01*
Y2980D01*
X3005D01*
Y2978D01*
X3006D01*
Y2977D01*
X3007D01*
Y2976D01*
X3008D01*
Y2975D01*
X3011D01*
Y2974D01*
X3012D01*
Y2973D01*
X3014D01*
Y2972D01*
X3015D01*
Y2971D01*
X3016D01*
Y2969D01*
X3017D01*
Y2968D01*
X3020D01*
Y2967D01*
X3021D01*
Y2966D01*
X3022D01*
Y2965D01*
X3023D01*
Y2964D01*
X3024D01*
Y2963D01*
X3025D01*
Y2961D01*
X3028D01*
Y2960D01*
X3029D01*
Y2959D01*
X3030D01*
Y2958D01*
X3032D01*
Y2956D01*
X3033D01*
Y2955D01*
X3036D01*
Y2953D01*
X3037D01*
Y2952D01*
X3039D01*
Y2951D01*
X3040D01*
Y2950D01*
X3042D01*
Y2949D01*
X3043D01*
Y2948D01*
X3045D01*
Y2947D01*
X3046D01*
Y2946D01*
X3047D01*
Y2944D01*
X3048D01*
Y2943D01*
X3049D01*
Y2942D01*
X3051D01*
Y2941D01*
X3053D01*
Y2940D01*
X3054D01*
Y2939D01*
X3055D01*
Y2938D01*
X3057D01*
Y2936D01*
X3058D01*
Y2935D01*
X3059D01*
Y2934D01*
X3060D01*
Y2933D01*
X3063D01*
Y2932D01*
X3064D01*
Y2931D01*
X3066D01*
Y2930D01*
X3067D01*
Y2929D01*
X3068D01*
Y2927D01*
X3070D01*
Y2926D01*
X3072D01*
Y2924D01*
X3074D01*
Y2923D01*
X3075D01*
Y2922D01*
X3076D01*
Y2921D01*
X3079D01*
Y2918D01*
X3081D01*
Y2917D01*
X3082D01*
Y2916D01*
X3083D01*
Y2915D01*
X3084D01*
Y2914D01*
X3082D01*
Y2911D01*
X3081D01*
Y2910D01*
X3080D01*
Y2909D01*
X3079D01*
Y2908D01*
X3078D01*
Y2906D01*
X3076D01*
Y2905D01*
X3075D01*
Y2904D01*
X3074D01*
Y2901D01*
X3073D01*
Y2900D01*
X3072D01*
Y2899D01*
X3071D01*
Y2897D01*
X3070D01*
Y2896D01*
X3068D01*
Y2893D01*
X3067D01*
Y2892D01*
X3066D01*
Y2891D01*
X3065D01*
Y2889D01*
X3064D01*
Y2885D01*
X3063D01*
Y2884D01*
X3062D01*
Y2882D01*
X3060D01*
Y2880D01*
X3059D01*
Y2877D01*
X3057D01*
Y2874D01*
X3056D01*
Y2872D01*
X3055D01*
Y2871D01*
X3054D01*
Y2867D01*
X3053D01*
Y2866D01*
X3051D01*
Y2863D01*
X3050D01*
Y2858D01*
X3049D01*
Y2856D01*
X3048D01*
Y2852D01*
X3047D01*
Y2849D01*
X3046D01*
Y2846D01*
X3045D01*
Y2842D01*
X3043D01*
Y2841D01*
X3042D01*
Y2840D01*
X3043D01*
Y2838D01*
X3042D01*
Y2832D01*
X3041D01*
Y2827D01*
X3040D01*
Y2819D01*
X3039D01*
Y2810D01*
X3038D01*
Y2777D01*
X3039D01*
Y2768D01*
X3040D01*
Y2760D01*
X3041D01*
Y2755D01*
X3042D01*
Y2750D01*
X3043D01*
Y2747D01*
X3045D01*
Y2742D01*
X3046D01*
Y2739D01*
X3047D01*
Y2737D01*
X3048D01*
Y2733D01*
X3049D01*
Y2729D01*
X3050D01*
Y2727D01*
X3051D01*
Y2724D01*
X3053D01*
Y2722D01*
X3054D01*
Y2719D01*
X3055D01*
Y2717D01*
X3056D01*
Y2716D01*
X3057D01*
Y2714D01*
X3058D01*
Y2713D01*
X3059D01*
Y2710D01*
X3060D01*
Y2707D01*
X3062D01*
Y2706D01*
X3063D01*
Y2705D01*
X3064D01*
Y2702D01*
X3065D01*
Y2701D01*
X3066D01*
Y2700D01*
X3067D01*
Y2698D01*
X3068D01*
Y2697D01*
X3070D01*
Y2696D01*
X3071D01*
Y2694D01*
X3072D01*
Y2692D01*
X3073D01*
Y2691D01*
X3074D01*
Y2690D01*
X3075D01*
Y2688D01*
X3078D01*
Y2685D01*
X3079D01*
Y2684D01*
X3080D01*
Y2683D01*
X3081D01*
Y2682D01*
X3082D01*
Y2681D01*
X3084D01*
Y2680D01*
X3085D01*
Y2679D01*
X3087D01*
Y2677D01*
X3088D01*
Y2676D01*
X3089D01*
Y2675D01*
X3090D01*
Y2674D01*
X3091D01*
Y2673D01*
X3092D01*
Y2672D01*
X3095D01*
Y2671D01*
X3096D01*
Y2669D01*
X3098D01*
Y2668D01*
X3099D01*
Y2667D01*
X3100D01*
Y2666D01*
X3103D01*
Y2665D01*
X3104D01*
Y2664D01*
X3105D01*
Y2663D01*
X3107D01*
Y2662D01*
X3109D01*
Y2660D01*
X3112D01*
Y2659D01*
X3113D01*
Y2658D01*
X3116D01*
Y2657D01*
X3118D01*
Y2656D01*
X3120D01*
Y2655D01*
X3122D01*
Y2654D01*
X3125D01*
Y2652D01*
X3126D01*
Y2651D01*
X3130D01*
Y2650D01*
X3131D01*
Y2649D01*
X3135D01*
Y2648D01*
X3139D01*
Y2647D01*
X3141D01*
Y2646D01*
X3145D01*
Y2645D01*
X3148D01*
Y2643D01*
X3155D01*
Y2642D01*
X3162D01*
Y2641D01*
X3170D01*
Y2640D01*
X3181D01*
Y2639D01*
X3182D01*
Y2640D01*
X3184D01*
Y2639D01*
X3200D01*
Y2640D01*
X3202D01*
Y2639D01*
X3204D01*
Y2640D01*
X3215D01*
Y2641D01*
X3224D01*
Y2642D01*
X3231D01*
Y2643D01*
X3234D01*
Y2645D01*
X3240D01*
Y2646D01*
X3242D01*
Y2647D01*
X3247D01*
Y2648D01*
X3250D01*
Y2649D01*
X3251D01*
Y2650D01*
X3252D01*
Y2649D01*
X3254D01*
Y2650D01*
X3255D01*
Y2651D01*
X3259D01*
Y2652D01*
X3260D01*
Y2654D01*
X3263D01*
Y2655D01*
X3265D01*
Y2656D01*
X3266D01*
Y2657D01*
X3268D01*
Y2658D01*
X3270D01*
Y2659D01*
X3272D01*
Y2660D01*
X3274D01*
Y2662D01*
X3276D01*
Y2663D01*
X3279D01*
Y2664D01*
X3281D01*
Y2666D01*
X3283D01*
Y2667D01*
X3285D01*
Y2669D01*
X3288D01*
Y2671D01*
X3289D01*
Y2672D01*
X3290D01*
Y2673D01*
X3292D01*
Y2674D01*
X3293D01*
Y2675D01*
X3295D01*
Y2676D01*
X3296D01*
Y2677D01*
X3297D01*
Y2679D01*
X3298D01*
Y2680D01*
X3300D01*
Y2682D01*
X3301D01*
Y2683D01*
X3302D01*
Y2684D01*
X3304D01*
Y2685D01*
X3305D01*
Y2687D01*
X3306D01*
Y2688D01*
X3307D01*
Y2689D01*
X3308D01*
Y2690D01*
X3309D01*
Y2692D01*
X3312D01*
Y2694D01*
X3313D01*
Y2696D01*
X3314D01*
Y2697D01*
X3315D01*
Y2699D01*
X3316D01*
Y2700D01*
X3317D01*
Y2702D01*
X3318D01*
Y2704D01*
X3320D01*
Y2706D01*
X3321D01*
Y2707D01*
X3322D01*
Y2710D01*
X3323D01*
Y2712D01*
X3324D01*
Y2714D01*
X3325D01*
Y2716D01*
X3326D01*
Y2717D01*
X3327D01*
Y2721D01*
X3329D01*
Y2722D01*
X3330D01*
Y2724D01*
X3331D01*
Y2726D01*
X3332D01*
Y2729D01*
X3333D01*
Y2732D01*
X3334D01*
Y2735D01*
X3335D01*
Y2738D01*
X3337D01*
Y2740D01*
X3338D01*
Y2744D01*
X3339D01*
Y2749D01*
X3340D01*
Y2751D01*
X3341D01*
Y2756D01*
X3342D01*
Y2760D01*
X3343D01*
Y2764D01*
X3344D01*
Y2773D01*
X3346D01*
Y2780D01*
X3347D01*
Y2782D01*
X3346D01*
Y2783D01*
X3347D01*
Y2784D01*
X3346D01*
Y2785D01*
X3347D01*
Y2819D01*
X3346D01*
Y2822D01*
X3347D01*
Y2823D01*
X3346D01*
Y2824D01*
X3347D01*
Y2826D01*
X3346D01*
Y2833D01*
X3344D01*
Y2840D01*
X3343D01*
Y2842D01*
X3344D01*
Y2843D01*
X3343D01*
Y2847D01*
X3342D01*
Y2851D01*
X3341D01*
Y2855D01*
X3340D01*
Y2857D01*
X3339D01*
Y2860D01*
X3338D01*
Y2864D01*
X3337D01*
Y2866D01*
X3335D01*
Y2869D01*
X3334D01*
Y2871D01*
X3333D01*
Y2872D01*
X3332D01*
Y2873D01*
X3331D01*
Y2875D01*
X3330D01*
Y2876D01*
X3329D01*
Y2877D01*
X3327D01*
Y2879D01*
X3250D01*
Y2867D01*
X3249D01*
Y2855D01*
X3248D01*
Y2830D01*
X3247D01*
Y2808D01*
X3246D01*
Y2807D01*
X3247D01*
Y2805D01*
X3246D01*
Y2797D01*
X3245D01*
Y2784D01*
X3216D01*
Y2783D01*
X3153D01*
Y2782D01*
X3143D01*
Y2784D01*
X3145D01*
Y3002D01*
X3143D01*
Y3003D01*
X3145D01*
Y3005D01*
X3147D01*
Y3003D01*
X3149D01*
Y3005D01*
X3150D01*
Y3003D01*
X3153D01*
Y3005D01*
X3154D01*
Y3003D01*
X3157D01*
Y3005D01*
X3158D01*
Y3003D01*
X3160D01*
Y3005D01*
X3162D01*
Y3003D01*
X3165D01*
Y3005D01*
X3167D01*
Y3003D01*
X3168D01*
Y3005D01*
X3171D01*
Y3003D01*
X3172D01*
Y3005D01*
X3174D01*
Y3003D01*
X3176D01*
Y3005D01*
X3179D01*
Y3003D01*
X3180D01*
Y3005D01*
X3182D01*
Y3003D01*
X3183D01*
Y3005D01*
X3184D01*
Y3003D01*
X3188D01*
Y3005D01*
X3189D01*
Y3003D01*
X3190D01*
Y3005D01*
X3192D01*
Y3003D01*
X3193D01*
Y3005D01*
X3196D01*
Y3003D01*
X3198D01*
Y3005D01*
X3200D01*
Y3003D01*
X3201D01*
Y3005D01*
X3204D01*
Y3003D01*
X3205D01*
Y3005D01*
X3207D01*
Y3003D01*
X3209D01*
Y3005D01*
X3212D01*
Y3003D01*
X3213D01*
Y3005D01*
X3215D01*
Y3003D01*
X3216D01*
Y3005D01*
X3217D01*
Y3003D01*
X3221D01*
Y3005D01*
X3222D01*
Y3003D01*
X3223D01*
Y3005D01*
X3225D01*
Y3003D01*
X3226D01*
Y3005D01*
X3229D01*
Y3003D01*
X3231D01*
Y3005D01*
X3233D01*
Y3003D01*
X3234D01*
Y3005D01*
X3237D01*
Y3003D01*
X3238D01*
Y3005D01*
X3239D01*
Y3003D01*
X3242D01*
Y3005D01*
X3243D01*
Y3003D01*
X3245D01*
Y3005D01*
X3247D01*
Y3003D01*
X3248D01*
Y3005D01*
X3250D01*
Y3003D01*
X3252D01*
Y3005D01*
X3255D01*
Y3003D01*
X3256D01*
Y3005D01*
X3258D01*
Y3003D01*
X3259D01*
Y3005D01*
X3262D01*
Y3003D01*
X3264D01*
Y3005D01*
X3266D01*
Y3003D01*
X3267D01*
Y3005D01*
X3270D01*
Y3003D01*
X3271D01*
Y3005D01*
X3272D01*
Y3003D01*
X3275D01*
Y3005D01*
X3276D01*
Y3003D01*
X3277D01*
Y3005D01*
X3280D01*
Y3003D01*
X3281D01*
Y3005D01*
X3283D01*
Y3003D01*
X3285D01*
Y3005D01*
X3288D01*
Y3003D01*
X3289D01*
Y3005D01*
X3291D01*
Y3003D01*
X3292D01*
Y3005D01*
X3293D01*
Y3003D01*
X3297D01*
Y3005D01*
X3298D01*
Y3003D01*
X3299D01*
Y3005D01*
X3301D01*
Y3003D01*
X3302D01*
Y3005D01*
X3305D01*
Y3003D01*
X3307D01*
Y3005D01*
X3309D01*
Y3003D01*
X3310D01*
Y3005D01*
X3313D01*
Y3003D01*
X3314D01*
Y3005D01*
X3316D01*
Y3003D01*
X3318D01*
Y3005D01*
X3321D01*
Y3003D01*
X3322D01*
Y3005D01*
X3324D01*
Y3003D01*
X3325D01*
Y3005D01*
X3326D01*
Y3003D01*
X3330D01*
Y3005D01*
X3331D01*
Y3003D01*
X3332D01*
Y3005D01*
X3334D01*
Y3003D01*
X3335D01*
Y3005D01*
X3338D01*
Y3003D01*
X3340D01*
Y3005D01*
X3342D01*
Y3003D01*
X3343D01*
Y3005D01*
X3346D01*
Y3003D01*
X3347D01*
Y3005D01*
X3348D01*
Y3003D01*
X3351D01*
Y3005D01*
X3352D01*
Y3003D01*
X3354D01*
Y3005D01*
X3356D01*
Y3003D01*
X3357D01*
Y3005D01*
X3359D01*
Y3003D01*
X3362D01*
Y3005D01*
X3364D01*
Y3003D01*
X3365D01*
Y3005D01*
X3367D01*
Y3003D01*
X3368D01*
Y3005D01*
X3371D01*
Y3003D01*
X3373D01*
Y3005D01*
X3374D01*
Y3003D01*
X3376D01*
Y3005D01*
X3379D01*
Y3003D01*
X3380D01*
Y3005D01*
X3381D01*
Y3003D01*
X3384D01*
Y3005D01*
X3385D01*
Y3003D01*
X3387D01*
Y3005D01*
X3389D01*
Y3003D01*
X3390D01*
Y3005D01*
X3392D01*
Y3003D01*
X3394D01*
Y3005D01*
X3397D01*
Y3003D01*
X3398D01*
Y3005D01*
X3400D01*
Y3003D01*
X3401D01*
Y3005D01*
X3402D01*
Y3003D01*
X3406D01*
Y3005D01*
X3408D01*
Y3003D01*
D02*
G37*
%LPC*%
G36*
X3195Y4987D02*
X3183D01*
Y4986D01*
X3171D01*
Y4985D01*
X3164D01*
Y4984D01*
X3158D01*
Y4982D01*
X3153D01*
Y4981D01*
X3148D01*
Y4980D01*
X3145D01*
Y4979D01*
X3141D01*
Y4978D01*
X3138D01*
Y4977D01*
X3134D01*
Y4976D01*
X3133D01*
Y4974D01*
X3130D01*
Y4973D01*
X3128D01*
Y4972D01*
X3124D01*
Y4971D01*
X3123D01*
Y4970D01*
X3120D01*
Y4969D01*
X3118D01*
Y4968D01*
X3116D01*
Y4967D01*
X3115D01*
Y4965D01*
X3113D01*
Y4964D01*
X3110D01*
Y4963D01*
X3109D01*
Y4962D01*
X3107D01*
Y4961D01*
X3106D01*
Y4960D01*
X3104D01*
Y4959D01*
X3101D01*
Y4957D01*
X3100D01*
Y4956D01*
X3099D01*
Y4955D01*
X3098D01*
Y4954D01*
X3097D01*
Y4953D01*
X3095D01*
Y4952D01*
X3093D01*
Y4951D01*
X3092D01*
Y4949D01*
X3091D01*
Y4948D01*
X3090D01*
Y4947D01*
X3089D01*
Y4946D01*
X3088D01*
Y4945D01*
X3087D01*
Y4944D01*
X3085D01*
Y4943D01*
X3084D01*
Y4942D01*
X3083D01*
Y4940D01*
X3082D01*
Y4939D01*
X3081D01*
Y4938D01*
X3080D01*
Y4937D01*
X3079D01*
Y4936D01*
X3078D01*
Y4935D01*
X3076D01*
Y4934D01*
X3075D01*
Y4932D01*
X3074D01*
Y4930D01*
X3073D01*
Y4929D01*
X3072D01*
Y4928D01*
X3071D01*
Y4926D01*
X3070D01*
Y4924D01*
X3068D01*
Y4922D01*
X3067D01*
Y4921D01*
X3066D01*
Y4920D01*
X3065D01*
Y4917D01*
X3064D01*
Y4915D01*
X3063D01*
Y4913D01*
X3062D01*
Y4912D01*
X3060D01*
Y4910D01*
X3059D01*
Y4907D01*
X3058D01*
Y4905D01*
X3057D01*
Y4904D01*
X3056D01*
Y4902D01*
X3055D01*
Y4898D01*
X3054D01*
Y4897D01*
X3053D01*
Y4893D01*
X3051D01*
Y4890D01*
X3050D01*
Y4888D01*
X3049D01*
Y4884D01*
X3048D01*
Y4881D01*
X3047D01*
Y4878D01*
X3046D01*
Y4874D01*
X3045D01*
Y4870D01*
X3043D01*
Y4864D01*
X3042D01*
Y4856D01*
X3041D01*
Y4848D01*
X3040D01*
Y4847D01*
X3041D01*
Y4845D01*
X3040D01*
Y4792D01*
X3339D01*
Y4793D01*
X3340D01*
Y4840D01*
X3339D01*
Y4852D01*
X3338D01*
Y4860D01*
X3337D01*
Y4867D01*
X3335D01*
Y4871D01*
X3334D01*
Y4876D01*
X3333D01*
Y4879D01*
X3332D01*
Y4884D01*
X3331D01*
Y4887D01*
X3330D01*
Y4888D01*
X3329D01*
Y4892D01*
X3327D01*
Y4894D01*
X3326D01*
Y4896D01*
X3325D01*
Y4899D01*
X3324D01*
Y4901D01*
X3323D01*
Y4903D01*
X3322D01*
Y4906D01*
X3321D01*
Y4907D01*
X3320D01*
Y4911D01*
X3318D01*
Y4912D01*
X3317D01*
Y4913D01*
X3316D01*
Y4915D01*
X3315D01*
Y4917D01*
X3314D01*
Y4920D01*
X3313D01*
Y4921D01*
X3312D01*
Y4922D01*
X3310D01*
Y4924D01*
X3309D01*
Y4926D01*
X3308D01*
Y4927D01*
X3307D01*
Y4928D01*
X3306D01*
Y4930D01*
X3305D01*
Y4931D01*
X3304D01*
Y4932D01*
X3302D01*
Y4934D01*
X3301D01*
Y4935D01*
X3300D01*
Y4937D01*
X3299D01*
Y4938D01*
X3298D01*
Y4939D01*
X3297D01*
Y4940D01*
X3296D01*
Y4942D01*
X3295D01*
Y4943D01*
X3293D01*
Y4944D01*
X3292D01*
Y4945D01*
X3291D01*
Y4946D01*
X3290D01*
Y4947D01*
X3289D01*
Y4948D01*
X3288D01*
Y4949D01*
X3285D01*
Y4951D01*
X3284D01*
Y4952D01*
X3283D01*
Y4953D01*
X3282D01*
Y4954D01*
X3281D01*
Y4955D01*
X3279D01*
Y4956D01*
X3277D01*
Y4957D01*
X3276D01*
Y4959D01*
X3275D01*
Y4960D01*
X3273D01*
Y4961D01*
X3272D01*
Y4962D01*
X3270D01*
Y4963D01*
X3268D01*
Y4964D01*
X3265D01*
Y4965D01*
X3264D01*
Y4967D01*
X3263D01*
Y4968D01*
X3260D01*
Y4969D01*
X3258D01*
Y4970D01*
X3257D01*
Y4971D01*
X3255D01*
Y4972D01*
X3252D01*
Y4973D01*
X3248D01*
Y4974D01*
X3246D01*
Y4976D01*
X3243D01*
Y4977D01*
X3241D01*
Y4978D01*
X3239D01*
Y4979D01*
X3235D01*
Y4980D01*
X3234D01*
Y4979D01*
X3233D01*
Y4980D01*
X3232D01*
Y4981D01*
X3226D01*
Y4982D01*
X3221D01*
Y4984D01*
X3216D01*
Y4985D01*
X3212D01*
Y4986D01*
X3195D01*
Y4987D01*
D02*
G37*
G36*
X3178Y3828D02*
X3167D01*
Y3827D01*
X3164D01*
Y3826D01*
X3163D01*
Y3825D01*
X3162D01*
Y3824D01*
X3160D01*
Y3821D01*
X3159D01*
Y3819D01*
X3158D01*
Y3815D01*
X3157D01*
Y3782D01*
X3158D01*
Y3777D01*
X3159D01*
Y3775D01*
X3160D01*
Y3773D01*
X3162D01*
Y3771D01*
X3163D01*
Y3770D01*
X3165D01*
Y3769D01*
X3166D01*
Y3768D01*
X3178D01*
Y3769D01*
X3180D01*
Y3770D01*
X3181D01*
Y3771D01*
X3182D01*
Y3773D01*
X3183D01*
Y3774D01*
X3184D01*
Y3775D01*
X3185D01*
Y3820D01*
X3184D01*
Y3823D01*
X3183D01*
Y3824D01*
X3182D01*
Y3825D01*
X3181D01*
Y3826D01*
X3180D01*
Y3827D01*
X3178D01*
Y3828D01*
D02*
G37*
G36*
X3317Y3770D02*
X3308D01*
Y3769D01*
X3306D01*
Y3768D01*
X3304D01*
Y3767D01*
X3302D01*
Y3766D01*
X3301D01*
Y3765D01*
X3300D01*
Y3763D01*
X3299D01*
Y3762D01*
X3298D01*
Y3761D01*
X3297D01*
Y3760D01*
X3296D01*
Y3759D01*
X3295D01*
Y3758D01*
X3293D01*
Y3757D01*
X3292D01*
Y3756D01*
X3291D01*
Y3754D01*
X3290D01*
Y3753D01*
X3289D01*
Y3752D01*
X3288D01*
Y3751D01*
X3287D01*
Y3750D01*
X3285D01*
Y3749D01*
X3284D01*
Y3748D01*
X3283D01*
Y3746D01*
X3282D01*
Y3745D01*
X3281D01*
Y3744D01*
X3280D01*
Y3743D01*
X3279D01*
Y3742D01*
X3277D01*
Y3740D01*
X3276D01*
Y3737D01*
X3275D01*
Y3728D01*
X3276D01*
Y3726D01*
X3277D01*
Y3725D01*
X3279D01*
Y3724D01*
X3280D01*
Y3723D01*
X3281D01*
Y3721D01*
X3282D01*
Y3720D01*
X3287D01*
Y3719D01*
X3293D01*
Y3720D01*
X3296D01*
Y3721D01*
X3298D01*
Y3723D01*
X3299D01*
Y3724D01*
X3300D01*
Y3725D01*
X3301D01*
Y3726D01*
X3302D01*
Y3727D01*
X3304D01*
Y3728D01*
X3305D01*
Y3729D01*
X3306D01*
Y3731D01*
X3307D01*
Y3732D01*
X3308D01*
Y3733D01*
X3309D01*
Y3734D01*
X3310D01*
Y3735D01*
X3312D01*
Y3736D01*
X3313D01*
Y3737D01*
X3314D01*
Y3738D01*
X3315D01*
Y3740D01*
X3316D01*
Y3741D01*
X3317D01*
Y3742D01*
X3318D01*
Y3743D01*
X3320D01*
Y3744D01*
X3321D01*
Y3745D01*
X3322D01*
Y3746D01*
X3323D01*
Y3748D01*
X3324D01*
Y3750D01*
X3325D01*
Y3752D01*
X3326D01*
Y3754D01*
X3327D01*
Y3758D01*
X3326D01*
Y3760D01*
X3325D01*
Y3763D01*
X3324D01*
Y3765D01*
X3323D01*
Y3767D01*
X3322D01*
Y3768D01*
X3320D01*
Y3769D01*
X3317D01*
Y3770D01*
D02*
G37*
G36*
X3036D02*
X3026D01*
Y3769D01*
X3024D01*
Y3768D01*
X3022D01*
Y3767D01*
X3021D01*
Y3766D01*
X3020D01*
Y3763D01*
X3018D01*
Y3762D01*
X3017D01*
Y3759D01*
X3016D01*
Y3756D01*
X3017D01*
Y3751D01*
X3018D01*
Y3749D01*
X3020D01*
Y3748D01*
X3021D01*
Y3746D01*
X3022D01*
Y3744D01*
X3023D01*
Y3743D01*
X3024D01*
Y3742D01*
X3026D01*
Y3741D01*
X3028D01*
Y3740D01*
X3029D01*
Y3738D01*
X3030D01*
Y3737D01*
X3031D01*
Y3736D01*
X3032D01*
Y3734D01*
X3033D01*
Y3733D01*
X3034D01*
Y3732D01*
X3036D01*
Y3731D01*
X3037D01*
Y3729D01*
X3039D01*
Y3728D01*
X3040D01*
Y3727D01*
X3041D01*
Y3725D01*
X3042D01*
Y3724D01*
X3043D01*
Y3723D01*
X3046D01*
Y3721D01*
X3047D01*
Y3720D01*
X3050D01*
Y3719D01*
X3057D01*
Y3720D01*
X3060D01*
Y3721D01*
X3063D01*
Y3723D01*
X3064D01*
Y3724D01*
X3065D01*
Y3725D01*
X3066D01*
Y3727D01*
X3067D01*
Y3729D01*
X3068D01*
Y3731D01*
X3070D01*
Y3734D01*
X3068D01*
Y3736D01*
X3067D01*
Y3741D01*
X3066D01*
Y3742D01*
X3065D01*
Y3743D01*
X3064D01*
Y3744D01*
X3063D01*
Y3745D01*
X3060D01*
Y3746D01*
X3059D01*
Y3749D01*
X3057D01*
Y3751D01*
X3056D01*
Y3752D01*
X3055D01*
Y3753D01*
X3054D01*
Y3754D01*
X3053D01*
Y3756D01*
X3051D01*
Y3757D01*
X3050D01*
Y3758D01*
X3049D01*
Y3759D01*
X3048D01*
Y3760D01*
X3047D01*
Y3761D01*
X3046D01*
Y3762D01*
X3045D01*
Y3763D01*
X3042D01*
Y3766D01*
X3041D01*
Y3767D01*
X3040D01*
Y3768D01*
X3038D01*
Y3769D01*
X3036D01*
Y3770D01*
D02*
G37*
G36*
X3007Y3631D02*
X3005D01*
Y3629D01*
X3004D01*
Y3631D01*
X3001D01*
Y3629D01*
X3000D01*
Y3631D01*
X2998D01*
Y3629D01*
X2997D01*
Y3631D01*
X2995D01*
Y3629D01*
X2993D01*
Y3631D01*
X2990D01*
Y3629D01*
X2989D01*
Y3631D01*
X2987D01*
Y3629D01*
X2986D01*
Y3631D01*
X2983D01*
Y3629D01*
X2982D01*
Y3631D01*
X2980D01*
Y3629D01*
X2979D01*
Y3631D01*
X2976D01*
Y3629D01*
X2975D01*
Y3631D01*
X2972D01*
Y3629D01*
X2968D01*
Y3628D01*
X2965D01*
Y3627D01*
X2964D01*
Y3626D01*
X2963D01*
Y3625D01*
X2962D01*
Y3624D01*
X2961D01*
Y3621D01*
X2959D01*
Y3618D01*
X2958D01*
Y3614D01*
X2959D01*
Y3609D01*
X2961D01*
Y3608D01*
X2962D01*
Y3607D01*
X2963D01*
Y3606D01*
X2964D01*
Y3604D01*
X2966D01*
Y3603D01*
X2967D01*
Y3602D01*
X3012D01*
Y3603D01*
X3013D01*
Y3604D01*
X3015D01*
Y3606D01*
X3016D01*
Y3607D01*
X3017D01*
Y3609D01*
X3018D01*
Y3611D01*
X3020D01*
Y3619D01*
X3018D01*
Y3623D01*
X3017D01*
Y3624D01*
X3016D01*
Y3626D01*
X3015D01*
Y3627D01*
X3013D01*
Y3628D01*
X3012D01*
Y3629D01*
X3007D01*
Y3631D01*
D02*
G37*
G36*
X3359Y3670D02*
X3357D01*
Y3669D01*
X3355D01*
Y3668D01*
X3350D01*
Y3667D01*
X3349D01*
Y3666D01*
X3348D01*
Y3665D01*
X3347D01*
Y3664D01*
X3346D01*
Y3661D01*
X3344D01*
Y3659D01*
X3343D01*
Y3651D01*
X3344D01*
Y3645D01*
X3346D01*
Y3643D01*
X3347D01*
Y3639D01*
X3348D01*
Y3634D01*
X3349D01*
Y3629D01*
X3350D01*
Y3619D01*
X3351D01*
Y3617D01*
X3352D01*
Y3611D01*
X3354D01*
Y3606D01*
X3355D01*
Y3603D01*
X3356D01*
Y3598D01*
X3357D01*
Y3592D01*
X3358D01*
Y3587D01*
X3359D01*
Y3582D01*
X3360D01*
Y3577D01*
X3362D01*
Y3574D01*
X3363D01*
Y3569D01*
X3364D01*
Y3568D01*
X3365D01*
Y3567D01*
X3366D01*
Y3566D01*
X3367D01*
Y3565D01*
X3368D01*
Y3564D01*
X3371D01*
Y3562D01*
X3381D01*
Y3564D01*
X3383D01*
Y3565D01*
X3384D01*
Y3566D01*
X3385D01*
Y3567D01*
X3387D01*
Y3568D01*
X3388D01*
Y3570D01*
X3389D01*
Y3571D01*
X3390D01*
Y3576D01*
X3391D01*
Y3577D01*
X3390D01*
Y3578D01*
X3389D01*
Y3586D01*
X3388D01*
Y3590D01*
X3387D01*
Y3594D01*
X3385D01*
Y3600D01*
X3384D01*
Y3606D01*
X3383D01*
Y3610D01*
X3382D01*
Y3615D01*
X3381D01*
Y3619D01*
X3380D01*
Y3625D01*
X3379D01*
Y3631D01*
X3377D01*
Y3634D01*
X3376D01*
Y3641D01*
X3375D01*
Y3645D01*
X3374D01*
Y3650D01*
X3373D01*
Y3657D01*
X3372D01*
Y3659D01*
X3371D01*
Y3662D01*
X3369D01*
Y3664D01*
X3368D01*
Y3665D01*
X3367D01*
Y3666D01*
X3366D01*
Y3667D01*
X3365D01*
Y3668D01*
X3362D01*
Y3669D01*
X3359D01*
Y3670D01*
D02*
G37*
G36*
X3402D02*
X3400D01*
Y3669D01*
X3398D01*
Y3668D01*
X3394D01*
Y3667D01*
X3392D01*
Y3666D01*
X3391D01*
Y3665D01*
X3390D01*
Y3664D01*
X3389D01*
Y3661D01*
X3388D01*
Y3658D01*
X3387D01*
Y3650D01*
X3388D01*
Y3648D01*
X3389D01*
Y3642D01*
X3390D01*
Y3636D01*
X3391D01*
Y3632D01*
X3392D01*
Y3626D01*
X3393D01*
Y3620D01*
X3394D01*
Y3617D01*
X3396D01*
Y3610D01*
X3397D01*
Y3606D01*
X3398D01*
Y3604D01*
X3399D01*
Y3599D01*
X3400D01*
Y3594D01*
X3401D01*
Y3593D01*
X3400D01*
Y3592D01*
X3401D01*
Y3586D01*
X3402D01*
Y3583D01*
X3404D01*
Y3578D01*
X3405D01*
Y3573D01*
X3406D01*
Y3570D01*
X3407D01*
Y3568D01*
X3408D01*
Y3567D01*
X3409D01*
Y3566D01*
X3410D01*
Y3565D01*
X3413D01*
Y3564D01*
X3414D01*
Y3562D01*
X3418D01*
Y3561D01*
X3419D01*
Y3562D01*
X3424D01*
Y3564D01*
X3426D01*
Y3565D01*
X3427D01*
Y3566D01*
X3429D01*
Y3567D01*
X3430D01*
Y3568D01*
X3431D01*
Y3569D01*
X3432D01*
Y3571D01*
X3433D01*
Y3581D01*
X3432D01*
Y3585D01*
X3431D01*
Y3592D01*
X3430D01*
Y3595D01*
X3429D01*
Y3599D01*
X3427D01*
Y3608D01*
X3426D01*
Y3609D01*
X3425D01*
Y3615D01*
X3424D01*
Y3621D01*
X3423D01*
Y3624D01*
X3422D01*
Y3632D01*
X3421D01*
Y3635D01*
X3419D01*
Y3640D01*
X3418D01*
Y3645D01*
X3417D01*
Y3650D01*
X3416D01*
Y3656D01*
X3415D01*
Y3659D01*
X3414D01*
Y3661D01*
X3413D01*
Y3664D01*
X3412D01*
Y3665D01*
X3410D01*
Y3666D01*
X3409D01*
Y3667D01*
X3407D01*
Y3668D01*
X3405D01*
Y3669D01*
X3402D01*
Y3670D01*
D02*
G37*
G36*
X3185Y3741D02*
X3158D01*
Y3740D01*
X3148D01*
Y3738D01*
X3145D01*
Y3737D01*
X3140D01*
Y3736D01*
X3134D01*
Y3735D01*
X3132D01*
Y3734D01*
X3128D01*
Y3733D01*
X3125D01*
Y3732D01*
X3122D01*
Y3731D01*
X3120D01*
Y3729D01*
X3117D01*
Y3728D01*
X3115D01*
Y3727D01*
X3113D01*
Y3726D01*
X3110D01*
Y3725D01*
X3108D01*
Y3724D01*
X3106D01*
Y3723D01*
X3104D01*
Y3721D01*
X3103D01*
Y3720D01*
X3101D01*
Y3719D01*
X3100D01*
Y3718D01*
X3098D01*
Y3717D01*
X3096D01*
Y3715D01*
X3093D01*
Y3713D01*
X3092D01*
Y3712D01*
X3091D01*
Y3711D01*
X3090D01*
Y3710D01*
X3088D01*
Y3709D01*
X3087D01*
Y3708D01*
X3085D01*
Y3707D01*
X3084D01*
Y3706D01*
X3083D01*
Y3704D01*
X3082D01*
Y3703D01*
X3081D01*
Y3701D01*
X3080D01*
Y3700D01*
X3079D01*
Y3699D01*
X3078D01*
Y3698D01*
X3076D01*
Y3696D01*
X3075D01*
Y3695D01*
X3074D01*
Y3694D01*
X3073D01*
Y3692D01*
X3071D01*
Y3690D01*
X3070D01*
Y3687D01*
X3068D01*
Y3686D01*
X3067D01*
Y3684D01*
X3066D01*
Y3682D01*
X3065D01*
Y3679D01*
X3064D01*
Y3678D01*
X3063D01*
Y3677D01*
X3062D01*
Y3674D01*
X3060D01*
Y3673D01*
X3059D01*
Y3668D01*
X3058D01*
Y3667D01*
X3057D01*
Y3665D01*
X3056D01*
Y3661D01*
X3055D01*
Y3659D01*
X3054D01*
Y3656D01*
X3053D01*
Y3652D01*
X3051D01*
Y3649D01*
X3050D01*
Y3643D01*
X3049D01*
Y3639D01*
X3048D01*
Y3632D01*
X3047D01*
Y3599D01*
X3048D01*
Y3592D01*
X3049D01*
Y3587D01*
X3050D01*
Y3582D01*
X3051D01*
Y3579D01*
X3053D01*
Y3575D01*
X3054D01*
Y3571D01*
X3055D01*
Y3569D01*
X3056D01*
Y3567D01*
X3057D01*
Y3565D01*
X3058D01*
Y3562D01*
X3059D01*
Y3560D01*
X3060D01*
Y3558D01*
X3062D01*
Y3556D01*
X3063D01*
Y3553D01*
X3064D01*
Y3551D01*
X3065D01*
Y3550D01*
X3066D01*
Y3548D01*
X3067D01*
Y3546D01*
X3068D01*
Y3544D01*
X3070D01*
Y3543D01*
X3071D01*
Y3541D01*
X3072D01*
Y3540D01*
X3073D01*
Y3539D01*
X3074D01*
Y3537D01*
X3075D01*
Y3535D01*
X3076D01*
Y3534D01*
X3078D01*
Y3533D01*
X3079D01*
Y3532D01*
X3080D01*
Y3531D01*
X3081D01*
Y3529D01*
X3082D01*
Y3528D01*
X3083D01*
Y3527D01*
X3084D01*
Y3526D01*
X3085D01*
Y3525D01*
X3087D01*
Y3524D01*
X3088D01*
Y3523D01*
X3089D01*
Y3522D01*
X3090D01*
Y3520D01*
X3092D01*
Y3518D01*
X3095D01*
Y3517D01*
X3096D01*
Y3516D01*
X3097D01*
Y3515D01*
X3098D01*
Y3514D01*
X3100D01*
Y3512D01*
X3101D01*
Y3511D01*
X3104D01*
Y3510D01*
X3105D01*
Y3509D01*
X3107D01*
Y3508D01*
X3109D01*
Y3507D01*
X3110D01*
Y3506D01*
X3114D01*
Y3504D01*
X3115D01*
Y3503D01*
X3117D01*
Y3502D01*
X3121D01*
Y3501D01*
X3122D01*
Y3500D01*
X3125D01*
Y3499D01*
X3130D01*
Y3498D01*
X3131D01*
Y3497D01*
X3134D01*
Y3495D01*
X3140D01*
Y3494D01*
X3142D01*
Y3493D01*
X3148D01*
Y3492D01*
X3155D01*
Y3491D01*
X3167D01*
Y3490D01*
X3168D01*
Y3491D01*
X3171D01*
Y3490D01*
X3173D01*
Y3491D01*
X3174D01*
Y3490D01*
X3176D01*
Y3491D01*
X3189D01*
Y3492D01*
X3195D01*
Y3493D01*
X3204D01*
Y3494D01*
X3205D01*
Y3495D01*
X3209D01*
Y3497D01*
X3213D01*
Y3498D01*
X3215D01*
Y3499D01*
X3217D01*
Y3500D01*
X3222D01*
Y3501D01*
X3224D01*
Y3502D01*
X3226D01*
Y3503D01*
X3229D01*
Y3504D01*
X3230D01*
Y3506D01*
X3232D01*
Y3507D01*
X3233D01*
Y3508D01*
X3235D01*
Y3509D01*
X3239D01*
Y3510D01*
X3240D01*
Y3511D01*
X3242D01*
Y3512D01*
X3243D01*
Y3514D01*
X3245D01*
Y3515D01*
X3247D01*
Y3516D01*
X3248D01*
Y3517D01*
X3249D01*
Y3518D01*
X3251D01*
Y3519D01*
X3252D01*
Y3520D01*
X3254D01*
Y3522D01*
X3255D01*
Y3523D01*
X3256D01*
Y3524D01*
X3257D01*
Y3525D01*
X3258D01*
Y3526D01*
X3259D01*
Y3527D01*
X3260D01*
Y3528D01*
X3262D01*
Y3529D01*
X3263D01*
Y3531D01*
X3264D01*
Y3532D01*
X3265D01*
Y3533D01*
X3266D01*
Y3534D01*
X3267D01*
Y3536D01*
X3268D01*
Y3537D01*
X3270D01*
Y3539D01*
X3271D01*
Y3540D01*
X3272D01*
Y3541D01*
X3273D01*
Y3543D01*
X3274D01*
Y3544D01*
X3275D01*
Y3545D01*
X3276D01*
Y3546D01*
X3277D01*
Y3548D01*
X3279D01*
Y3549D01*
X3280D01*
Y3550D01*
X3281D01*
Y3551D01*
X3283D01*
Y3552D01*
X3284D01*
Y3553D01*
X3287D01*
Y3554D01*
X3289D01*
Y3556D01*
X3291D01*
Y3557D01*
X3292D01*
Y3558D01*
X3293D01*
Y3559D01*
X3298D01*
Y3560D01*
X3304D01*
Y3561D01*
X3308D01*
Y3562D01*
X3309D01*
Y3561D01*
X3312D01*
Y3562D01*
X3338D01*
Y3564D01*
X3340D01*
Y3565D01*
X3341D01*
Y3566D01*
X3342D01*
Y3567D01*
X3343D01*
Y3568D01*
X3344D01*
Y3570D01*
X3346D01*
Y3573D01*
X3347D01*
Y3579D01*
X3346D01*
Y3587D01*
X3344D01*
Y3590D01*
X3343D01*
Y3595D01*
X3342D01*
Y3601D01*
X3341D01*
Y3603D01*
X3340D01*
Y3611D01*
X3339D01*
Y3616D01*
X3338D01*
Y3621D01*
X3337D01*
Y3627D01*
X3335D01*
Y3629D01*
X3334D01*
Y3635D01*
X3333D01*
Y3641D01*
X3332D01*
Y3645D01*
X3331D01*
Y3651D01*
X3330D01*
Y3654D01*
X3329D01*
Y3659D01*
X3327D01*
Y3661D01*
X3326D01*
Y3664D01*
X3325D01*
Y3665D01*
X3324D01*
Y3666D01*
X3323D01*
Y3667D01*
X3322D01*
Y3668D01*
X3318D01*
Y3669D01*
X3316D01*
Y3670D01*
X3309D01*
Y3669D01*
X3308D01*
Y3670D01*
X3302D01*
Y3671D01*
X3298D01*
Y3673D01*
X3296D01*
Y3674D01*
X3291D01*
Y3675D01*
X3290D01*
Y3676D01*
X3288D01*
Y3677D01*
X3285D01*
Y3678D01*
X3284D01*
Y3679D01*
X3283D01*
Y3681D01*
X3282D01*
Y3682D01*
X3280D01*
Y3683D01*
X3279D01*
Y3684D01*
X3277D01*
Y3685D01*
X3276D01*
Y3686D01*
X3275D01*
Y3687D01*
X3274D01*
Y3688D01*
X3273D01*
Y3690D01*
X3272D01*
Y3691D01*
X3271D01*
Y3693D01*
X3270D01*
Y3694D01*
X3268D01*
Y3695D01*
X3267D01*
Y3696D01*
X3266D01*
Y3699D01*
X3265D01*
Y3700D01*
X3264D01*
Y3701D01*
X3263D01*
Y3702D01*
X3262D01*
Y3703D01*
X3260D01*
Y3704D01*
X3259D01*
Y3706D01*
X3258D01*
Y3707D01*
X3257D01*
Y3708D01*
X3256D01*
Y3709D01*
X3255D01*
Y3710D01*
X3252D01*
Y3711D01*
X3251D01*
Y3712D01*
X3250D01*
Y3713D01*
X3249D01*
Y3715D01*
X3248D01*
Y3716D01*
X3246D01*
Y3717D01*
X3245D01*
Y3718D01*
X3242D01*
Y3719D01*
X3241D01*
Y3720D01*
X3240D01*
Y3721D01*
X3238D01*
Y3723D01*
X3235D01*
Y3724D01*
X3234D01*
Y3725D01*
X3233D01*
Y3726D01*
X3231D01*
Y3727D01*
X3227D01*
Y3728D01*
X3225D01*
Y3729D01*
X3224D01*
Y3731D01*
X3220D01*
Y3732D01*
X3217D01*
Y3733D01*
X3216D01*
Y3734D01*
X3212D01*
Y3735D01*
X3207D01*
Y3736D01*
X3202D01*
Y3737D01*
X3197D01*
Y3738D01*
X3195D01*
Y3740D01*
X3185D01*
Y3741D01*
D02*
G37*
G36*
X3295Y3512D02*
X3284D01*
Y3511D01*
X3282D01*
Y3510D01*
X3281D01*
Y3509D01*
X3280D01*
Y3508D01*
X3279D01*
Y3507D01*
X3277D01*
Y3504D01*
X3276D01*
Y3503D01*
X3275D01*
Y3494D01*
X3276D01*
Y3492D01*
X3277D01*
Y3490D01*
X3279D01*
Y3489D01*
X3280D01*
Y3487D01*
X3281D01*
Y3486D01*
X3282D01*
Y3485D01*
X3283D01*
Y3484D01*
X3284D01*
Y3483D01*
X3285D01*
Y3482D01*
X3287D01*
Y3481D01*
X3288D01*
Y3479D01*
X3289D01*
Y3478D01*
X3290D01*
Y3477D01*
X3291D01*
Y3476D01*
X3292D01*
Y3475D01*
X3293D01*
Y3474D01*
X3295D01*
Y3473D01*
X3296D01*
Y3472D01*
X3297D01*
Y3470D01*
X3298D01*
Y3469D01*
X3299D01*
Y3468D01*
X3300D01*
Y3467D01*
X3301D01*
Y3466D01*
X3302D01*
Y3465D01*
X3304D01*
Y3464D01*
X3305D01*
Y3462D01*
X3308D01*
Y3461D01*
X3310D01*
Y3460D01*
X3315D01*
Y3461D01*
X3317D01*
Y3462D01*
X3320D01*
Y3464D01*
X3322D01*
Y3466D01*
X3324D01*
Y3468D01*
X3325D01*
Y3470D01*
X3326D01*
Y3473D01*
X3327D01*
Y3476D01*
X3326D01*
Y3478D01*
X3325D01*
Y3483D01*
X3324D01*
Y3484D01*
X3323D01*
Y3485D01*
X3322D01*
Y3486D01*
X3321D01*
Y3487D01*
X3320D01*
Y3489D01*
X3318D01*
Y3490D01*
X3317D01*
Y3491D01*
X3316D01*
Y3492D01*
X3315D01*
Y3493D01*
X3314D01*
Y3494D01*
X3313D01*
Y3495D01*
X3312D01*
Y3497D01*
X3310D01*
Y3498D01*
X3309D01*
Y3499D01*
X3308D01*
Y3500D01*
X3307D01*
Y3501D01*
X3306D01*
Y3502D01*
X3305D01*
Y3503D01*
X3302D01*
Y3506D01*
X3301D01*
Y3507D01*
X3300D01*
Y3508D01*
X3299D01*
Y3509D01*
X3298D01*
Y3510D01*
X3297D01*
Y3511D01*
X3295D01*
Y3512D01*
D02*
G37*
G36*
X3058D02*
X3049D01*
Y3511D01*
X3048D01*
Y3510D01*
X3046D01*
Y3509D01*
X3045D01*
Y3508D01*
X3043D01*
Y3507D01*
X3042D01*
Y3506D01*
X3041D01*
Y3504D01*
X3040D01*
Y3503D01*
X3039D01*
Y3502D01*
X3038D01*
Y3501D01*
X3037D01*
Y3500D01*
X3036D01*
Y3499D01*
X3034D01*
Y3498D01*
X3033D01*
Y3497D01*
X3032D01*
Y3495D01*
X3031D01*
Y3494D01*
X3030D01*
Y3493D01*
X3029D01*
Y3492D01*
X3028D01*
Y3491D01*
X3026D01*
Y3490D01*
X3025D01*
Y3489D01*
X3024D01*
Y3487D01*
X3023D01*
Y3486D01*
X3022D01*
Y3485D01*
X3021D01*
Y3484D01*
X3020D01*
Y3482D01*
X3018D01*
Y3481D01*
X3017D01*
Y3477D01*
X3016D01*
Y3474D01*
X3017D01*
Y3469D01*
X3018D01*
Y3468D01*
X3020D01*
Y3466D01*
X3021D01*
Y3465D01*
X3022D01*
Y3464D01*
X3024D01*
Y3462D01*
X3026D01*
Y3461D01*
X3029D01*
Y3460D01*
X3033D01*
Y3461D01*
X3036D01*
Y3462D01*
X3038D01*
Y3464D01*
X3040D01*
Y3465D01*
X3041D01*
Y3466D01*
X3042D01*
Y3467D01*
X3043D01*
Y3468D01*
X3045D01*
Y3469D01*
X3046D01*
Y3472D01*
X3048D01*
Y3473D01*
X3049D01*
Y3474D01*
X3050D01*
Y3475D01*
X3051D01*
Y3476D01*
X3053D01*
Y3477D01*
X3054D01*
Y3478D01*
X3055D01*
Y3481D01*
X3057D01*
Y3482D01*
X3058D01*
Y3483D01*
X3059D01*
Y3484D01*
X3060D01*
Y3485D01*
X3062D01*
Y3486D01*
X3063D01*
Y3487D01*
X3064D01*
Y3490D01*
X3066D01*
Y3492D01*
X3067D01*
Y3494D01*
X3068D01*
Y3497D01*
X3070D01*
Y3498D01*
X3068D01*
Y3499D01*
X3070D01*
Y3500D01*
X3068D01*
Y3502D01*
X3067D01*
Y3504D01*
X3066D01*
Y3507D01*
X3065D01*
Y3508D01*
X3064D01*
Y3509D01*
X3063D01*
Y3510D01*
X3060D01*
Y3511D01*
X3058D01*
Y3512D01*
D02*
G37*
G36*
X3176Y3464D02*
X3167D01*
Y3462D01*
X3165D01*
Y3461D01*
X3164D01*
Y3460D01*
X3163D01*
Y3459D01*
X3162D01*
Y3458D01*
X3159D01*
Y3454D01*
X3158D01*
Y3450D01*
X3157D01*
Y3416D01*
X3158D01*
Y3414D01*
X3159D01*
Y3409D01*
X3160D01*
Y3408D01*
X3162D01*
Y3407D01*
X3163D01*
Y3406D01*
X3164D01*
Y3404D01*
X3166D01*
Y3403D01*
X3167D01*
Y3402D01*
X3175D01*
Y3403D01*
X3178D01*
Y3404D01*
X3180D01*
Y3406D01*
X3181D01*
Y3407D01*
X3182D01*
Y3408D01*
X3183D01*
Y3409D01*
X3184D01*
Y3412D01*
X3185D01*
Y3456D01*
X3184D01*
Y3457D01*
X3183D01*
Y3459D01*
X3182D01*
Y3460D01*
X3181D01*
Y3461D01*
X3179D01*
Y3462D01*
X3176D01*
Y3464D01*
D02*
G37*
%LPD*%
D10*
X10963Y5313D02*
G03*
X10765Y4877I87J-303D01*
G01*
X11335D02*
G03*
X11137Y5313I-285J133D01*
G01*
X11335Y4862D02*
Y4876D01*
X10902Y4695D02*
X11198D01*
X10765Y4862D02*
Y4876D01*
X11688Y2222D02*
Y3238D01*
X12108D01*
Y2222D02*
Y3238D01*
X11688Y2222D02*
X12108D01*
X13060Y2232D02*
Y3248D01*
X12340Y2232D02*
X13060D01*
X12240D02*
X12340D01*
X12240D02*
Y3248D01*
X12340D01*
X13060D01*
X12340Y2232D02*
Y3248D01*
X1427Y4108D02*
X1847D01*
X1427Y3092D02*
Y4108D01*
Y3092D02*
X1847D01*
Y4108D01*
X11953Y1138D02*
Y1558D01*
Y1138D02*
X12969D01*
Y1558D01*
X11953D02*
X12969D01*
X10785Y1138D02*
Y1558D01*
Y1138D02*
X11801D01*
Y1558D01*
X10785D02*
X11801D01*
X9617Y1138D02*
Y1558D01*
Y1138D02*
X10633D01*
Y1558D01*
X9617D02*
X10633D01*
X8448Y1138D02*
Y1558D01*
Y1138D02*
X9464D01*
Y1558D01*
X8448D02*
X9464D01*
X7280Y1138D02*
Y1558D01*
Y1138D02*
X8296D01*
Y1558D01*
X7280D02*
X8296D01*
X6112Y1138D02*
Y1558D01*
Y1138D02*
X7128D01*
Y1558D01*
X6112D02*
X7128D01*
X3776Y1138D02*
Y1558D01*
Y1138D02*
X4792D01*
Y1558D01*
X3776D02*
X4792D01*
X2608Y1138D02*
Y1558D01*
Y1138D02*
X3624D01*
Y1558D01*
X2608D02*
X3624D01*
X1439Y1138D02*
Y1558D01*
Y1138D02*
X2455D01*
Y1558D01*
X1439D02*
X2455D01*
X271Y1138D02*
Y1558D01*
Y1138D02*
X1287D01*
Y1558D01*
X271D02*
X1287D01*
X4944Y1138D02*
Y1558D01*
Y1138D02*
X5960D01*
Y1558D01*
X4944D02*
X5960D01*
X1378Y7396D02*
X2394D01*
Y6676D02*
Y7396D01*
Y7496D01*
X1378D02*
X2394D01*
X1378Y7396D02*
Y7496D01*
Y6676D02*
Y7396D01*
Y6676D02*
X2394D01*
X2553Y7396D02*
X3569D01*
Y6676D02*
Y7396D01*
Y7496D01*
X2553D02*
X3569D01*
X2553Y7396D02*
Y7496D01*
Y6676D02*
Y7396D01*
Y6676D02*
X3569D01*
X3728Y7396D02*
X4744D01*
Y6676D02*
Y7396D01*
Y7496D01*
X3728D02*
X4744D01*
X3728Y7396D02*
Y7496D01*
Y6676D02*
Y7396D01*
Y6676D02*
X4744D01*
X4853Y7396D02*
X5869D01*
Y6676D02*
Y7396D01*
Y7496D01*
X4853D02*
X5869D01*
X4853Y7396D02*
Y7496D01*
Y6676D02*
Y7396D01*
Y6676D02*
X5869D01*
X6028Y7396D02*
X7044D01*
Y6676D02*
Y7396D01*
Y7496D01*
X6028D02*
X7044D01*
X6028Y7396D02*
Y7496D01*
Y6676D02*
Y7396D01*
Y6676D02*
X7044D01*
X7203Y7396D02*
X8219D01*
Y6676D02*
Y7396D01*
Y7496D01*
X7203D02*
X8219D01*
X7203Y7396D02*
Y7496D01*
Y6676D02*
Y7396D01*
Y6676D02*
X8219D01*
X8403Y7396D02*
X9419D01*
Y6676D02*
Y7396D01*
Y7496D01*
X8403D02*
X9419D01*
X8403Y7396D02*
Y7496D01*
Y6676D02*
Y7396D01*
Y6676D02*
X9419D01*
X9578Y7396D02*
X10594D01*
Y6676D02*
Y7396D01*
Y7496D01*
X9578D02*
X10594D01*
X9578Y7396D02*
Y7496D01*
Y6676D02*
Y7396D01*
Y6676D02*
X10594D01*
X10753Y7396D02*
X11769D01*
Y6676D02*
Y7396D01*
Y7496D01*
X10753D02*
X11769D01*
X10753Y7396D02*
Y7496D01*
Y6676D02*
Y7396D01*
Y6676D02*
X11769D01*
X11928Y7396D02*
X12944D01*
Y6676D02*
Y7396D01*
Y7496D01*
X11928D02*
X12944D01*
X11928Y7396D02*
Y7496D01*
Y6676D02*
Y7396D01*
Y6676D02*
X12944D01*
X1219Y5914D02*
Y6334D01*
X203D02*
X1219D01*
X203Y5914D02*
Y6334D01*
Y5914D02*
X1219D01*
X2437Y5914D02*
Y6334D01*
X1421D02*
X2437D01*
X1421Y5914D02*
Y6334D01*
Y5914D02*
X2437D01*
X3605D02*
Y6334D01*
X2589D02*
X3605D01*
X2589Y5914D02*
Y6334D01*
Y5914D02*
X3605D01*
X4773D02*
Y6334D01*
X3757D02*
X4773D01*
X3757Y5914D02*
Y6334D01*
Y5914D02*
X4773D01*
X5941D02*
Y6334D01*
X4925D02*
X5941D01*
X4925Y5914D02*
Y6334D01*
Y5914D02*
X5941D01*
X7110D02*
Y6334D01*
X6094D02*
X7110D01*
X6094Y5914D02*
Y6334D01*
Y5914D02*
X7110D01*
X8278D02*
Y6334D01*
X7262D02*
X8278D01*
X7262Y5914D02*
Y6334D01*
Y5914D02*
X8278D01*
X9446D02*
Y6334D01*
X8430D02*
X9446D01*
X8430Y5914D02*
Y6334D01*
Y5914D02*
X9446D01*
X10614D02*
Y6334D01*
X9598D02*
X10614D01*
X9598Y5914D02*
Y6334D01*
Y5914D02*
X10614D01*
X11782D02*
Y6334D01*
X10766D02*
X11782D01*
X10766Y5914D02*
Y6334D01*
Y5914D02*
X11782D01*
X12950D02*
Y6334D01*
X11934D02*
X12950D01*
X11934Y5914D02*
Y6334D01*
Y5914D02*
X12950D01*
X178Y7396D02*
X1194D01*
Y6676D02*
Y7396D01*
Y7496D01*
X178D02*
X1194D01*
X178Y7396D02*
Y7496D01*
Y6676D02*
Y7396D01*
Y6676D02*
X1194D01*
X785Y3242D02*
Y4258D01*
X65Y3242D02*
X785D01*
X885D01*
Y4258D01*
X785D02*
X885D01*
X65D02*
X785D01*
X65Y3242D02*
Y4258D01*
X11953Y151D02*
X12969D01*
X11953D02*
Y871D01*
Y51D02*
Y151D01*
Y51D02*
X12969D01*
Y151D01*
Y871D01*
X11953D02*
X12969D01*
X10803Y151D02*
X11819D01*
X10803D02*
Y871D01*
Y51D02*
Y151D01*
Y51D02*
X11819D01*
Y151D01*
Y871D01*
X10803D02*
X11819D01*
X9653Y151D02*
X10669D01*
X9653D02*
Y871D01*
Y51D02*
Y151D01*
Y51D02*
X10669D01*
Y151D01*
Y871D01*
X9653D02*
X10669D01*
X8453Y151D02*
X9469D01*
X8453D02*
Y871D01*
Y51D02*
Y151D01*
Y51D02*
X9469D01*
Y151D01*
Y871D01*
X8453D02*
X9469D01*
X7303Y151D02*
X8319D01*
X7303D02*
Y871D01*
Y51D02*
Y151D01*
Y51D02*
X8319D01*
Y151D01*
Y871D01*
X7303D02*
X8319D01*
X6103Y151D02*
X7119D01*
X6103D02*
Y871D01*
Y51D02*
Y151D01*
Y51D02*
X7119D01*
Y151D01*
Y871D01*
X6103D02*
X7119D01*
X271Y176D02*
X1287D01*
X271D02*
Y896D01*
Y76D02*
Y176D01*
Y76D02*
X1287D01*
Y176D01*
Y896D01*
X271D02*
X1287D01*
X4953Y871D02*
X5969D01*
Y151D02*
Y871D01*
Y51D02*
Y151D01*
X4953Y51D02*
X5969D01*
X4953D02*
Y151D01*
Y871D01*
Y151D02*
X5969D01*
X3803Y871D02*
X4819D01*
Y151D02*
Y871D01*
Y51D02*
Y151D01*
X3803Y51D02*
X4819D01*
X3803D02*
Y151D01*
Y871D01*
Y151D02*
X4819D01*
X2608Y871D02*
X3624D01*
Y151D02*
Y871D01*
Y51D02*
Y151D01*
X2608Y51D02*
X3624D01*
X2608D02*
Y151D01*
Y871D01*
Y151D02*
X3624D01*
X1453Y871D02*
X2469D01*
Y151D02*
Y871D01*
Y51D02*
Y151D01*
X1453Y51D02*
X2469D01*
X1453D02*
Y151D01*
Y871D01*
Y151D02*
X2469D01*
D11*
X10660Y4760D02*
G03*
X10660Y4760I-10J0D01*
G01*
X11970Y2147D02*
G03*
X11970Y2147I-10J0D01*
G01*
X1585Y4183D02*
G03*
X1585Y4183I-10J0D01*
G01*
X11888Y1286D02*
G03*
X11888Y1286I-10J0D01*
G01*
X10720D02*
G03*
X10720Y1286I-10J0D01*
G01*
X9552D02*
G03*
X9552Y1286I-10J0D01*
G01*
X8383D02*
G03*
X8383Y1286I-10J0D01*
G01*
X7215D02*
G03*
X7215Y1286I-10J0D01*
G01*
X6047D02*
G03*
X6047Y1286I-10J0D01*
G01*
X3711D02*
G03*
X3711Y1286I-10J0D01*
G01*
X2543D02*
G03*
X2543Y1286I-10J0D01*
G01*
X1374D02*
G03*
X1374Y1286I-10J0D01*
G01*
X206D02*
G03*
X206Y1286I-10J0D01*
G01*
X4879D02*
G03*
X4879Y1286I-10J0D01*
G01*
X1304Y6186D02*
G03*
X1304Y6186I-10J0D01*
G01*
X2522Y6186D02*
G03*
X2522Y6186I-10J0D01*
G01*
X3690D02*
G03*
X3690Y6186I-10J0D01*
G01*
X4858D02*
G03*
X4858Y6186I-10J0D01*
G01*
X6026D02*
G03*
X6026Y6186I-10J0D01*
G01*
X7195D02*
G03*
X7195Y6186I-10J0D01*
G01*
X8363D02*
G03*
X8363Y6186I-10J0D01*
G01*
X9531D02*
G03*
X9531Y6186I-10J0D01*
G01*
X10699D02*
G03*
X10699Y6186I-10J0D01*
G01*
X11867D02*
G03*
X11867Y6186I-10J0D01*
G01*
X13035D02*
G03*
X13035Y6186I-10J0D01*
G01*
X10613Y4123D02*
X11413D01*
Y4377D01*
X10613D02*
X11413D01*
X10613Y4123D02*
Y4377D01*
X10627Y3523D02*
X11427D01*
Y3777D01*
X10627D02*
X11427D01*
X10627Y3523D02*
Y3777D01*
X10740Y4503D02*
X10787D01*
X10763Y4527D02*
Y4480D01*
X11000Y4540D02*
Y4470D01*
X11035D01*
X11047Y4482D01*
Y4528D01*
X11035Y4540D01*
X11000D01*
X11260Y4500D02*
X11307D01*
X11250Y3370D02*
X11297D01*
X10990Y3410D02*
Y3340D01*
X11025D01*
X11037Y3352D01*
Y3398D01*
X11025Y3410D01*
X10990D01*
X10730Y3373D02*
X10777D01*
X10753Y3397D02*
Y3350D01*
X77Y3090D02*
Y3190D01*
X127D01*
X143Y3173D01*
Y3140D01*
X127Y3123D01*
X77D01*
X227Y3090D02*
Y3190D01*
X177Y3140D01*
X243D01*
D12*
X5035Y2657D02*
X10369D01*
Y4943D01*
X5035D02*
X10369D01*
X5035Y2657D02*
Y4943D01*
X4781Y3411D02*
X5289D01*
Y4181D01*
X4781D02*
X5289D01*
X4781Y3411D02*
Y4181D01*
D13*
X2323Y2950D02*
X2425D01*
X2095D02*
X2198D01*
X2323D01*
X2095D02*
Y3010D01*
X2425D01*
X2323Y3080D02*
X2425D01*
X2095D02*
X2198D01*
X2323D01*
X2095D02*
Y3140D01*
X2425D01*
X2323Y3210D02*
X2425D01*
X2095D02*
X2198D01*
X2323D01*
X2095D02*
Y3270D01*
X2425D01*
X2323Y3350D02*
X2425D01*
X2095D02*
X2198D01*
X2323D01*
X2095D02*
Y3410D01*
X2425D01*
X2323Y3490D02*
X2425D01*
X2095D02*
X2198D01*
X2323D01*
X2095D02*
Y3550D01*
X2425D01*
X2323Y3630D02*
X2425D01*
X2095D02*
X2198D01*
X2323D01*
X2095D02*
Y3690D01*
X2425D01*
X2323Y3770D02*
X2425D01*
X2095D02*
X2198D01*
X2323D01*
X2095D02*
Y3830D01*
X2425D01*
X2323Y3910D02*
X2425D01*
X2095D02*
X2198D01*
X2323D01*
X2095D02*
Y3970D01*
X2425D01*
X2323Y4050D02*
X2425D01*
X2095D02*
X2198D01*
X2323D01*
X2095D02*
Y4110D01*
X2425D01*
X2323Y4190D02*
X2425D01*
X2095D02*
X2198D01*
X2323D01*
X2095D02*
Y4250D01*
X2425D01*
X1335Y2910D02*
X1847D01*
Y4300D01*
X1320Y4353D02*
X2420D01*
X1320Y2850D02*
X2425D01*
Y4350D01*
X1320Y2895D02*
X1335Y2910D01*
X1320Y2850D02*
Y2895D01*
Y2850D02*
X1321Y2850D01*
X2420D01*
X1323Y4350D02*
X2425D01*
X1320Y4348D02*
X1323Y4350D01*
X1320Y4315D02*
Y4348D01*
X1335Y4300D02*
X1847D01*
X1320Y4315D02*
X1335Y4300D01*
X1320Y4315D02*
Y4349D01*
D14*
X3615Y2800D02*
X3590Y2775D01*
Y2725D01*
X3615Y2700D01*
X3640D01*
X3665Y2725D01*
Y2775D01*
X3690Y2800D01*
X3715D01*
X3740Y2775D01*
Y2725D01*
X3715Y2700D01*
X3590Y2850D02*
Y2950D01*
Y2900D01*
X3740D01*
X3590Y3100D02*
Y3000D01*
X3740D01*
Y3100D01*
X3665Y3000D02*
Y3050D01*
X3740Y3150D02*
X3590D01*
Y3225D01*
X3615Y3250D01*
X3665D01*
X3690Y3225D01*
Y3150D01*
X3615Y3550D02*
X3590Y3525D01*
Y3475D01*
X3615Y3450D01*
X3715D01*
X3740Y3475D01*
Y3525D01*
X3715Y3550D01*
X3590Y3675D02*
Y3625D01*
X3615Y3600D01*
X3715D01*
X3740Y3625D01*
Y3675D01*
X3715Y3700D01*
X3615D01*
X3590Y3675D01*
X3740Y3750D02*
X3590D01*
X3740Y3850D01*
X3590D01*
Y3900D02*
Y4000D01*
Y3950D01*
X3740D01*
Y4050D02*
X3590D01*
Y4125D01*
X3615Y4150D01*
X3665D01*
X3690Y4125D01*
Y4050D01*
Y4100D02*
X3740Y4150D01*
X3590Y4274D02*
Y4225D01*
X3615Y4200D01*
X3715D01*
X3740Y4225D01*
Y4274D01*
X3715Y4299D01*
X3615D01*
X3590Y4274D01*
Y4349D02*
X3740D01*
Y4449D01*
X3590Y4499D02*
X3740D01*
Y4599D01*
X3590Y4749D02*
Y4649D01*
X3740D01*
Y4749D01*
X3665Y4649D02*
Y4699D01*
X3740Y4799D02*
X3590D01*
Y4874D01*
X3615Y4899D01*
X3665D01*
X3690Y4874D01*
Y4799D01*
Y4849D02*
X3740Y4899D01*
D15*
X5073Y5110D02*
Y5027D01*
X5090Y5010D01*
X5123D01*
X5140Y5027D01*
Y5110D01*
X5173Y5010D02*
X5207D01*
X5190D01*
Y5110D01*
X5173Y5093D01*
X5340Y5020D02*
Y5147D01*
X5403D01*
X5425Y5126D01*
Y5083D01*
X5403Y5062D01*
X5340D01*
X5382D02*
X5425Y5020D01*
X5467D02*
Y5147D01*
X5530D01*
X5552Y5126D01*
Y5083D01*
X5530Y5062D01*
X5467D01*
X5594Y5147D02*
X5636D01*
X5615D01*
Y5020D01*
X5594D01*
X5636D01*
X5827D02*
Y5147D01*
X5890D01*
X5911Y5126D01*
Y5083D01*
X5890Y5062D01*
X5827D01*
X5954Y5147D02*
X5996D01*
X5975D01*
Y5020D01*
X5954D01*
X5996D01*
X6144Y5126D02*
X6123Y5147D01*
X6081D01*
X6059Y5126D01*
Y5041D01*
X6081Y5020D01*
X6123D01*
X6144Y5041D01*
X6250Y5147D02*
X6208D01*
X6186Y5126D01*
Y5041D01*
X6208Y5020D01*
X6250D01*
X6271Y5041D01*
Y5126D01*
X6250Y5147D01*
X10490Y3720D02*
X10457D01*
X10473D01*
Y3637D01*
X10457Y3620D01*
X10440D01*
X10423Y3637D01*
X10523Y3620D02*
X10557D01*
X10540D01*
Y3720D01*
X10523Y3703D01*
X12655Y3385D02*
Y3487D01*
X12605Y2106D02*
X12707D01*
X12656Y2157D02*
Y2055D01*
X10757Y5420D02*
Y5520D01*
X10807D01*
X10823Y5503D01*
Y5470D01*
X10807Y5453D01*
X10757D01*
X10790D02*
X10823Y5420D01*
X10857Y5520D02*
Y5453D01*
X10890Y5420D01*
X10923Y5453D01*
Y5520D01*
X11754Y3358D02*
Y3424D01*
X11737Y3441D01*
X11704D01*
X11687Y3424D01*
Y3358D01*
X11704Y3341D01*
X11737D01*
X11721Y3374D02*
X11754Y3341D01*
X11737D02*
X11754Y3358D01*
X11854Y3341D02*
X11787D01*
X11854Y3408D01*
Y3424D01*
X11837Y3441D01*
X11804D01*
X11787Y3424D01*
X11954Y3341D02*
X11887D01*
X11954Y3408D01*
Y3424D01*
X11937Y3441D01*
X11904D01*
X11887Y3424D01*
X12239Y3384D02*
Y3484D01*
X12289D01*
X12305Y3467D01*
Y3434D01*
X12289Y3417D01*
X12239D01*
X12405Y3384D02*
X12339D01*
X12405Y3451D01*
Y3467D01*
X12388Y3484D01*
X12355D01*
X12339Y3467D01*
X12488Y3384D02*
Y3484D01*
X12438Y3434D01*
X12505D01*
X11539Y4300D02*
X11506D01*
X11523D01*
Y4217D01*
X11506Y4200D01*
X11489D01*
X11473Y4217D01*
X11639Y4200D02*
X11573D01*
X11639Y4267D01*
Y4283D01*
X11623Y4300D01*
X11589D01*
X11573Y4283D01*
X1408Y4550D02*
Y4483D01*
X1442Y4450D01*
X1475Y4483D01*
Y4550D01*
X1508Y4450D02*
Y4550D01*
X1558D01*
X1575Y4533D01*
Y4500D01*
X1558Y4483D01*
X1508D01*
X1542D02*
X1575Y4450D01*
X1608D02*
X1642D01*
X1625D01*
Y4550D01*
X1608Y4533D01*
X290Y5737D02*
Y5803D01*
X273Y5820D01*
X240D01*
X223Y5803D01*
Y5737D01*
X240Y5720D01*
X273D01*
X257Y5753D02*
X290Y5720D01*
X273D02*
X290Y5737D01*
X390Y5720D02*
X323D01*
X390Y5787D01*
Y5803D01*
X373Y5820D01*
X340D01*
X323Y5803D01*
X423Y5720D02*
X457D01*
X440D01*
Y5820D01*
X423Y5803D01*
X1503Y5757D02*
Y5823D01*
X1487Y5840D01*
X1453D01*
X1437Y5823D01*
Y5757D01*
X1453Y5740D01*
X1487D01*
X1470Y5773D02*
X1503Y5740D01*
X1487D02*
X1503Y5757D01*
X1603Y5740D02*
X1537D01*
X1603Y5807D01*
Y5823D01*
X1587Y5840D01*
X1553D01*
X1537Y5823D01*
X1637D02*
X1653Y5840D01*
X1687D01*
X1703Y5823D01*
Y5757D01*
X1687Y5740D01*
X1653D01*
X1637Y5757D01*
Y5823D01*
X2682Y5767D02*
Y5833D01*
X2665Y5850D01*
X2632D01*
X2615Y5833D01*
Y5767D01*
X2632Y5750D01*
X2665D01*
X2648Y5783D02*
X2682Y5750D01*
X2665D02*
X2682Y5767D01*
X2715Y5750D02*
X2748D01*
X2732D01*
Y5850D01*
X2715Y5833D01*
X2798Y5767D02*
X2815Y5750D01*
X2848D01*
X2865Y5767D01*
Y5833D01*
X2848Y5850D01*
X2815D01*
X2798Y5833D01*
Y5817D01*
X2815Y5800D01*
X2865D01*
X3842Y5767D02*
Y5833D01*
X3825Y5850D01*
X3792D01*
X3775Y5833D01*
Y5767D01*
X3792Y5750D01*
X3825D01*
X3808Y5783D02*
X3842Y5750D01*
X3825D02*
X3842Y5767D01*
X3875Y5750D02*
X3908D01*
X3892D01*
Y5850D01*
X3875Y5833D01*
X3958D02*
X3975Y5850D01*
X4008D01*
X4025Y5833D01*
Y5817D01*
X4008Y5800D01*
X4025Y5783D01*
Y5767D01*
X4008Y5750D01*
X3975D01*
X3958Y5767D01*
Y5783D01*
X3975Y5800D01*
X3958Y5817D01*
Y5833D01*
X3975Y5800D02*
X4008D01*
X5002Y5757D02*
Y5823D01*
X4985Y5840D01*
X4952D01*
X4935Y5823D01*
Y5757D01*
X4952Y5740D01*
X4985D01*
X4968Y5773D02*
X5002Y5740D01*
X4985D02*
X5002Y5757D01*
X5035Y5740D02*
X5068D01*
X5052D01*
Y5840D01*
X5035Y5823D01*
X5118Y5840D02*
X5185D01*
Y5823D01*
X5118Y5757D01*
Y5740D01*
X6172Y5757D02*
Y5823D01*
X6155Y5840D01*
X6122D01*
X6105Y5823D01*
Y5757D01*
X6122Y5740D01*
X6155D01*
X6138Y5773D02*
X6172Y5740D01*
X6155D02*
X6172Y5757D01*
X6205Y5740D02*
X6238D01*
X6222D01*
Y5840D01*
X6205Y5823D01*
X6355Y5840D02*
X6322Y5823D01*
X6288Y5790D01*
Y5757D01*
X6305Y5740D01*
X6338D01*
X6355Y5757D01*
Y5773D01*
X6338Y5790D01*
X6288D01*
X7342Y5757D02*
Y5823D01*
X7325Y5840D01*
X7292D01*
X7275Y5823D01*
Y5757D01*
X7292Y5740D01*
X7325D01*
X7308Y5773D02*
X7342Y5740D01*
X7325D02*
X7342Y5757D01*
X7375Y5740D02*
X7408D01*
X7392D01*
Y5840D01*
X7375Y5823D01*
X7525Y5840D02*
X7458D01*
Y5790D01*
X7492Y5807D01*
X7508D01*
X7525Y5790D01*
Y5757D01*
X7508Y5740D01*
X7475D01*
X7458Y5757D01*
X8512D02*
Y5823D01*
X8495Y5840D01*
X8462D01*
X8445Y5823D01*
Y5757D01*
X8462Y5740D01*
X8495D01*
X8478Y5773D02*
X8512Y5740D01*
X8495D02*
X8512Y5757D01*
X8545Y5740D02*
X8578D01*
X8562D01*
Y5840D01*
X8545Y5823D01*
X8678Y5740D02*
Y5840D01*
X8628Y5790D01*
X8695D01*
X9682Y5757D02*
Y5823D01*
X9665Y5840D01*
X9632D01*
X9615Y5823D01*
Y5757D01*
X9632Y5740D01*
X9665D01*
X9648Y5773D02*
X9682Y5740D01*
X9665D02*
X9682Y5757D01*
X9715Y5740D02*
X9748D01*
X9732D01*
Y5840D01*
X9715Y5823D01*
X9798D02*
X9815Y5840D01*
X9848D01*
X9865Y5823D01*
Y5807D01*
X9848Y5790D01*
X9832D01*
X9848D01*
X9865Y5773D01*
Y5757D01*
X9848Y5740D01*
X9815D01*
X9798Y5757D01*
X10852Y5747D02*
Y5813D01*
X10835Y5830D01*
X10802D01*
X10785Y5813D01*
Y5747D01*
X10802Y5730D01*
X10835D01*
X10818Y5763D02*
X10852Y5730D01*
X10835D02*
X10852Y5747D01*
X10885Y5730D02*
X10918D01*
X10902D01*
Y5830D01*
X10885Y5813D01*
X11035Y5730D02*
X10968D01*
X11035Y5797D01*
Y5813D01*
X11018Y5830D01*
X10985D01*
X10968Y5813D01*
X12018Y5757D02*
Y5823D01*
X12002Y5840D01*
X11968D01*
X11952Y5823D01*
Y5757D01*
X11968Y5740D01*
X12002D01*
X11985Y5773D02*
X12018Y5740D01*
X12002D02*
X12018Y5757D01*
X12052Y5740D02*
X12085D01*
X12068D01*
Y5840D01*
X12052Y5823D01*
X12135Y5740D02*
X12168D01*
X12152D01*
Y5840D01*
X12135Y5823D01*
X12773Y1657D02*
Y1723D01*
X12757Y1740D01*
X12723D01*
X12707Y1723D01*
Y1657D01*
X12723Y1640D01*
X12757D01*
X12740Y1673D02*
X12773Y1640D01*
X12757D02*
X12773Y1657D01*
X12873Y1640D02*
X12807D01*
X12873Y1707D01*
Y1723D01*
X12857Y1740D01*
X12823D01*
X12807Y1723D01*
X12957Y1640D02*
Y1740D01*
X12907Y1690D01*
X12973D01*
X11612Y1667D02*
Y1733D01*
X11595Y1750D01*
X11562D01*
X11545Y1733D01*
Y1667D01*
X11562Y1650D01*
X11595D01*
X11578Y1683D02*
X11612Y1650D01*
X11595D02*
X11612Y1667D01*
X11645Y1650D02*
X11678D01*
X11662D01*
Y1750D01*
X11645Y1733D01*
X11728D02*
X11745Y1750D01*
X11778D01*
X11795Y1733D01*
Y1667D01*
X11778Y1650D01*
X11745D01*
X11728Y1667D01*
Y1733D01*
X10523Y1677D02*
Y1743D01*
X10507Y1760D01*
X10473D01*
X10457Y1743D01*
Y1677D01*
X10473Y1660D01*
X10507D01*
X10490Y1693D02*
X10523Y1660D01*
X10507D02*
X10523Y1677D01*
X10557D02*
X10573Y1660D01*
X10607D01*
X10623Y1677D01*
Y1743D01*
X10607Y1760D01*
X10573D01*
X10557Y1743D01*
Y1727D01*
X10573Y1710D01*
X10623D01*
X9353Y1657D02*
Y1723D01*
X9337Y1740D01*
X9303D01*
X9287Y1723D01*
Y1657D01*
X9303Y1640D01*
X9337D01*
X9320Y1673D02*
X9353Y1640D01*
X9337D02*
X9353Y1657D01*
X9387Y1723D02*
X9403Y1740D01*
X9437D01*
X9453Y1723D01*
Y1707D01*
X9437Y1690D01*
X9453Y1673D01*
Y1657D01*
X9437Y1640D01*
X9403D01*
X9387Y1657D01*
Y1673D01*
X9403Y1690D01*
X9387Y1707D01*
Y1723D01*
X9403Y1690D02*
X9437D01*
X8183Y1657D02*
Y1723D01*
X8167Y1740D01*
X8133D01*
X8117Y1723D01*
Y1657D01*
X8133Y1640D01*
X8167D01*
X8150Y1673D02*
X8183Y1640D01*
X8167D02*
X8183Y1657D01*
X8217Y1740D02*
X8283D01*
Y1723D01*
X8217Y1657D01*
Y1640D01*
X7023Y1657D02*
Y1723D01*
X7007Y1740D01*
X6973D01*
X6957Y1723D01*
Y1657D01*
X6973Y1640D01*
X7007D01*
X6990Y1673D02*
X7023Y1640D01*
X7007D02*
X7023Y1657D01*
X7123Y1740D02*
X7090Y1723D01*
X7057Y1690D01*
Y1657D01*
X7073Y1640D01*
X7107D01*
X7123Y1657D01*
Y1673D01*
X7107Y1690D01*
X7057D01*
X5833Y1667D02*
Y1733D01*
X5817Y1750D01*
X5783D01*
X5767Y1733D01*
Y1667D01*
X5783Y1650D01*
X5817D01*
X5800Y1683D02*
X5833Y1650D01*
X5817D02*
X5833Y1667D01*
X5933Y1750D02*
X5867D01*
Y1700D01*
X5900Y1717D01*
X5917D01*
X5933Y1700D01*
Y1667D01*
X5917Y1650D01*
X5883D01*
X5867Y1667D01*
X4673D02*
Y1733D01*
X4657Y1750D01*
X4623D01*
X4607Y1733D01*
Y1667D01*
X4623Y1650D01*
X4657D01*
X4640Y1683D02*
X4673Y1650D01*
X4657D02*
X4673Y1667D01*
X4757Y1650D02*
Y1750D01*
X4707Y1700D01*
X4773D01*
X3513Y1667D02*
Y1733D01*
X3497Y1750D01*
X3463D01*
X3447Y1733D01*
Y1667D01*
X3463Y1650D01*
X3497D01*
X3480Y1683D02*
X3513Y1650D01*
X3497D02*
X3513Y1667D01*
X3547Y1733D02*
X3563Y1750D01*
X3597D01*
X3613Y1733D01*
Y1717D01*
X3597Y1700D01*
X3580D01*
X3597D01*
X3613Y1683D01*
Y1667D01*
X3597Y1650D01*
X3563D01*
X3547Y1667D01*
X2343D02*
Y1733D01*
X2327Y1750D01*
X2293D01*
X2277Y1733D01*
Y1667D01*
X2293Y1650D01*
X2327D01*
X2310Y1683D02*
X2343Y1650D01*
X2327D02*
X2343Y1667D01*
X2443Y1650D02*
X2377D01*
X2443Y1717D01*
Y1733D01*
X2427Y1750D01*
X2393D01*
X2377Y1733D01*
X1210Y1677D02*
Y1743D01*
X1193Y1760D01*
X1160D01*
X1143Y1743D01*
Y1677D01*
X1160Y1660D01*
X1193D01*
X1177Y1693D02*
X1210Y1660D01*
X1193D02*
X1210Y1677D01*
X1243Y1660D02*
X1277D01*
X1260D01*
Y1760D01*
X1243Y1743D01*
X1015Y6505D02*
X913D01*
X495Y6514D02*
X393D01*
X444Y6463D02*
Y6565D01*
X2215Y6505D02*
X2113D01*
X1695Y6514D02*
X1593D01*
X1644Y6463D02*
Y6565D01*
X3385Y6495D02*
X3283D01*
X2865Y6504D02*
X2763D01*
X2814Y6453D02*
Y6555D01*
X4575Y6495D02*
X4473D01*
X4055Y6504D02*
X3953D01*
X4004Y6453D02*
Y6555D01*
X5695Y6495D02*
X5593D01*
X5175Y6504D02*
X5073D01*
X5124Y6453D02*
Y6555D01*
X6875Y6505D02*
X6773D01*
X6355Y6514D02*
X6253D01*
X6304Y6463D02*
Y6565D01*
X7505Y6534D02*
X7403D01*
X7454Y6483D02*
Y6585D01*
X8025Y6525D02*
X7923D01*
X8715Y6534D02*
X8613D01*
X8664Y6483D02*
Y6585D01*
X9215Y6525D02*
X9113D01*
X9875Y6524D02*
X9773D01*
X9824Y6473D02*
Y6575D01*
X10375Y6515D02*
X10273D01*
X11075Y6504D02*
X10973D01*
X11024Y6453D02*
Y6555D01*
X11575Y6495D02*
X11473D01*
X12245Y6514D02*
X12143D01*
X12194Y6463D02*
Y6565D01*
X12715Y6505D02*
X12613D01*
X12635Y976D02*
X12737D01*
X12686Y1027D02*
Y925D01*
X12165Y985D02*
X12267D01*
X11485Y996D02*
X11587D01*
X11536Y1047D02*
Y945D01*
X11015Y1005D02*
X11117D01*
X10335Y996D02*
X10437D01*
X10386Y1047D02*
Y945D01*
X9865Y1005D02*
X9967D01*
X9125Y986D02*
X9227D01*
X9176Y1037D02*
Y935D01*
X8655Y995D02*
X8757D01*
X7995Y1006D02*
X8097D01*
X8046Y1057D02*
Y955D01*
X7525Y1015D02*
X7627D01*
X6785Y996D02*
X6887D01*
X6836Y1047D02*
Y945D01*
X6315Y1005D02*
X6417D01*
X5665Y1006D02*
X5767D01*
X5716Y1057D02*
Y955D01*
X5195Y1015D02*
X5297D01*
X4475Y1006D02*
X4577D01*
X4526Y1057D02*
Y955D01*
X4005Y1015D02*
X4107D01*
X3285Y1006D02*
X3387D01*
X3336Y1057D02*
Y955D01*
X2815Y1015D02*
X2917D01*
X2155Y1006D02*
X2257D01*
X2206Y1057D02*
Y955D01*
X1685Y1015D02*
X1787D01*
X505D02*
X607D01*
X975Y1006D02*
X1077D01*
X1026Y1057D02*
Y955D01*
D16*
X12243Y2007D02*
X12210Y2040D01*
X12143D01*
X12110Y2007D01*
Y1973D01*
X12143Y1940D01*
X12210D01*
X12243Y1907D01*
Y1873D01*
X12210Y1840D01*
X12143D01*
X12110Y1873D01*
X12310Y1840D02*
X12377D01*
X12343D01*
Y2040D01*
X12310Y2007D01*
X12477Y1840D02*
X12543D01*
X12510D01*
Y2040D01*
X12477Y2007D01*
X773Y1977D02*
X740Y2010D01*
X673D01*
X640Y1977D01*
Y1943D01*
X673Y1910D01*
X740D01*
X773Y1877D01*
Y1843D01*
X740Y1810D01*
X673D01*
X640Y1843D01*
X840Y1810D02*
X907D01*
X873D01*
Y2010D01*
X840Y1977D01*
X1903D02*
X1870Y2010D01*
X1803D01*
X1770Y1977D01*
Y1943D01*
X1803Y1910D01*
X1870D01*
X1903Y1877D01*
Y1843D01*
X1870Y1810D01*
X1803D01*
X1770Y1843D01*
X2103Y1810D02*
X1970D01*
X2103Y1943D01*
Y1977D01*
X2070Y2010D01*
X2003D01*
X1970Y1977D01*
X3053Y1967D02*
X3020Y2000D01*
X2953D01*
X2920Y1967D01*
Y1933D01*
X2953Y1900D01*
X3020D01*
X3053Y1867D01*
Y1833D01*
X3020Y1800D01*
X2953D01*
X2920Y1833D01*
X3120Y1967D02*
X3153Y2000D01*
X3220D01*
X3253Y1967D01*
Y1933D01*
X3220Y1900D01*
X3187D01*
X3220D01*
X3253Y1867D01*
Y1833D01*
X3220Y1800D01*
X3153D01*
X3120Y1833D01*
X4233Y2037D02*
X4200Y2070D01*
X4133D01*
X4100Y2037D01*
Y2003D01*
X4133Y1970D01*
X4200D01*
X4233Y1937D01*
Y1903D01*
X4200Y1870D01*
X4133D01*
X4100Y1903D01*
X4400Y1870D02*
Y2070D01*
X4300Y1970D01*
X4433D01*
X5393Y1987D02*
X5360Y2020D01*
X5293D01*
X5260Y1987D01*
Y1953D01*
X5293Y1920D01*
X5360D01*
X5393Y1887D01*
Y1853D01*
X5360Y1820D01*
X5293D01*
X5260Y1853D01*
X5593Y2020D02*
X5460D01*
Y1920D01*
X5527Y1953D01*
X5560D01*
X5593Y1920D01*
Y1853D01*
X5560Y1820D01*
X5493D01*
X5460Y1853D01*
X6563Y1997D02*
X6530Y2030D01*
X6463D01*
X6430Y1997D01*
Y1963D01*
X6463Y1930D01*
X6530D01*
X6563Y1897D01*
Y1863D01*
X6530Y1830D01*
X6463D01*
X6430Y1863D01*
X6763Y2030D02*
X6697Y1997D01*
X6630Y1930D01*
Y1863D01*
X6663Y1830D01*
X6730D01*
X6763Y1863D01*
Y1897D01*
X6730Y1930D01*
X6630D01*
X7763Y2017D02*
X7730Y2050D01*
X7663D01*
X7630Y2017D01*
Y1983D01*
X7663Y1950D01*
X7730D01*
X7763Y1917D01*
Y1883D01*
X7730Y1850D01*
X7663D01*
X7630Y1883D01*
X7830Y2050D02*
X7963D01*
Y2017D01*
X7830Y1883D01*
Y1850D01*
X8893Y2057D02*
X8860Y2090D01*
X8793D01*
X8760Y2057D01*
Y2023D01*
X8793Y1990D01*
X8860D01*
X8893Y1957D01*
Y1923D01*
X8860Y1890D01*
X8793D01*
X8760Y1923D01*
X8960Y2057D02*
X8993Y2090D01*
X9060D01*
X9093Y2057D01*
Y2023D01*
X9060Y1990D01*
X9093Y1957D01*
Y1923D01*
X9060Y1890D01*
X8993D01*
X8960Y1923D01*
Y1957D01*
X8993Y1990D01*
X8960Y2023D01*
Y2057D01*
X8993Y1990D02*
X9060D01*
X10053Y2017D02*
X10020Y2050D01*
X9953D01*
X9920Y2017D01*
Y1983D01*
X9953Y1950D01*
X10020D01*
X10053Y1917D01*
Y1883D01*
X10020Y1850D01*
X9953D01*
X9920Y1883D01*
X10120D02*
X10153Y1850D01*
X10220D01*
X10253Y1883D01*
Y2017D01*
X10220Y2050D01*
X10153D01*
X10120Y2017D01*
Y1983D01*
X10153Y1950D01*
X10253D01*
X11123Y2007D02*
X11090Y2040D01*
X11023D01*
X10990Y2007D01*
Y1973D01*
X11023Y1940D01*
X11090D01*
X11123Y1907D01*
Y1873D01*
X11090Y1840D01*
X11023D01*
X10990Y1873D01*
X11190Y1840D02*
X11257D01*
X11223D01*
Y2040D01*
X11190Y2007D01*
X11357D02*
X11390Y2040D01*
X11457D01*
X11490Y2007D01*
Y1873D01*
X11457Y1840D01*
X11390D01*
X11357Y1873D01*
Y2007D01*
X867Y5463D02*
X900Y5430D01*
X967D01*
X1000Y5463D01*
Y5497D01*
X967Y5530D01*
X900D01*
X867Y5563D01*
Y5597D01*
X900Y5630D01*
X967D01*
X1000Y5597D01*
X667Y5630D02*
X800D01*
X667Y5497D01*
Y5463D01*
X700Y5430D01*
X767D01*
X800Y5463D01*
X600D02*
X567Y5430D01*
X500D01*
X467Y5463D01*
Y5497D01*
X500Y5530D01*
X533D01*
X500D01*
X467Y5563D01*
Y5597D01*
X500Y5630D01*
X567D01*
X600Y5597D01*
X2107Y5463D02*
X2140Y5430D01*
X2207D01*
X2240Y5463D01*
Y5497D01*
X2207Y5530D01*
X2140D01*
X2107Y5563D01*
Y5597D01*
X2140Y5630D01*
X2207D01*
X2240Y5597D01*
X1907Y5630D02*
X2040D01*
X1907Y5497D01*
Y5463D01*
X1940Y5430D01*
X2007D01*
X2040Y5463D01*
X1707Y5630D02*
X1840D01*
X1707Y5497D01*
Y5463D01*
X1740Y5430D01*
X1807D01*
X1840Y5463D01*
X3227D02*
X3260Y5430D01*
X3327D01*
X3360Y5463D01*
Y5497D01*
X3327Y5530D01*
X3260D01*
X3227Y5563D01*
Y5597D01*
X3260Y5630D01*
X3327D01*
X3360Y5597D01*
X3027Y5630D02*
X3160D01*
X3027Y5497D01*
Y5463D01*
X3060Y5430D01*
X3127D01*
X3160Y5463D01*
X2960Y5630D02*
X2893D01*
X2927D01*
Y5430D01*
X2960Y5463D01*
X4457D02*
X4490Y5430D01*
X4557D01*
X4590Y5463D01*
Y5497D01*
X4557Y5530D01*
X4490D01*
X4457Y5563D01*
Y5597D01*
X4490Y5630D01*
X4557D01*
X4590Y5597D01*
X4257Y5630D02*
X4390D01*
X4257Y5497D01*
Y5463D01*
X4290Y5430D01*
X4357D01*
X4390Y5463D01*
X4190D02*
X4157Y5430D01*
X4090D01*
X4057Y5463D01*
Y5597D01*
X4090Y5630D01*
X4157D01*
X4190Y5597D01*
Y5463D01*
X5567D02*
X5600Y5430D01*
X5667D01*
X5700Y5463D01*
Y5497D01*
X5667Y5530D01*
X5600D01*
X5567Y5563D01*
Y5597D01*
X5600Y5630D01*
X5667D01*
X5700Y5597D01*
X5500Y5630D02*
X5433D01*
X5467D01*
Y5430D01*
X5500Y5463D01*
X5333Y5597D02*
X5300Y5630D01*
X5233D01*
X5200Y5597D01*
Y5463D01*
X5233Y5430D01*
X5300D01*
X5333Y5463D01*
Y5497D01*
X5300Y5530D01*
X5200D01*
X6737Y5463D02*
X6770Y5430D01*
X6837D01*
X6870Y5463D01*
Y5497D01*
X6837Y5530D01*
X6770D01*
X6737Y5563D01*
Y5597D01*
X6770Y5630D01*
X6837D01*
X6870Y5597D01*
X6670Y5630D02*
X6603D01*
X6637D01*
Y5430D01*
X6670Y5463D01*
X6503D02*
X6470Y5430D01*
X6403D01*
X6370Y5463D01*
Y5497D01*
X6403Y5530D01*
X6370Y5563D01*
Y5597D01*
X6403Y5630D01*
X6470D01*
X6503Y5597D01*
Y5563D01*
X6470Y5530D01*
X6503Y5497D01*
Y5463D01*
X6470Y5530D02*
X6403D01*
X7907Y5463D02*
X7940Y5430D01*
X8007D01*
X8040Y5463D01*
Y5497D01*
X8007Y5530D01*
X7940D01*
X7907Y5563D01*
Y5597D01*
X7940Y5630D01*
X8007D01*
X8040Y5597D01*
X7840Y5630D02*
X7773D01*
X7807D01*
Y5430D01*
X7840Y5463D01*
X7673Y5430D02*
X7540D01*
Y5463D01*
X7673Y5597D01*
Y5630D01*
X9077Y5463D02*
X9110Y5430D01*
X9177D01*
X9210Y5463D01*
Y5497D01*
X9177Y5530D01*
X9110D01*
X9077Y5563D01*
Y5597D01*
X9110Y5630D01*
X9177D01*
X9210Y5597D01*
X9010Y5630D02*
X8943D01*
X8977D01*
Y5430D01*
X9010Y5463D01*
X8710Y5430D02*
X8777Y5463D01*
X8843Y5530D01*
Y5597D01*
X8810Y5630D01*
X8743D01*
X8710Y5597D01*
Y5563D01*
X8743Y5530D01*
X8843D01*
X10277Y5463D02*
X10310Y5430D01*
X10377D01*
X10410Y5463D01*
Y5497D01*
X10377Y5530D01*
X10310D01*
X10277Y5563D01*
Y5597D01*
X10310Y5630D01*
X10377D01*
X10410Y5597D01*
X10210Y5630D02*
X10143D01*
X10177D01*
Y5430D01*
X10210Y5463D01*
X9910Y5430D02*
X10043D01*
Y5530D01*
X9977Y5497D01*
X9943D01*
X9910Y5530D01*
Y5597D01*
X9943Y5630D01*
X10010D01*
X10043Y5597D01*
X11437Y5553D02*
X11470Y5520D01*
X11537D01*
X11570Y5553D01*
Y5587D01*
X11537Y5620D01*
X11470D01*
X11437Y5653D01*
Y5687D01*
X11470Y5720D01*
X11537D01*
X11570Y5687D01*
X11370Y5720D02*
X11303D01*
X11337D01*
Y5520D01*
X11370Y5553D01*
X11103Y5720D02*
Y5520D01*
X11203Y5620D01*
X11070D01*
X12587Y5483D02*
X12620Y5450D01*
X12687D01*
X12720Y5483D01*
Y5517D01*
X12687Y5550D01*
X12620D01*
X12587Y5583D01*
Y5617D01*
X12620Y5650D01*
X12687D01*
X12720Y5617D01*
X12520Y5650D02*
X12453D01*
X12487D01*
Y5450D01*
X12520Y5483D01*
X12353D02*
X12320Y5450D01*
X12253D01*
X12220Y5483D01*
Y5517D01*
X12253Y5550D01*
X12287D01*
X12253D01*
X12220Y5583D01*
Y5617D01*
X12253Y5650D01*
X12320D01*
X12353Y5617D01*
X11353Y2673D02*
X11320Y2640D01*
Y2573D01*
X11353Y2540D01*
X11387D01*
X11420Y2573D01*
Y2640D01*
X11453Y2673D01*
X11487D01*
X11520Y2640D01*
Y2573D01*
X11487Y2540D01*
X11520Y2740D02*
Y2807D01*
Y2773D01*
X11320D01*
X11353Y2740D01*
X11520Y3040D02*
Y2907D01*
X11387Y3040D01*
X11353D01*
X11320Y3007D01*
Y2940D01*
X11353Y2907D01*
M02*
