G04*
G04 #@! TF.GenerationSoftware,Altium Limited,Altium Designer,22.5.1 (42)*
G04*
G04 Layer_Color=128*
%FSLAX42Y42*%
%MOMM*%
G71*
G04*
G04 #@! TF.SameCoordinates,49A84A85-C09A-4E6C-912C-EF7BF64B6CC2*
G04*
G04*
G04 #@! TF.FilePolarity,Positive*
G04*
G01*
G75*
%ADD55C,0.05*%
D55*
X5239Y2911D02*
X5339D01*
X5289Y2861D02*
Y2961D01*
X5493Y2911D02*
X5593D01*
X5543Y2861D02*
Y2961D01*
X5747Y2911D02*
X5847D01*
X5797Y2861D02*
Y2961D01*
X6001Y2911D02*
X6101D01*
X6051Y2861D02*
Y2961D01*
X6255Y2911D02*
X6355D01*
X6305Y2861D02*
Y2961D01*
X6509Y2911D02*
X6609D01*
X6559Y2861D02*
Y2961D01*
X6763Y2911D02*
X6863D01*
X6813Y2861D02*
Y2961D01*
X7017Y2911D02*
X7117D01*
X7067Y2861D02*
Y2961D01*
X7271Y2911D02*
X7371D01*
X7321Y2861D02*
Y2961D01*
X7525Y2911D02*
X7625D01*
X7575Y2861D02*
Y2961D01*
X7779Y2911D02*
X7879D01*
X7829Y2861D02*
Y2961D01*
X8033Y2911D02*
X8133D01*
X8083Y2861D02*
Y2961D01*
X8287Y2911D02*
X8387D01*
X8337Y2861D02*
Y2961D01*
X8541Y2911D02*
X8641D01*
X8591Y2861D02*
Y2961D01*
X8795Y2911D02*
X8895D01*
X8845Y2861D02*
Y2961D01*
X9049Y2911D02*
X9149D01*
X9099Y2861D02*
Y2961D01*
X9303Y2911D02*
X9403D01*
X9353Y2861D02*
Y2961D01*
X9557Y2911D02*
X9657D01*
X9607Y2861D02*
Y2961D01*
X9811Y2911D02*
X9911D01*
X9861Y2861D02*
Y2961D01*
X10065Y2911D02*
X10165D01*
X10115Y2861D02*
Y2961D01*
X5239Y4689D02*
X5339D01*
X5289Y4639D02*
Y4739D01*
X5493Y4689D02*
X5593D01*
X5543Y4639D02*
Y4739D01*
X5747Y4689D02*
X5847D01*
X5797Y4639D02*
Y4739D01*
X6001Y4689D02*
X6101D01*
X6051Y4639D02*
Y4739D01*
X6255Y4689D02*
X6355D01*
X6305Y4639D02*
Y4739D01*
X6509Y4689D02*
X6609D01*
X6559Y4639D02*
Y4739D01*
X6763Y4689D02*
X6863D01*
X6813Y4639D02*
Y4739D01*
X7017Y4689D02*
X7117D01*
X7067Y4639D02*
Y4739D01*
X7271Y4689D02*
X7371D01*
X7321Y4639D02*
Y4739D01*
X7525Y4689D02*
X7625D01*
X7575Y4639D02*
Y4739D01*
X7779Y4689D02*
X7879D01*
X7829Y4639D02*
Y4739D01*
X8033Y4689D02*
X8133D01*
X8083Y4639D02*
Y4739D01*
X8287Y4689D02*
X8387D01*
X8337Y4639D02*
Y4739D01*
X8541Y4689D02*
X8641D01*
X8591Y4639D02*
Y4739D01*
X8795Y4689D02*
X8895D01*
X8845Y4639D02*
Y4739D01*
X9049Y4689D02*
X9149D01*
X9099Y4639D02*
Y4739D01*
X9303Y4689D02*
X9403D01*
X9353Y4639D02*
Y4739D01*
X9557Y4689D02*
X9657D01*
X9607Y4639D02*
Y4739D01*
X9811Y4689D02*
X9911D01*
X9861Y4639D02*
Y4739D01*
X10065Y4689D02*
X10165D01*
X10115Y4639D02*
Y4739D01*
X10925Y5010D02*
X11175D01*
X11050Y4885D02*
Y5135D01*
X11255Y4760D02*
X11345D01*
X11300Y4715D02*
Y4805D01*
X11005Y5260D02*
X11095D01*
X11050Y5215D02*
Y5305D01*
X10755Y4760D02*
X10845D01*
X10800Y4715D02*
Y4805D01*
X11893Y2476D02*
X12026D01*
X11960Y2409D02*
Y2542D01*
X11893Y2730D02*
X12026D01*
X11960Y2664D02*
Y2797D01*
X11893Y2984D02*
X12026D01*
X11960Y2917D02*
Y3050D01*
X12595Y2994D02*
X12705D01*
X12650Y2939D02*
Y3049D01*
X12595Y2486D02*
X12705D01*
X12650Y2431D02*
Y2541D01*
X10955Y4250D02*
X11065D01*
X11010Y4195D02*
Y4305D01*
X10701Y4250D02*
X10811D01*
X10756Y4195D02*
Y4305D01*
X11209Y4250D02*
X11319D01*
X11264Y4195D02*
Y4305D01*
X10969Y3650D02*
X11079D01*
X11024Y3595D02*
Y3705D01*
X10715Y3650D02*
X10825D01*
X10770Y3595D02*
Y3705D01*
X11223Y3650D02*
X11333D01*
X11278Y3595D02*
Y3705D01*
X1509Y3346D02*
X1642D01*
X1575Y3279D02*
Y3412D01*
X1509Y3600D02*
X1642D01*
X1575Y3533D02*
Y3667D01*
X1509Y3854D02*
X1642D01*
X1575Y3788D02*
Y3921D01*
X12648Y1286D02*
X12781D01*
X12715Y1219D02*
Y1352D01*
X12394Y1286D02*
X12527D01*
X12461Y1219D02*
Y1352D01*
X12140Y1286D02*
X12273D01*
X12207Y1219D02*
Y1352D01*
X11480Y1286D02*
X11613D01*
X11547Y1219D02*
Y1352D01*
X11226Y1286D02*
X11359D01*
X11293Y1219D02*
Y1352D01*
X10972Y1286D02*
X11105D01*
X11039Y1219D02*
Y1352D01*
X10312Y1286D02*
X10445D01*
X10379Y1219D02*
Y1352D01*
X10058Y1286D02*
X10191D01*
X10125Y1219D02*
Y1352D01*
X9804Y1286D02*
X9937D01*
X9871Y1219D02*
Y1352D01*
X9144Y1286D02*
X9277D01*
X9210Y1219D02*
Y1352D01*
X8890Y1286D02*
X9023D01*
X8956Y1219D02*
Y1352D01*
X8636Y1286D02*
X8769D01*
X8702Y1219D02*
Y1352D01*
X7976Y1286D02*
X8109D01*
X8042Y1219D02*
Y1352D01*
X7722Y1286D02*
X7855D01*
X7788Y1219D02*
Y1352D01*
X7468Y1286D02*
X7601D01*
X7534Y1219D02*
Y1352D01*
X6808Y1286D02*
X6941D01*
X6874Y1219D02*
Y1352D01*
X6554Y1286D02*
X6687D01*
X6620Y1219D02*
Y1352D01*
X6300Y1286D02*
X6433D01*
X6366Y1219D02*
Y1352D01*
X4471Y1286D02*
X4604D01*
X4538Y1219D02*
Y1352D01*
X4217Y1286D02*
X4350D01*
X4284Y1219D02*
Y1352D01*
X3963Y1286D02*
X4096D01*
X4030Y1219D02*
Y1352D01*
X3303Y1286D02*
X3436D01*
X3370Y1219D02*
Y1352D01*
X3049Y1286D02*
X3182D01*
X3116Y1219D02*
Y1352D01*
X2795Y1286D02*
X2928D01*
X2862Y1219D02*
Y1352D01*
X2135Y1286D02*
X2268D01*
X2201Y1219D02*
Y1352D01*
X1881Y1286D02*
X2014D01*
X1947Y1219D02*
Y1352D01*
X1627Y1286D02*
X1760D01*
X1693Y1219D02*
Y1352D01*
X967Y1286D02*
X1100D01*
X1033Y1219D02*
Y1352D01*
X713Y1286D02*
X846D01*
X779Y1219D02*
Y1352D01*
X459Y1286D02*
X592D01*
X525Y1219D02*
Y1352D01*
X5639Y1286D02*
X5772D01*
X5706Y1219D02*
Y1352D01*
X5385Y1286D02*
X5518D01*
X5452Y1219D02*
Y1352D01*
X5131Y1286D02*
X5264D01*
X5198Y1219D02*
Y1352D01*
X1577Y7086D02*
X1687D01*
X1632Y7031D02*
Y7141D01*
X2085Y7086D02*
X2195D01*
X2140Y7031D02*
Y7141D01*
X2752Y7086D02*
X2862D01*
X2807Y7031D02*
Y7141D01*
X3260Y7086D02*
X3370D01*
X3315Y7031D02*
Y7141D01*
X3927Y7086D02*
X4037D01*
X3982Y7031D02*
Y7141D01*
X4435Y7086D02*
X4545D01*
X4490Y7031D02*
Y7141D01*
X5052Y7086D02*
X5162D01*
X5107Y7031D02*
Y7141D01*
X5560Y7086D02*
X5670D01*
X5615Y7031D02*
Y7141D01*
X6227Y7086D02*
X6337D01*
X6282Y7031D02*
Y7141D01*
X6735Y7086D02*
X6845D01*
X6790Y7031D02*
Y7141D01*
X7402Y7086D02*
X7512D01*
X7457Y7031D02*
Y7141D01*
X7910Y7086D02*
X8020D01*
X7965Y7031D02*
Y7141D01*
X8602Y7086D02*
X8712D01*
X8657Y7031D02*
Y7141D01*
X9110Y7086D02*
X9220D01*
X9165Y7031D02*
Y7141D01*
X9777Y7086D02*
X9887D01*
X9832Y7031D02*
Y7141D01*
X10285Y7086D02*
X10395D01*
X10340Y7031D02*
Y7141D01*
X10952Y7086D02*
X11062D01*
X11007Y7031D02*
Y7141D01*
X11460Y7086D02*
X11570D01*
X11515Y7031D02*
Y7141D01*
X12127Y7086D02*
X12237D01*
X12182Y7031D02*
Y7141D01*
X12635Y7086D02*
X12745D01*
X12690Y7031D02*
Y7141D01*
X390Y6186D02*
X523D01*
X457Y6119D02*
Y6252D01*
X644Y6186D02*
X777D01*
X711Y6119D02*
Y6252D01*
X898Y6186D02*
X1031D01*
X965Y6119D02*
Y6252D01*
X1608Y6186D02*
X1741D01*
X1675Y6119D02*
Y6252D01*
X1862Y6186D02*
X1995D01*
X1929Y6119D02*
Y6252D01*
X2116Y6186D02*
X2249D01*
X2183Y6119D02*
Y6252D01*
X2777Y6186D02*
X2910D01*
X2843Y6119D02*
Y6252D01*
X3031Y6186D02*
X3164D01*
X3097Y6119D02*
Y6252D01*
X3285Y6186D02*
X3418D01*
X3351Y6119D02*
Y6252D01*
X3945Y6186D02*
X4078D01*
X4011Y6119D02*
Y6252D01*
X4199Y6186D02*
X4332D01*
X4265Y6119D02*
Y6252D01*
X4453Y6186D02*
X4586D01*
X4519Y6119D02*
Y6252D01*
X5113Y6186D02*
X5246D01*
X5179Y6119D02*
Y6252D01*
X5367Y6186D02*
X5500D01*
X5433Y6119D02*
Y6252D01*
X5621Y6186D02*
X5754D01*
X5687Y6119D02*
Y6252D01*
X6281Y6186D02*
X6414D01*
X6348Y6119D02*
Y6252D01*
X6535Y6186D02*
X6668D01*
X6602Y6119D02*
Y6252D01*
X6789Y6186D02*
X6922D01*
X6856Y6119D02*
Y6252D01*
X7449Y6186D02*
X7582D01*
X7516Y6119D02*
Y6252D01*
X7703Y6186D02*
X7836D01*
X7770Y6119D02*
Y6252D01*
X7957Y6186D02*
X8090D01*
X8024Y6119D02*
Y6252D01*
X8617Y6186D02*
X8750D01*
X8684Y6119D02*
Y6252D01*
X8871Y6186D02*
X9004D01*
X8938Y6119D02*
Y6252D01*
X9125Y6186D02*
X9258D01*
X9192Y6119D02*
Y6252D01*
X9786Y6186D02*
X9919D01*
X9852Y6119D02*
Y6252D01*
X10040Y6186D02*
X10173D01*
X10106Y6119D02*
Y6252D01*
X10294Y6186D02*
X10427D01*
X10360Y6119D02*
Y6252D01*
X10954Y6186D02*
X11087D01*
X11020Y6119D02*
Y6252D01*
X11208Y6186D02*
X11341D01*
X11274Y6119D02*
Y6252D01*
X11462Y6186D02*
X11595D01*
X11528Y6119D02*
Y6252D01*
X12122Y6186D02*
X12255D01*
X12188Y6119D02*
Y6252D01*
X12376Y6186D02*
X12509D01*
X12442Y6119D02*
Y6252D01*
X12630Y6186D02*
X12763D01*
X12696Y6119D02*
Y6252D01*
X377Y7086D02*
X487D01*
X432Y7031D02*
Y7141D01*
X885Y7086D02*
X995D01*
X940Y7031D02*
Y7141D01*
X420Y4004D02*
X530D01*
X475Y3949D02*
Y4059D01*
X420Y3496D02*
X530D01*
X475Y3441D02*
Y3551D01*
X12660Y461D02*
X12770D01*
X12715Y406D02*
Y516D01*
X12152Y461D02*
X12262D01*
X12207Y406D02*
Y516D01*
X11510Y461D02*
X11620D01*
X11565Y406D02*
Y516D01*
X11002Y461D02*
X11112D01*
X11057Y406D02*
Y516D01*
X10360Y461D02*
X10470D01*
X10415Y406D02*
Y516D01*
X9852Y461D02*
X9962D01*
X9907Y406D02*
Y516D01*
X9160Y461D02*
X9270D01*
X9215Y406D02*
Y516D01*
X8652Y461D02*
X8762D01*
X8707Y406D02*
Y516D01*
X8010Y461D02*
X8120D01*
X8065Y406D02*
Y516D01*
X7502Y461D02*
X7612D01*
X7557Y406D02*
Y516D01*
X6810Y461D02*
X6920D01*
X6865Y406D02*
Y516D01*
X6302Y461D02*
X6412D01*
X6357Y406D02*
Y516D01*
X978Y486D02*
X1088D01*
X1033Y431D02*
Y541D01*
X470Y486D02*
X580D01*
X525Y431D02*
Y541D01*
X5152Y461D02*
X5262D01*
X5207Y406D02*
Y516D01*
X5660Y461D02*
X5770D01*
X5715Y406D02*
Y516D01*
X4002Y461D02*
X4112D01*
X4057Y406D02*
Y516D01*
X4510Y461D02*
X4620D01*
X4565Y406D02*
Y516D01*
X2807Y461D02*
X2917D01*
X2862Y406D02*
Y516D01*
X3315Y461D02*
X3425D01*
X3370Y406D02*
Y516D01*
X1652Y461D02*
X1762D01*
X1707Y406D02*
Y516D01*
X2160Y461D02*
X2270D01*
X2215Y406D02*
Y516D01*
X12100Y4790D02*
X12400D01*
X12250Y4640D02*
Y4940D01*
X840Y2610D02*
X1140D01*
X990Y2460D02*
Y2760D01*
M02*
