G04*
G04 #@! TF.GenerationSoftware,Altium Limited,Altium Designer,22.5.1 (42)*
G04*
G04 Layer_Physical_Order=2*
G04 Layer_Color=16711680*
%FSLAX42Y42*%
%MOMM*%
G71*
G04*
G04 #@! TF.SameCoordinates,49A84A85-C09A-4E6C-912C-EF7BF64B6CC2*
G04*
G04*
G04 #@! TF.FilePolarity,Positive*
G04*
G01*
G75*
%ADD16C,0.50*%
%ADD17R,1.00X1.50*%
%ADD18R,1.50X1.00*%
%ADD19R,1.80X1.30*%
%ADD20C,0.70*%
%ADD21C,0.80*%
%ADD22C,1.00*%
%ADD23C,1.20*%
%ADD24C,1.30*%
%ADD25C,1.50*%
%ADD26R,1.51X1.51*%
%ADD27C,2.50*%
%ADD28C,1.41*%
%ADD29R,1.41X1.41*%
%ADD30R,2.00X2.00*%
%ADD31C,2.00*%
%ADD32R,1.65X1.65*%
%ADD33C,1.65*%
%ADD34C,2.00*%
%ADD35R,2.00X2.00*%
%ADD36R,1.65X1.65*%
%ADD37C,3.00*%
G36*
X12310Y7480D02*
Y6990D01*
X12280Y6960D01*
X12020D01*
X11970Y7010D01*
Y7250D01*
X11930Y7290D01*
X11200D01*
X11170Y7260D01*
Y7030D01*
X11120Y6980D01*
X10870D01*
X10810Y7040D01*
Y7240D01*
X10770Y7280D01*
X10070D01*
X10030Y7240D01*
Y7060D01*
X9940Y6970D01*
X9720D01*
X9640Y7050D01*
Y7230D01*
X9600Y7270D01*
X8870D01*
X8820Y7220D01*
Y7020D01*
X8770Y6970D01*
X8530D01*
X8480Y7020D01*
Y7220D01*
X8430Y7270D01*
X7660D01*
X7650Y7280D01*
X7610Y7240D01*
Y7020D01*
X7550Y6960D01*
X7340D01*
X7260Y7040D01*
Y7250D01*
X7230Y7280D01*
X6520D01*
X6470Y7230D01*
Y7030D01*
X6390Y6950D01*
X6170D01*
X6100Y7020D01*
Y7230D01*
X6050Y7280D01*
X5310D01*
X5270Y7240D01*
Y7020D01*
X5210Y6960D01*
X4980D01*
X4920Y7020D01*
Y7240D01*
X4880Y7280D01*
X4190D01*
X4130Y7220D01*
Y7020D01*
X4070Y6960D01*
X3860D01*
X3800Y7020D01*
Y7220D01*
X3740Y7280D01*
X3000D01*
X2950Y7230D01*
Y7020D01*
X2900Y6970D01*
X2730D01*
X2660Y7040D01*
Y7220D01*
X2600Y7280D01*
X1820D01*
X1760Y7220D01*
Y7010D01*
X1720Y6970D01*
X1560D01*
X1500Y7030D01*
Y7220D01*
X1440Y7280D01*
X620D01*
X570Y7230D01*
Y7050D01*
X290Y6770D01*
Y4550D01*
X590Y4250D01*
X1540D01*
X1640Y4150D01*
X1700Y4090D01*
Y3750D01*
X1470D01*
X1440Y3780D01*
X1060D01*
X1000Y3840D01*
X380D01*
X320Y3780D01*
Y410D01*
X400Y330D01*
X870D01*
X910Y370D01*
Y570D01*
X950Y610D01*
X1100D01*
X1150Y560D01*
Y370D01*
X1190Y330D01*
X2060D01*
X2100Y370D01*
Y550D01*
X2130Y580D01*
X2300D01*
X2330Y550D01*
Y370D01*
X2370Y330D01*
X3200D01*
X3240Y370D01*
Y530D01*
X3290Y580D01*
X3440D01*
X3490Y530D01*
Y380D01*
X3540Y330D01*
X4390D01*
X4400Y320D01*
X4440Y360D01*
Y560D01*
X4470Y590D01*
X4640D01*
X4680Y550D01*
Y360D01*
X4720Y320D01*
X5560D01*
X5590Y350D01*
Y530D01*
X5640Y580D01*
X5780D01*
X5830Y530D01*
Y350D01*
X5860Y320D01*
X6710D01*
X6720Y310D01*
X6740Y330D01*
Y540D01*
X6790Y590D01*
X6940D01*
X6990Y540D01*
Y340D01*
X7020Y310D01*
X7880D01*
X7930Y360D01*
X7930Y540D01*
X7980Y590D01*
X8130D01*
X8190Y530D01*
Y350D01*
X8230Y310D01*
X9030D01*
X9070Y350D01*
Y540D01*
X9130Y600D01*
X9290D01*
X9350Y540D01*
Y350D01*
X9390Y310D01*
X10220D01*
X10280Y370D01*
X10280Y550D01*
X10320Y590D01*
X10500D01*
X10540Y550D01*
Y340D01*
X10580Y300D01*
X11370D01*
X11440Y370D01*
Y560D01*
X11480Y600D01*
X11660D01*
X11710Y550D01*
Y360D01*
X11770Y300D01*
X12510D01*
X12590Y380D01*
Y540D01*
X12640Y590D01*
X12910D01*
X12950Y550D01*
Y140D01*
X12960Y130D01*
X12890Y60D01*
X170D01*
X50Y180D01*
Y7420D01*
X40Y7430D01*
X140Y7530D01*
X12260D01*
X12310Y7480D01*
D02*
G37*
D16*
X11311Y2411D02*
X11330Y2430D01*
X8999Y2411D02*
X11311D01*
X9730Y5250D02*
Y5380D01*
Y5250D02*
X9861Y5119D01*
Y4689D02*
Y5119D01*
X10115Y5025D02*
X10361Y5271D01*
X10115Y4689D02*
Y5025D01*
X10361Y5271D02*
Y5376D01*
X5260Y2580D02*
X5289Y2609D01*
Y2911D01*
X2640Y2580D02*
X5260D01*
X5380Y2460D02*
X5540Y2620D01*
Y2908D02*
X5543Y2911D01*
X5540Y2620D02*
Y2908D01*
X6051Y2691D02*
Y2911D01*
X5710Y2350D02*
X6051Y2691D01*
X10840Y2500D02*
X12711Y4371D01*
X9230Y2500D02*
X10840D01*
X12711Y4371D02*
Y5376D01*
X9099Y2631D02*
X9230Y2500D01*
X9099Y2631D02*
Y2911D01*
X8845Y2565D02*
X8999Y2411D01*
X11430Y2050D02*
X12210D01*
X8715Y2335D02*
X11145D01*
X11430Y2050D01*
X9520Y2590D02*
X10726D01*
X9353Y2911D02*
X9357Y2907D01*
Y2753D02*
Y2907D01*
Y2753D02*
X9520Y2590D01*
X10726D02*
X11840Y3704D01*
Y5370D01*
X8845Y2565D02*
Y2911D01*
X8591Y2459D02*
Y2911D01*
Y2459D02*
X8715Y2335D01*
X8083Y2417D02*
X8240Y2260D01*
X11007D01*
X8083Y2417D02*
Y2911D01*
X8110Y2180D02*
X9830D01*
X7829Y2461D02*
Y2911D01*
Y2461D02*
X8110Y2180D01*
X7575Y2455D02*
X7984Y2046D01*
X8711D01*
X7575Y2455D02*
Y2911D01*
X11036Y2050D02*
Y2231D01*
X11007Y2260D02*
X11036Y2231D01*
X8011Y5376D02*
X9175D01*
X9353Y5198D01*
Y4689D02*
Y5198D01*
X9099Y4689D02*
Y5111D01*
X8945Y5265D02*
X9099Y5111D01*
X5730Y5190D02*
X8675D01*
X8845Y5020D01*
Y4689D02*
Y5020D01*
X4550Y5111D02*
X8414D01*
X8591Y4689D02*
Y4934D01*
X8414Y5111D02*
X8591Y4934D01*
X3390Y5035D02*
X7975D01*
X8083Y4689D02*
Y4927D01*
X7975Y5035D02*
X8083Y4927D01*
X2270Y4960D02*
X7500D01*
X7575Y4689D02*
Y4885D01*
X7500Y4960D02*
X7575Y4885D01*
X1150Y4870D02*
X7275D01*
X7321Y4689D02*
Y4824D01*
X7275Y4870D02*
X7321Y4824D01*
X850Y2037D02*
Y2261D01*
X879Y2290D01*
X2350D01*
X970Y5050D02*
Y5390D01*
Y5050D02*
X1150Y4870D01*
X5910Y2050D02*
X6559Y2699D01*
X5190Y2050D02*
X5910D01*
X9860Y2047D02*
Y2150D01*
Y2047D02*
X9861Y2046D01*
X9830Y2180D02*
X9860Y2150D01*
X2350Y2290D02*
X2640Y2580D01*
X1686Y2151D02*
X1715Y2180D01*
X2430D01*
X2710Y2460D01*
X1686Y2046D02*
Y2151D01*
X2710Y2460D02*
X5380D01*
X2860Y2180D02*
X3030Y2350D01*
X5710D01*
X6861Y5295D02*
X6890Y5265D01*
X8945D01*
X6861Y5295D02*
Y5376D01*
X5686Y5234D02*
Y5401D01*
Y5234D02*
X5730Y5190D01*
X4511Y5150D02*
X4550Y5111D01*
X4511Y5150D02*
Y5376D01*
X3361Y5065D02*
X3390Y5035D01*
X3361Y5065D02*
Y5376D01*
X2186Y5044D02*
X2270Y4960D01*
X2186Y5044D02*
Y5376D01*
X2860Y2047D02*
Y2180D01*
Y2047D02*
X2861Y2046D01*
X4050Y2160D02*
X4120Y2230D01*
X5800D02*
X6305Y2735D01*
X4120Y2230D02*
X5800D01*
X4050Y2060D02*
Y2160D01*
X4036Y2046D02*
X4050Y2060D01*
X6305Y2735D02*
Y2911D01*
X6559Y2699D02*
Y2911D01*
X7536Y2046D02*
Y2214D01*
X7321Y2429D02*
X7536Y2214D01*
X6361Y2046D02*
Y2186D01*
X6813Y2638D01*
Y2911D01*
X7321Y2429D02*
Y2911D01*
D17*
X10930Y3960D02*
D03*
X10610D02*
D03*
X11330Y2430D02*
D03*
X11650D02*
D03*
D18*
X12711Y5376D02*
D03*
X11840Y5370D02*
D03*
X9730Y5700D02*
D03*
Y5380D02*
D03*
X8711Y2046D02*
D03*
Y1726D02*
D03*
X12210Y1730D02*
D03*
Y2050D02*
D03*
X11040Y1730D02*
D03*
Y2050D02*
D03*
X9861Y1726D02*
D03*
Y2046D02*
D03*
X7536Y1726D02*
D03*
Y2046D02*
D03*
X6361Y1726D02*
D03*
Y2046D02*
D03*
X5190Y1730D02*
D03*
Y2050D02*
D03*
X4036Y1726D02*
D03*
Y2046D02*
D03*
X2861Y1726D02*
D03*
Y2046D02*
D03*
X1686Y1726D02*
D03*
Y2046D02*
D03*
X850Y1730D02*
D03*
Y2050D02*
D03*
X12711Y5696D02*
D03*
X11840Y5690D02*
D03*
X10361Y5696D02*
D03*
Y5376D02*
D03*
X8011Y5696D02*
D03*
Y5376D02*
D03*
X6861Y5696D02*
D03*
Y5376D02*
D03*
X5686Y5721D02*
D03*
Y5401D02*
D03*
X4511Y5696D02*
D03*
Y5376D02*
D03*
X3361Y5696D02*
D03*
Y5376D02*
D03*
X2186Y5696D02*
D03*
Y5376D02*
D03*
X970Y5710D02*
D03*
Y5390D02*
D03*
D19*
X1175Y3845D02*
D03*
Y3555D02*
D03*
X2150Y3595D02*
D03*
Y3305D02*
D03*
D20*
X9902Y2675D02*
X10675D01*
X11024Y3024D01*
X9861Y2716D02*
X9902Y2675D01*
X9861Y2716D02*
Y2911D01*
X11024Y3024D02*
Y3650D01*
X5186Y1730D02*
Y1751D01*
X11036Y1701D02*
X11037Y1699D01*
X12209Y1699D02*
X12211Y1701D01*
X12207Y1286D02*
X12209Y1288D01*
X11037Y1287D02*
X11039Y1286D01*
X9866Y1291D02*
X9871Y1286D01*
X9861Y1726D02*
X9866Y1721D01*
X8707Y1722D02*
X8711Y1726D01*
X8702Y1286D02*
X8707Y1290D01*
X7535Y1725D02*
X7536Y1726D01*
X7534Y1286D02*
X7535Y1287D01*
X6363Y1289D02*
X6366Y1286D01*
X6361Y1726D02*
X6363Y1723D01*
X5192Y1292D02*
X5198Y1286D01*
X4030D02*
X4033Y1289D01*
Y1723D02*
X4036Y1726D01*
X2861Y1286D02*
X2862Y1286D01*
X2861Y1726D02*
X2861Y1725D01*
X1686Y1726D02*
X1690Y1722D01*
Y1290D02*
X1693Y1286D01*
D21*
X10990Y4045D02*
Y4230D01*
X10940Y3970D02*
Y3995D01*
X10990Y4045D01*
Y4230D02*
X11010Y4250D01*
X10930Y3960D02*
X10940Y3970D01*
X6813Y4387D02*
X6900Y4300D01*
X10270D01*
X6813Y4387D02*
Y4689D01*
X10270Y4300D02*
X10530Y4560D01*
Y5150D01*
X10640Y5260D01*
X11050D01*
X10410Y3960D02*
X10610D01*
X10115Y3665D02*
X10410Y3960D01*
X10115Y2911D02*
Y3665D01*
X10770Y4730D02*
X10800Y4760D01*
X10770Y3650D02*
Y4730D01*
X2130Y3600D02*
X2150Y3620D01*
X570Y3466D02*
X600Y3496D01*
X2120Y3600D02*
X2130D01*
X11020Y5579D02*
X11050Y5550D01*
X9852Y6186D02*
X9854Y6184D01*
X8684Y5556D02*
X8690Y5550D01*
X7516Y5554D02*
X7520Y5550D01*
X6348Y5552D02*
X6350Y5550D01*
X5179Y5550D02*
X5180Y5550D01*
X4010Y5550D02*
X4011Y5551D01*
X2830Y5550D02*
X2843Y5563D01*
X1670Y5550D02*
X1675Y5555D01*
X4867Y5550D02*
X4867Y5550D01*
X1030Y1890D02*
X1033Y1887D01*
X2190Y1890D02*
X2201Y1879D01*
X3370Y1890D02*
X3370Y1890D01*
X4538Y1868D02*
X4560Y1890D01*
X5700D02*
X5706Y1884D01*
X6874Y1884D02*
X6880Y1890D01*
X8040D02*
X8042Y1888D01*
X9210Y1890D02*
X9210Y1890D01*
X11540Y1890D02*
X11547Y1883D01*
X10370Y1890D02*
X10379Y1881D01*
X12715Y1286D02*
X12720Y1291D01*
D22*
X9192Y5948D02*
X9450Y5690D01*
X9730D01*
X9192Y5948D02*
Y6186D01*
X12720Y1291D02*
Y1710D01*
X12540Y1890D02*
X12720Y1710D01*
X11540Y1890D02*
X12540D01*
X12188Y5550D02*
Y6186D01*
X11960Y3280D02*
X12920Y4240D01*
X12860Y5550D02*
X12920Y5490D01*
X12170Y5550D02*
X12860D01*
X12123D02*
X12170D01*
X12920Y4240D02*
Y5490D01*
X11960Y2984D02*
Y3280D01*
X11650Y2440D02*
X11924D01*
X11960Y2476D01*
X11300Y5550D02*
X12123D01*
X11050D02*
X11300D01*
Y4760D02*
Y5550D01*
X11278Y3650D02*
Y4727D01*
X11300Y4749D01*
Y4760D01*
X10050Y5550D02*
X11020D01*
X11528Y6186D02*
X11578Y6136D01*
Y6072D02*
Y6136D01*
X11831Y5690D02*
Y5819D01*
X11578Y6072D02*
X11831Y5819D01*
Y5690D02*
X11840D01*
X457Y4823D02*
Y5550D01*
X800Y4480D02*
X2030D01*
X457Y4823D02*
X800Y4480D01*
X531Y1291D02*
Y1595D01*
X666Y1730D01*
X850D01*
X660Y1890D02*
X1030D01*
X570Y1980D02*
Y3466D01*
Y1980D02*
X660Y1890D01*
X2030Y4480D02*
X2150Y4360D01*
Y3620D02*
Y4360D01*
X11020Y5579D02*
Y6186D01*
X8690Y5550D02*
X10050D01*
Y5770D01*
X9854Y5966D02*
Y6184D01*
Y5966D02*
X10050Y5770D01*
X7520Y5550D02*
X8690D01*
X8684Y5556D02*
Y6186D01*
X6350Y5550D02*
X7520D01*
X7516Y5554D02*
Y6186D01*
X5180Y5550D02*
X6350D01*
X6348Y5552D02*
Y6186D01*
X4867Y5550D02*
X5180D01*
X5179Y5550D02*
Y6186D01*
X4010Y5550D02*
X4867D01*
X2830D02*
X4010D01*
X4011Y5551D02*
Y6186D01*
X1670Y5550D02*
X2830D01*
X2843Y5563D02*
Y6186D01*
X457Y5550D02*
X1670D01*
X1675Y5555D02*
Y6186D01*
X457Y5550D02*
Y6186D01*
X967Y5710D02*
Y6183D01*
X965Y6186D02*
X967Y6183D01*
Y5710D02*
X970D01*
X5186Y1730D02*
X5192Y1724D01*
Y1292D02*
Y1724D01*
X11037Y1287D02*
Y1699D01*
X12209Y1288D02*
Y1699D01*
X1030Y1890D02*
X2190D01*
X1033Y1286D02*
Y1887D01*
X2190Y1890D02*
X3370D01*
X2201Y1286D02*
Y1879D01*
X3370Y1890D02*
X4560D01*
X3370Y1286D02*
Y1890D01*
X4560Y1890D02*
X5700D01*
X4538Y1286D02*
Y1868D01*
X5700Y1890D02*
X6880D01*
X5706Y1286D02*
Y1884D01*
X6880Y1890D02*
X8040D01*
X6874Y1286D02*
Y1884D01*
X8040Y1890D02*
X9210D01*
X8042Y1286D02*
Y1888D01*
X9210Y1890D02*
X10370D01*
X9210Y1286D02*
Y1890D01*
X10370Y1890D02*
X11540D01*
X11547Y1286D02*
Y1883D01*
X10379Y1286D02*
Y1881D01*
X12704Y5696D02*
Y6179D01*
Y5696D02*
X12711D01*
X12696Y6186D02*
X12704Y6179D01*
X10360Y5696D02*
Y6185D01*
X10360Y6186D02*
X10360Y6185D01*
Y5696D02*
X10361D01*
X8017D02*
Y6179D01*
X8024Y6186D01*
X8011Y5696D02*
X8017D01*
X6858D02*
Y6183D01*
Y5696D02*
X6861D01*
X6856Y6186D02*
X6858Y6183D01*
X5687Y5721D02*
Y6185D01*
X5686Y5721D02*
X5687D01*
Y6185D02*
X5687Y6186D01*
X4515Y5696D02*
Y6182D01*
X4519Y6186D01*
X4511Y5696D02*
X4515D01*
X3351D02*
Y6186D01*
Y5696D02*
X3361D01*
X2183D02*
Y6186D01*
Y5696D02*
X2186D01*
X9866Y1291D02*
Y1721D01*
X8707Y1290D02*
Y1722D01*
X7535Y1287D02*
Y1725D01*
X6363Y1289D02*
Y1723D01*
X4033Y1289D02*
Y1723D01*
X2861Y1286D02*
Y1725D01*
X1690Y1290D02*
Y1722D01*
X525Y1286D02*
X531Y1291D01*
D23*
X12650Y2310D02*
Y2486D01*
X12940Y566D02*
Y2020D01*
X12650Y2310D02*
X12940Y2020D01*
X12840Y467D02*
X12940Y566D01*
X12721Y467D02*
X12840D01*
X12715Y461D02*
X12721Y467D01*
D24*
X4700Y2990D02*
X5797Y4087D01*
Y4689D01*
X5543Y4273D02*
Y4689D01*
X4575Y3305D02*
X5543Y4273D01*
X1175Y3066D02*
Y3555D01*
X1251Y2990D02*
X4700D01*
X1175Y3066D02*
X1251Y2990D01*
X2150Y3305D02*
X4575D01*
X600Y3496D02*
X866D01*
X475D02*
X600D01*
X1905Y3305D02*
X2175D01*
X1870Y3340D02*
X1905Y3305D01*
X1581Y3340D02*
X1870D01*
X1575Y3346D02*
X1581Y3340D01*
X1575Y3600D02*
X2120D01*
X1360Y3590D02*
X1565D01*
X1575Y3600D01*
X1175Y3555D02*
X1325D01*
X1360Y3590D01*
X866Y3496D02*
X925Y3555D01*
X1175D01*
D25*
X12434Y2994D02*
X12650D01*
X12170Y2730D02*
X12434Y2994D01*
X11960Y2730D02*
X12170D01*
X12690Y6780D02*
Y7086D01*
X12442Y6532D02*
X12690Y6780D01*
X12442Y6186D02*
Y6532D01*
X11515Y6695D02*
Y7086D01*
X11274Y6186D02*
Y6454D01*
X11515Y6695D01*
X10110Y6190D02*
Y6550D01*
X10340Y6780D02*
Y7086D01*
X10110Y6550D02*
X10340Y6780D01*
X8940Y6188D02*
Y6530D01*
X9165Y6755D02*
Y7086D01*
X8940Y6530D02*
X9165Y6755D01*
X7770Y6186D02*
Y6550D01*
X7965Y6745D02*
Y7086D01*
X7770Y6550D02*
X7965Y6745D01*
X6790Y6730D02*
Y7086D01*
X6602Y6186D02*
Y6542D01*
X6790Y6730D01*
X5433Y6186D02*
Y6573D01*
X5615Y6755D02*
Y7086D01*
X5433Y6573D02*
X5615Y6755D01*
X4265Y6535D02*
X4490Y6760D01*
Y7086D01*
X4265Y6186D02*
Y6535D01*
X3097Y6186D02*
Y6517D01*
X3315Y6735D02*
Y7086D01*
X3097Y6517D02*
X3315Y6735D01*
X1929Y6519D02*
X2140Y6730D01*
X1929Y6186D02*
Y6519D01*
X2140Y6730D02*
Y7086D01*
X711Y6581D02*
X940Y6810D01*
X711Y6186D02*
Y6581D01*
X940Y6810D02*
Y7086D01*
X8938Y6186D02*
X8940Y6188D01*
X10106Y6186D02*
X10110Y6190D01*
X12460Y1285D02*
X12461Y1286D01*
X12460Y1000D02*
Y1285D01*
X12207Y747D02*
X12460Y1000D01*
X12207Y461D02*
Y747D01*
X11300Y970D02*
Y1279D01*
X11057Y727D02*
X11300Y970D01*
X11057Y461D02*
Y727D01*
X11293Y1286D02*
X11300Y1279D01*
X10125Y1286D02*
X10130Y1280D01*
Y930D02*
Y1280D01*
X9907Y461D02*
Y707D01*
X10130Y930D01*
X8966Y986D02*
Y1276D01*
X8707Y461D02*
Y727D01*
X8966Y986D01*
X8956Y1286D02*
X8966Y1276D01*
X7557Y737D02*
X7798Y978D01*
X7557Y461D02*
Y737D01*
X7798Y978D02*
Y1276D01*
X7788Y1286D02*
X7798Y1276D01*
X6630Y990D02*
Y1276D01*
X6357Y461D02*
Y717D01*
X6630Y990D01*
X6620Y1286D02*
X6630Y1276D01*
X5207Y757D02*
X5442Y992D01*
Y1276D02*
X5452Y1286D01*
X5442Y992D02*
Y1276D01*
X5207Y461D02*
Y757D01*
X4293Y923D02*
Y1276D01*
X4057Y687D02*
X4293Y923D01*
X4057Y461D02*
Y687D01*
X4284Y1286D02*
X4293Y1276D01*
X3116Y886D02*
Y1286D01*
X2869Y468D02*
Y639D01*
X3116Y886D01*
X2862Y461D02*
X2869Y468D01*
X1960Y990D02*
Y1114D01*
X1947Y1286D02*
X1957Y1276D01*
Y1117D02*
Y1276D01*
Y1117D02*
X1960Y1114D01*
X1707Y737D02*
X1960Y990D01*
X1707Y461D02*
Y737D01*
X525Y486D02*
Y750D01*
X779Y1004D01*
Y1286D01*
D26*
X5289Y2911D02*
D03*
X5543D02*
D03*
X5797D02*
D03*
X6051D02*
D03*
X6305D02*
D03*
X6559D02*
D03*
X6813D02*
D03*
X7067D02*
D03*
X7321D02*
D03*
X7575D02*
D03*
X7829D02*
D03*
X8083D02*
D03*
X8337D02*
D03*
X8591D02*
D03*
X8845D02*
D03*
X9099D02*
D03*
X9353D02*
D03*
X9607D02*
D03*
X9861D02*
D03*
X10115D02*
D03*
X5289Y4689D02*
D03*
X5543D02*
D03*
X5797D02*
D03*
X6051D02*
D03*
X6305D02*
D03*
X6559D02*
D03*
X6813D02*
D03*
X7067D02*
D03*
X7321D02*
D03*
X7575D02*
D03*
X7829D02*
D03*
X8083D02*
D03*
X8337D02*
D03*
X8591D02*
D03*
X8845D02*
D03*
X9099D02*
D03*
X9353D02*
D03*
X9607D02*
D03*
X9861D02*
D03*
X10115D02*
D03*
D27*
X11050Y5010D02*
D03*
D28*
X11300Y4760D02*
D03*
X11050Y5260D02*
D03*
D29*
X10800Y4760D02*
D03*
D30*
X11960Y2476D02*
D03*
X1575Y3854D02*
D03*
D31*
X11960Y2730D02*
D03*
Y2984D02*
D03*
X1575Y3346D02*
D03*
Y3600D02*
D03*
X12715Y1286D02*
D03*
X12461D02*
D03*
X11547D02*
D03*
X11293D02*
D03*
X10379D02*
D03*
X10125D02*
D03*
X9210D02*
D03*
X8956D02*
D03*
X8042D02*
D03*
X7788D02*
D03*
X6874D02*
D03*
X6620D02*
D03*
X4538D02*
D03*
X4284D02*
D03*
X3370D02*
D03*
X3116D02*
D03*
X2201D02*
D03*
X1947D02*
D03*
X1033D02*
D03*
X779D02*
D03*
X5706D02*
D03*
X5452D02*
D03*
X457Y6186D02*
D03*
X711D02*
D03*
X1675Y6186D02*
D03*
X1929D02*
D03*
X2843D02*
D03*
X3097D02*
D03*
X4011D02*
D03*
X4265D02*
D03*
X5179D02*
D03*
X5433D02*
D03*
X6348D02*
D03*
X6602D02*
D03*
X7516D02*
D03*
X7770D02*
D03*
X8684D02*
D03*
X8938D02*
D03*
X9852D02*
D03*
X10106D02*
D03*
X11020D02*
D03*
X11274D02*
D03*
X12188D02*
D03*
X12442D02*
D03*
D32*
X12650Y2994D02*
D03*
X475Y3496D02*
D03*
D33*
X12650Y2486D02*
D03*
X1632Y7086D02*
D03*
X2807D02*
D03*
X3982D02*
D03*
X5107D02*
D03*
X6282D02*
D03*
X7457D02*
D03*
X8657D02*
D03*
X9832D02*
D03*
X11007D02*
D03*
X12182D02*
D03*
X432D02*
D03*
X475Y4004D02*
D03*
X12715Y461D02*
D03*
X11565D02*
D03*
X10415D02*
D03*
X9215D02*
D03*
X8065D02*
D03*
X6865D02*
D03*
X1033Y486D02*
D03*
X5715Y461D02*
D03*
X4565D02*
D03*
X3370D02*
D03*
X2215D02*
D03*
D34*
X11010Y4250D02*
D03*
X10756D02*
D03*
X11264D02*
D03*
X11024Y3650D02*
D03*
X10770D02*
D03*
X11278D02*
D03*
D35*
X12207Y1286D02*
D03*
X11039D02*
D03*
X9871D02*
D03*
X8702D02*
D03*
X7534D02*
D03*
X6366D02*
D03*
X4030D02*
D03*
X2862D02*
D03*
X1693D02*
D03*
X525D02*
D03*
X5198D02*
D03*
X965Y6186D02*
D03*
X2183Y6186D02*
D03*
X3351D02*
D03*
X4519D02*
D03*
X5687D02*
D03*
X6856D02*
D03*
X8024D02*
D03*
X9192D02*
D03*
X10360D02*
D03*
X11528D02*
D03*
X12696D02*
D03*
D36*
X2140Y7086D02*
D03*
X3315D02*
D03*
X4490D02*
D03*
X5615D02*
D03*
X6790D02*
D03*
X7965D02*
D03*
X9165D02*
D03*
X10340D02*
D03*
X11515D02*
D03*
X12690D02*
D03*
X940D02*
D03*
X12207Y461D02*
D03*
X11057D02*
D03*
X9907D02*
D03*
X8707D02*
D03*
X7557D02*
D03*
X6357D02*
D03*
X525Y486D02*
D03*
X5207Y461D02*
D03*
X4057D02*
D03*
X2862D02*
D03*
X1707D02*
D03*
D37*
X12250Y4790D02*
D03*
X990Y2610D02*
D03*
M02*
